<?xml version="1.0" encoding="UTF-8"?>
<svg version="1.1" xmlns="http://www.w3.org/2000/svg" width="512" height="512">
<path d="M0 0 C18.15236833 14.7152335 25.66356862 37.96747686 28.20559502 60.35902214 C29.38662781 72.22722441 29.10831393 84.17748116 29.05825663 96.08998346 C29.0455719 99.62930662 29.04456504 103.16863491 29.04220581 106.70797729 C29.03604228 113.37977826 29.01970256 120.051512 28.99950683 126.72328365 C28.97275754 135.76035648 28.96213366 144.7974483 28.9505024 153.83455086 C28.9318169 168.02907363 28.89193767 182.2234547 28.85546875 196.41796875 C5.75546875 196.41796875 -17.34453125 196.41796875 -41.14453125 196.41796875 C-41.18191406 187.92949219 -41.21929687 179.44101562 -41.2578125 170.6953125 C-41.29197224 164.60722113 -41.32797101 158.51916221 -41.36660862 152.43109989 C-41.41631629 144.56044808 -41.46179873 136.68984943 -41.4909668 128.8190918 C-41.51408831 122.58371937 -41.54764106 116.34850082 -41.59323281 110.11325079 C-41.61697651 106.81794444 -41.6342702 103.5228181 -41.64214516 100.22743034 C-41.09069191 72.19704086 -41.09069191 72.19704086 -52.80859375 47.44921875 C-59.30360664 41.39906976 -67.43068957 39.43087815 -76.14453125 39.41796875 C-86.22336649 40.21101015 -95.57337181 43.74319968 -102.54296875 51.2578125 C-108.06994602 58.7124916 -111.23812906 66.54348422 -111.30274963 75.8026886 C-111.31253845 76.86974533 -111.32232727 77.93680206 -111.33241272 79.03619385 C-111.33816818 80.19641052 -111.34392365 81.3566272 -111.34985352 82.55200195 C-111.35975311 83.78168198 -111.36965271 85.011362 -111.37985229 86.27830505 C-111.40599096 89.64153283 -111.42787316 93.0047375 -111.44785428 96.36800408 C-111.4697645 99.8860833 -111.49712849 103.40412002 -111.52391052 106.92216492 C-111.57376945 113.58017697 -111.61873342 120.2382127 -111.66193289 126.89627093 C-111.71621423 135.22189469 -111.77703991 143.54746898 -111.83789062 151.87304688 C-111.94638609 166.72131613 -112.04499169 181.56963076 -112.14453125 196.41796875 C-135.24453125 196.41796875 -158.34453125 196.41796875 -182.14453125 196.41796875 C-182.14453125 127.77796875 -182.14453125 59.13796875 -182.14453125 -11.58203125 C-159.04453125 -11.58203125 -135.94453125 -11.58203125 -112.14453125 -11.58203125 C-111.64953125 0.79296875 -111.64953125 0.79296875 -111.14453125 13.41796875 C-109.49453125 11.58234375 -107.84453125 9.74671875 -106.14453125 7.85546875 C-78.05854632 -22.76882769 -33.174773 -24.4731932 0 0 Z " fill="#000000" transform="translate(388.14453125,213.58203125)"/>
<path d="M0 0 C23.1 0 46.2 0 70 0 C70 68.64 70 137.28 70 208 C47.23 208 24.46 208 1 208 C-0.78153382 206.21846618 -0.12254859 203.82545538 -0.12908131 201.45308393 C-0.12616847 200.65057048 -0.12325563 199.84805702 -0.12025452 199.02122498 C-0.12110894 198.17507521 -0.12196337 197.32892545 -0.12284368 196.45713478 C-0.12450108 193.59957601 -0.11897288 190.74207492 -0.11352539 187.88452148 C-0.11324355 185.84499106 -0.11340119 183.80546054 -0.1139679 181.76593018 C-0.11425599 176.21037264 -0.10835738 170.65483648 -0.10139394 165.09928393 C-0.09516234 159.30032632 -0.09455676 153.50136828 -0.09336853 147.70240784 C-0.09025464 136.71286173 -0.08204048 125.72332552 -0.07201904 114.73378378 C-0.06085969 102.22614015 -0.0553479 89.71849606 -0.05032361 77.21084869 C-0.03985791 51.47389237 -0.02151172 25.73694962 0 0 Z " fill="#000000" transform="translate(99,202)"/>
<path d="M0 0 C7.54607662 7.42839902 10.98295508 16.50945435 11.37890625 27.03515625 C10.98267616 37.90564253 6.60093353 46.7813621 -1.18359375 54.22265625 C-10.68421982 62.29580929 -21.92953712 63.73693373 -34.02832031 63.14746094 C-44.50340615 62.21691981 -52.78018315 57.6929626 -59.7734375 50.0234375 C-66.59732965 41.53111206 -68.65050834 32.12309254 -67.78125 21.296875 C-66.1491456 11.30217855 -60.95707861 3.18412314 -52.99609375 -3.02734375 C-36.43961267 -12.9260593 -15.01741303 -12.65331223 0 0 Z " fill="#000000" transform="translate(162.99609375,112.02734375)"/>
</svg>
