<?xml version="1.0" encoding="UTF-8"?>
<svg version="1.1" xmlns="http://www.w3.org/2000/svg" width="894" height="1348">
<path d="M0 0 C0.86469808 -0.01021863 1.72939617 -0.02043725 2.62029722 -0.03096554 C5.52633581 -0.05793873 8.43056003 -0.04211333 11.33665943 -0.02653408 C13.43766047 -0.03702542 15.53864986 -0.05011651 17.63962013 -0.06558794 C23.41978202 -0.10040977 29.19941191 -0.09761167 34.97964942 -0.08862984 C41.2109717 -0.0853531 47.4421366 -0.11641982 53.67339039 -0.14289761 C65.88451811 -0.18891307 78.09540105 -0.20171405 90.30659523 -0.20154686 C100.23153538 -0.20155256 110.15641847 -0.21154337 120.08134365 -0.2285738 C122.93807735 -0.23337103 125.79481111 -0.23813294 128.65154487 -0.24289125 C129.3617386 -0.24407839 130.07193234 -0.24526552 130.80364709 -0.24648864 C150.78164992 -0.27953823 170.75963232 -0.29965506 190.73766327 -0.2937088 C191.4909485 -0.29349011 192.24423374 -0.29327142 193.02034579 -0.2930461 C196.83831341 -0.29190789 200.65628098 -0.29066595 204.47424855 -0.28939397 C205.23251057 -0.2891431 205.99077259 -0.28889223 206.77201225 -0.28863376 C208.30540362 -0.28812536 209.83879498 -0.28760964 211.37218635 -0.28708661 C235.22558825 -0.27928014 259.07854227 -0.3172223 282.9318285 -0.39041042 C309.73121143 -0.4725883 336.53030484 -0.51771684 363.32982188 -0.50998205 C366.18812738 -0.50928818 369.04643288 -0.50873181 371.90473843 -0.5082674 C372.60852452 -0.50813005 373.31231061 -0.5079927 374.03742355 -0.50785119 C384.65776433 -0.50657022 395.27777418 -0.53448096 405.89802074 -0.57740879 C417.97984191 -0.62624022 430.06081033 -0.63588056 442.14273801 -0.59658093 C448.30751719 -0.57761026 454.47094774 -0.5763678 460.63560963 -0.62299633 C466.28118966 -0.66524468 471.9243337 -0.65657414 477.56983826 -0.60759812 C479.61022545 -0.59879301 481.65079571 -0.60850917 483.69097742 -0.63877428 C500.51882773 -0.8716323 500.51882773 -0.8716323 506.45350512 4.62375385 C508.56896806 6.88548211 510.44272153 9.31422639 512.32758045 11.7690134 C513.65869806 13.00401055 515.01690324 14.21181761 516.42133045 15.3627634 C522.02389244 20.15517896 527.09346549 25.49101217 532.2611742 30.74166965 C536.48219456 35.00373721 540.76726436 39.07559899 545.31781483 42.98190403 C549.97099895 47.11957504 554.25306408 51.65909573 558.61664295 56.0971384 C562.08370432 59.59994268 565.55562647 63.02665062 569.29633045 66.2377634 C574.93302676 71.0819737 580.05145183 76.44832413 585.2611742 81.74166965 C588.85694272 85.37240512 592.44905001 88.93958697 596.32758045 92.2690134 C601.95570802 97.10033727 607.06194644 102.45898719 612.2611742 107.74166965 C616.48219456 112.00373721 620.76726436 116.07559899 625.31781483 119.98190403 C629.97099895 124.11957504 634.25306408 128.65909573 638.61664295 133.0971384 C642.08370432 136.59994268 645.55562647 140.02665062 649.29633045 143.2377634 C654.93302676 148.0819737 660.05145183 153.44832413 665.2611742 158.74166965 C668.78480204 162.29956292 672.29435295 165.80355929 676.10883045 169.0502634 C677.0042189 169.86381023 677.0042189 169.86381023 677.917696 170.69379234 C680.38888592 172.89003576 680.38888592 172.89003576 683.53143311 175.02363968 C689.41708864 179.52407799 693.396285 183.89259749 694.51023769 191.41091442 C695.09980158 198.5557426 694.9372807 205.69547985 694.80341053 212.85617161 C694.79247738 215.60686975 694.8012379 218.35742483 694.80916309 221.10812473 C694.81594953 227.01059025 694.7754909 232.91117439 694.70207119 238.81316662 C694.59599518 247.34589913 694.56252045 255.87773061 694.5462273 264.41105094 C694.51784026 278.25834397 694.43150679 292.1046362 694.30829334 305.95138645 C694.18879495 319.39469603 694.09700969 332.83773149 694.04169178 346.28146458 C694.03820781 347.11986395 694.03472385 347.95826333 694.03113431 348.82206875 C694.00409862 355.37981338 693.97865972 361.93756395 693.95372498 368.49531686 C693.83129191 400.58746791 693.5697132 432.67711091 693.32758045 464.7690134 C609.83758045 464.7690134 526.34758045 464.7690134 440.32758045 464.7690134 C440.32758045 468.0690134 440.32758045 471.3690134 440.32758045 474.7690134 C438.99641269 481.01971421 436.30337117 485.75246135 431.1674242 489.58541965 C424.6963209 493.74835872 418.88313498 494.74459325 411.32758045 493.7690134 C408.67886908 492.92416581 406.22546888 491.93117108 403.7142992 490.74166965 C399.08709826 488.85595274 394.18922526 488.6293248 389.24164295 488.37448215 C371.64251212 487.37232292 354.60149289 485.24406864 337.32758045 481.7690134 C349.09569838 495.54021524 362.04380652 504.35141707 377.49335194 513.64328098 C379.12881046 514.64702107 380.73095014 515.7045932 382.32758045 516.7690134 C384.56635349 516.61037371 384.56635349 516.61037371 387.03137684 515.92372227 C435.83422958 504.0550349 495.1350297 498.61135067 540.17706546 525.07276195 C566.54627018 541.22814655 589.4440652 562.1649622 611.46385697 583.70903221 C614.25017926 586.42941411 617.05293766 589.13198661 619.8582294 591.83279014 C680.37057176 650.36786009 708.82452774 707.4880345 710.30841642 793.28063666 C710.77055511 830.55988918 709.33140035 867.66787552 706.86728348 904.84822043 C705.50349938 925.44017632 704.62906154 946.00040627 704.16083241 966.63205051 C704.14509493 967.31951103 704.12935745 968.00697155 704.11314308 968.71526421 C703.97090148 974.94004095 703.83235284 981.16489677 703.69727348 987.38983295 C703.14810148 1012.50344755 702.30085207 1037.60915631 701.3471117 1062.71041965 C701.29960877 1063.96718404 701.25210583 1065.22394843 701.20316342 1066.51879659 C700.60459035 1082.14809391 699.85659319 1097.75954646 698.87094402 1113.36934757 C698.60102461 1117.6890152 698.37731342 1122.00685858 698.19762897 1126.33119869 C696.60451335 1163.45670781 696.60451335 1163.45670781 684.00148907 1175.70100384 C680.80399774 1178.6280574 677.45723063 1181.29021767 673.95742548 1183.84441364 C668.45777492 1187.8692235 663.44674483 1192.50856125 658.67133045 1197.3627634 C657.87597889 1198.16584934 657.08062733 1198.96893528 656.2611742 1199.79635715 C655.45808826 1200.61233372 654.65500233 1201.42831028 653.82758045 1202.2690134 C648.81837576 1207.35862267 643.78735264 1212.29905941 638.36859608 1216.95065403 C634.34261151 1220.53744028 630.60836547 1224.42754163 626.82758045 1228.2690134 C621.80830536 1233.36885471 616.7671242 1238.32084823 611.33734608 1242.98190403 C607.49448855 1246.39902224 603.93149358 1250.10360005 600.32758045 1253.7690134 C591.90566088 1262.33465174 591.90566088 1262.33465174 587.35883045 1266.2377634 C582.59591531 1270.33104097 578.23043919 1274.79548278 573.82758045 1279.2690134 C568.81837576 1284.35862267 563.78735264 1289.29905941 558.36859608 1293.95065403 C554.34261151 1297.53744028 550.60836547 1301.42754163 546.82758045 1305.2690134 C541.80830536 1310.36885471 536.7671242 1315.32084823 531.33734608 1319.98190403 C527.49448855 1323.39902224 523.93149358 1327.10360005 520.32758045 1330.7690134 C515.3543305 1335.82713111 510.35142002 1340.74864141 504.9564867 1345.35885715 C503.70150472 1346.44530439 502.5013239 1347.59526996 501.32758045 1348.7690134 C498.56541067 1348.97177065 495.90282097 1349.04757184 493.13897228 1349.03745556 C492.27799079 1349.04216002 491.41700929 1349.04686448 490.52993745 1349.0517115 C487.61301944 1349.06514231 484.69627858 1349.06417355 481.77933216 1349.06335545 C479.67965662 1349.06994956 477.57998363 1349.07740002 475.4803139 1349.0856384 C469.68547103 1349.10573088 463.8906696 1349.11312038 458.09579682 1349.11841702 C451.85565719 1349.12620769 445.61555062 1349.14536545 439.37543201 1349.16284275 C425.00582845 1349.20054518 410.63623232 1349.22089076 396.26659237 1349.23776411 C389.16777506 1349.24617277 382.06896115 1349.25661736 374.97014671 1349.26713317 C350.67696782 1349.30291764 326.38378798 1349.33291043 302.09058666 1349.34777355 C300.56493111 1349.34872307 299.03927555 1349.34967485 297.51362 1349.35062888 C296.37871949 1349.351338 296.37871949 1349.351338 295.2208917 1349.35206146 C291.38747674 1349.35446389 287.55406179 1349.35689478 283.72064686 1349.35934544 C282.95988893 1349.35982574 282.199131 1349.36030604 281.4153198 1349.36080089 C256.74858922 1349.37658746 232.08205097 1349.42345008 207.41540438 1349.48845732 C181.34551427 1349.55703744 155.27573669 1349.59647436 129.20575488 1349.60306203 C126.34435148 1349.60389713 123.48294816 1349.60485626 120.62154484 1349.60590839 C119.91697048 1349.60615478 119.21239612 1349.60640116 118.48647102 1349.60665501 C107.14223613 1349.61132134 95.79822436 1349.64265415 84.45406903 1349.68359209 C73.05261683 1349.7240842 61.65150984 1349.73440725 50.24997155 1349.71605082 C44.07162906 1349.70693798 37.89401171 1349.71088716 31.71576786 1349.74957371 C26.06135474 1349.78467503 20.40820004 1349.78297671 14.75377508 1349.75177912 C12.70658455 1349.74700198 10.65930874 1349.75580349 8.61224906 1349.77943642 C-6.70668135 1349.94535765 -6.70668135 1349.94535765 -11.55919623 1347.04149795 C-13.56195312 1345.05549426 -15.07347665 1343.08118461 -16.67241955 1340.7690134 C-17.93275379 1339.60901971 -19.22181555 1338.47881837 -20.54741955 1337.3940134 C-26.44104869 1332.31766486 -31.7956872 1326.6893326 -37.25054455 1321.1518259 C-40.96459802 1317.40359403 -44.66525307 1313.70487703 -48.67241955 1310.2690134 C-54.5320891 1305.24475859 -59.83778763 1299.64659429 -65.25054455 1294.1518259 C-68.96459802 1290.40359403 -72.66525307 1286.70487703 -76.67241955 1283.2690134 C-82.5320891 1278.24475859 -87.83778763 1272.64659429 -93.25054455 1267.1518259 C-96.96459802 1263.40359403 -100.66525307 1259.70487703 -104.67241955 1256.2690134 C-110.5320891 1251.24475859 -115.83778763 1245.64659429 -121.25054455 1240.1518259 C-125.58631218 1235.77615857 -129.97366628 1231.57854934 -134.64898205 1227.56979465 C-139.53116771 1223.22483792 -144.02361457 1218.45230964 -148.6060133 1213.79635715 C-152.19148014 1210.17602353 -155.77183846 1206.61794287 -159.64116955 1203.3002634 C-165.50929315 1198.26292101 -170.82725317 1192.65728837 -176.25054455 1187.1518259 C-179.98524279 1183.38275927 -183.70944478 1179.66603033 -187.73491955 1176.2065134 C-188.62562318 1175.40173384 -188.62562318 1175.40173384 -189.53432083 1174.58069611 C-191.62296489 1172.7217289 -191.62296489 1172.7217289 -193.98977089 1171.32666206 C-197.64608119 1168.63665437 -200.16966243 1166.02602127 -201.18396401 1161.47255683 C-202.04109585 1154.09496744 -201.79797166 1146.65996693 -201.69414806 1139.24728489 C-201.69138973 1136.68303933 -201.69259473 1134.11878693 -201.69743538 1131.55454445 C-201.69925903 1125.39141454 -201.66078546 1119.22971622 -201.60292342 1113.06689546 C-201.53796435 1105.93375684 -201.53096231 1098.8010288 -201.52385998 1091.66757298 C-201.47666229 1072.84703252 -201.35101144 1054.02675499 -201.23491955 1035.2065134 C-201.04929455 993.1521384 -200.86366955 951.0977634 -200.67241955 907.7690134 C-116.52241955 907.7690134 -32.37241955 907.7690134 54.32758045 907.7690134 C54.98758045 905.4590134 55.64758045 903.1490134 56.32758045 900.7690134 C60.45757397 893.13268311 68.06980166 890.00509089 75.58539295 886.53073215 C81.35182779 884.17136719 81.35182779 884.17136719 85.32758045 879.7690134 C84.66758045 880.0990134 84.00758045 880.4290134 83.32758045 880.7690134 C70.79346481 882.71396238 57.91741251 883.78116665 47.01508045 876.5815134 C42.83355243 872.20549571 41.52995742 868.11658622 41.01508045 862.1440134 C41.33121313 858.72978047 42.19546376 855.98945691 43.32758045 852.7690134 C42.55736089 852.91850567 41.78714132 853.06799793 40.99358177 853.22202027 C4.17103688 859.99584858 -29.18311905 859.19039746 -60.93500328 837.64689839 C-81.71883574 823.08374435 -100.36825569 805.90303051 -118.45377588 788.1689747 C-121.25109119 785.4328832 -124.06631577 782.71629524 -126.88476467 780.00199366 C-188.04820493 720.8186686 -216.12435767 662.15726822 -217.72011042 575.31911648 C-217.79571725 570.53434631 -217.83530804 565.74960573 -217.85991955 560.9643259 C-217.86353662 560.28668931 -217.86715369 559.60905272 -217.87088037 558.91088168 C-218.02920521 524.77652306 -216.51692159 490.75337133 -214.3792963 456.69452879 C-213.02924156 435.1664407 -212.17514019 413.67016056 -211.73198986 392.10446262 C-211.71710157 391.38647612 -211.70221329 390.66848962 -211.68687384 389.92874595 C-211.55230803 383.42762223 -211.42124399 376.92643036 -211.29326481 370.42517377 C-210.77172909 344.18137587 -209.9173256 317.94635705 -208.98491955 291.7143259 C-208.93910984 290.40098516 -208.89330012 289.08764442 -208.84610224 287.73450547 C-208.27215723 271.39074434 -207.54530913 255.06646147 -206.55510616 238.74243259 C-206.28465713 234.22547806 -206.06706818 229.71126336 -205.9000845 225.18932819 C-204.4120361 186.39612933 -204.4120361 186.39612933 -190.03857172 172.40205525 C-185.47954327 168.19839376 -180.64019884 164.47822274 -175.67241955 160.7690134 C-171.4366715 157.21682367 -167.32739534 153.55904597 -163.45366955 149.6127634 C-162.74855236 148.89991184 -162.04343517 148.18706028 -161.3169508 147.45260715 C-160.60925549 146.73202122 -159.90156017 146.01143528 -159.17241955 145.2690134 C-155.12293491 141.14576766 -151.08883006 137.0688964 -146.70366955 133.3002634 C-142.12063294 129.35713948 -137.90901866 125.07790943 -133.67241955 120.7690134 C-128.81595609 115.82967514 -123.92220178 111.057502 -118.6685133 106.5424509 C-115.00446466 103.2871122 -111.60536911 99.76449393 -108.17241955 96.2690134 C-104.12293491 92.14576766 -100.08883006 88.0688964 -95.70366955 84.3002634 C-91.12063294 80.35713948 -86.90901866 76.07790943 -82.67241955 71.7690134 C-77.81595609 66.82967514 -72.92220178 62.057502 -67.6685133 57.5424509 C-64.00446466 54.2871122 -60.60536911 50.76449393 -57.17241955 47.2690134 C-53.12293491 43.14576766 -49.08883006 39.0688964 -44.70366955 35.3002634 C-40.12063294 31.35713948 -35.90901866 27.07790943 -31.67241955 22.7690134 C-26.82799888 17.84192344 -21.97742059 13.02617114 -16.6919508 8.56979465 C-14.72369877 6.90688477 -14.72369877 6.90688477 -13.46758945 5.30769149 C-9.32836213 0.49688258 -6.18632404 -0.09765619 0 0 Z " fill="#FDFCFB" transform="translate(200.67241954803467,-0.7690134048461914)"/>
<path d="M0 0 C1.94480538 -0.02046165 3.88955466 -0.04698991 5.83420408 -0.07900989 C11.14654446 -0.14876008 16.45553214 -0.13191154 21.76810288 -0.09995389 C27.50960203 -0.08056331 33.2503442 -0.1417592 38.99157715 -0.19213867 C50.22763606 -0.27739193 61.46250294 -0.28637519 72.69882019 -0.26651181 C81.83650701 -0.25127455 90.97383709 -0.26121542 100.11149216 -0.2889061 C101.41379135 -0.2927837 102.71609053 -0.2966613 104.05785333 -0.3006564 C106.7038213 -0.30856669 109.3497892 -0.31649992 111.99575703 -0.32445584 C129.75358576 -0.37523739 147.51126145 -0.39928777 165.26914406 -0.36793709 C165.96282551 -0.36671724 166.65650696 -0.36549739 167.37120906 -0.36424057 C173.00344089 -0.35417976 178.63567139 -0.34340235 184.26790176 -0.33256296 C206.22337305 -0.29095135 228.17700795 -0.33932056 250.13217163 -0.45968628 C274.83375066 -0.59492876 299.53416251 -0.66302664 324.23613393 -0.63300884 C337.30235188 -0.61839822 350.36696618 -0.63260175 363.43291092 -0.72436905 C374.55861249 -0.80165297 385.68166843 -0.80815325 396.80737264 -0.72506656 C402.47833771 -0.68460581 408.14451786 -0.67544121 413.81518555 -0.75437927 C451.32767352 -1.24101106 451.32767352 -1.24101106 462.35492837 8.80503953 C465.44582923 12.16432927 468.1520291 15.65675045 470.73794627 19.41515756 C473.51716589 23.13754138 476.95115212 25.90132729 480.53207397 28.81814575 C482.1038667 30.32915762 483.65928722 31.85763199 485.18832397 33.41189575 C485.98367554 34.21498169 486.7790271 35.01806763 487.59848022 35.8454895 C489.22087606 37.493927 490.84327189 39.1423645 492.46566772 40.790802 C496.68668808 45.05286956 500.97175788 49.12473134 505.52230835 53.03103638 C510.17549247 57.16870739 514.4575576 61.70822807 518.82113647 66.14627075 C522.28819785 69.64907502 525.76012 73.07578297 529.50082397 76.28689575 C535.13752028 81.13110604 540.25594535 86.49745648 545.46566772 91.790802 C549.68668808 96.05286956 553.97175788 100.12473134 558.52230835 104.03103638 C563.17549247 108.16870739 567.4575576 112.70822807 571.82113647 117.14627075 C575.28819785 120.64907502 578.76012 124.07578297 582.50082397 127.28689575 C588.13752028 132.13110604 593.25594535 137.49745648 598.46566772 142.790802 C602.74974884 147.11654355 607.08079612 151.29187741 611.72543335 155.23025513 C612.32162476 155.75425903 612.91781616 156.27826294 613.53207397 156.81814575 C614.21941494 157.33419498 614.90675591 157.85024422 615.61492538 158.3819313 C618.3562827 161.86550808 618.07365739 165.1379658 618.01309204 169.38546753 C618.01821859 170.69528906 618.01821859 170.69528906 618.02344871 172.03157163 C618.03004716 174.9630403 618.00801907 177.89359712 617.98617554 180.82498169 C617.98504748 182.92406696 617.98568009 185.02315381 617.98794556 187.12223816 C617.98909527 192.82650252 617.96554404 198.53043183 617.93764973 204.23461819 C617.91267911 210.19369759 617.9102975 216.15278431 617.9055481 222.11190796 C617.89310557 233.39891777 617.86026659 244.68577299 617.82015014 255.97271466 C617.77547222 268.82139244 617.75345539 281.67007752 617.7333684 294.51881361 C617.69153516 320.9520101 617.6211582 347.38506927 617.53207397 373.81814575 C585.01320506 374.04652727 552.49456825 374.2233732 519.97507979 374.32879905 C516.13136495 374.34130534 512.28765169 374.35424863 508.44393921 374.36746216 C507.67876125 374.37008526 506.91358329 374.37270837 506.12521812 374.37541096 C493.75358764 374.41886302 481.3824243 374.49767407 469.01107047 374.58967371 C456.30630743 374.68336112 443.60178816 374.73876957 430.89669389 374.7590307 C423.06370674 374.77271707 415.23204012 374.815857 407.39945974 374.89731042 C401.3819224 374.95668113 395.36550831 374.96265526 389.34764481 374.94922256 C386.88742277 374.95196449 384.42714886 374.9717348 381.96722603 375.0102005 C359.47850318 375.34448567 359.47850318 375.34448567 350.01219463 366.31134605 C349.19375482 365.48858995 348.375315 364.66583385 347.53207397 363.81814575 C345.79671037 362.59250017 344.03401673 361.40330746 342.23129272 360.27908325 C341.40782349 359.76547241 340.58435425 359.25186157 339.7359314 358.72268677 C338.90553345 358.21793823 338.0751355 357.7131897 337.21957397 357.19314575 C336.32150024 356.64392456 335.42342651 356.09470337 334.49813843 355.52883911 C321.65473603 347.76892683 308.63396419 341.87182744 294.53207397 336.81814575 C288.75968414 334.67966972 283.39572425 332.65786965 278.53207397 328.81814575 C278.53207397 328.15814575 278.53207397 327.49814575 278.53207397 326.81814575 C281.44053163 325.98550414 284.02997254 325.68974577 287.05160522 325.68533325 C288.33841187 325.68339966 288.33841187 325.68339966 289.6512146 325.681427 C290.98442749 325.68722778 290.98442749 325.68722778 292.34457397 325.69314575 C293.22178101 325.68927856 294.09898804 325.68541138 295.0027771 325.681427 C299.95728917 325.68883839 304.62398418 326.0908157 309.53207397 326.81814575 C312.6785217 327.02858702 315.81685217 327.09308354 318.96957397 327.13064575 C320.18097046 327.17415161 320.18097046 327.17415161 321.4168396 327.21853638 C327.99641999 327.28746026 333.17303863 325.7449033 338.19393921 321.37014771 C341.15476826 317.93610459 340.91185162 313.7020989 340.89926147 309.39627075 C340.30489652 305.22306999 338.19650458 303.01546248 335.53207397 299.81814575 C335.53207397 299.15814575 335.53207397 298.49814575 335.53207397 297.81814575 C334.95328491 297.55002075 334.37449585 297.28189575 333.77816772 297.00564575 C331.48905044 295.7953994 329.63988171 294.40259271 327.59457397 292.81814575 C315.80908122 284.46936517 301.6278638 279.14110489 288.3934021 273.50588989 C283.03469685 271.18634685 277.93549437 268.97005702 274.65707397 263.94314575 C273.473403 260.65517081 273.44536527 258.27685979 273.53207397 254.81814575 C274.62878418 254.79627197 274.62878418 254.79627197 275.74765015 254.7739563 C279.07214769 254.69931665 282.39565865 254.60270774 285.71957397 254.50564575 C286.87006226 254.48308716 288.02055054 254.46052856 289.2059021 254.43728638 C290.31771851 254.40183716 291.42953491 254.36638794 292.57504272 254.3298645 C294.10681152 254.29058838 294.10681152 254.29058838 295.66952515 254.2505188 C298.9372945 253.75693931 300.85954441 252.73063873 303.53207397 250.81814575 C305.89325489 247.55746734 306.11574633 244.75793413 305.53207397 240.81814575 C303.83155463 237.27051057 301.76207317 234.05423761 299.53207397 230.81814575 C298.91719116 229.92095825 298.91719116 229.92095825 298.28988647 229.00564575 C290.76957716 219.28996663 278.94099981 212.04225855 268.53207397 205.81814575 C270.97152 202.32113643 272.56091527 201.33096812 276.53207397 199.81814575 C280.51131265 197.07028219 280.51131265 197.07028219 282.53207397 192.81814575 C283.33560431 187.75285327 282.93807894 183.75780215 280.28207397 179.31814575 C276.06950052 173.60179312 270.29149967 169.84602798 264.53207397 165.81814575 C258.28006809 161.29791615 251.70720227 156.42266156 247.53207397 149.81814575 C247.52035522 147.79470825 247.52035522 147.79470825 248.53207397 145.81814575 C250.67660522 143.853302 250.67660522 143.853302 253.34457397 141.88064575 C258.06412084 138.37409911 262.47343119 134.4794134 264.53207397 128.81814575 C264.88360812 125.51372478 264.68958539 123.26967849 263.59457397 120.13064575 C259.02060767 115.00225928 251.19936965 114.4293617 244.69613647 113.3454895 C242.53207397 112.81814575 242.53207397 112.81814575 239.53207397 110.81814575 C241.1229945 106.6817524 244.13682315 103.58601327 247.53207397 100.81814575 C248.19207397 100.81814575 248.85207397 100.81814575 249.53207397 100.81814575 C252.01518744 96.01745972 253.09808413 92.28957727 252.53207397 86.81814575 C250.40880437 83.52341706 248.75465002 82.08400178 244.89144897 81.243927 C243.92723022 81.10341919 242.96301147 80.96291138 241.96957397 80.81814575 C236.8126404 80.06364138 236.8126404 80.06364138 234.03207397 77.63064575 C230.9936846 71.93366567 229.07860005 66.58935686 227.70785522 60.275177 C227.48116402 59.23885384 227.48116402 59.23885384 227.24989319 58.18159485 C226.93491587 56.73443024 226.62333223 55.28652311 226.31503296 53.83792114 C225.84322184 51.62430189 225.35938619 49.41356089 224.87387085 47.20291138 C222.53207397 36.38902946 222.53207397 36.38902946 222.53207397 31.81814575 C220.61496394 31.8241744 218.6979603 31.87439385 216.78207397 31.94314575 C215.71473022 31.96634888 214.64738647 31.989552 213.54769897 32.01345825 C210.40196602 32.58235212 210.40196602 32.58235212 208.35238647 35.00564575 C205.30158036 40.34772777 204.45269201 46.75426797 203.15707397 52.69314575 C196.31360402 82.79148012 196.31360402 82.79148012 190.53207397 86.81814575 C188.04379272 87.37283325 188.04379272 87.37283325 185.21957397 87.69314575 C179.7965015 88.59339019 176.92697151 89.38591842 173.53207397 93.81814575 C172.76046313 97.98643527 173.59862594 101.32237962 175.82894897 104.89627075 C180.32152217 110.330145 185.93397645 114.58296533 191.53207397 118.81814575 C184.03444906 128.00273628 175.38996345 134.47337994 165.5105896 140.9236145 C159.56621486 144.886531 153.76170216 149.10209877 150.03207397 155.31814575 C149.33452132 158.80590902 149.65615139 161.3770213 150.53207397 164.81814575 C153.37641279 168.86585868 156.89900279 169.77814787 161.53207397 170.81814575 C164.50211407 171.29336558 167.47852549 171.63045688 170.46957397 171.94314575 C171.6384314 172.07269653 171.6384314 172.07269653 172.8309021 172.2048645 C174.73070768 172.41465898 176.63131571 172.61716569 178.53207397 172.81814575 C175.72631248 174.68865341 173.07325928 175.79466034 169.93490601 176.97366333 C160.3459423 180.628967 152.46227844 185.33995056 144.53207397 191.81814575 C144.01354858 192.24031372 143.49502319 192.66248169 142.96078491 193.09744263 C135.65123274 199.15219612 127.99427437 205.73890974 126.53207397 215.56814575 C126.37726198 219.12262921 126.48606548 221.79361146 128.53207397 224.81814575 C134.2466652 228.81739593 140.23133047 228.15897555 146.90707397 228.00564575 C148.02469116 227.9921106 149.14230835 227.97857544 150.29379272 227.96463013 C153.04038608 227.92941739 155.78597686 227.88016671 158.53207397 227.81814575 C159.05890721 231.43071649 159.19088558 233.64234711 157.3843689 236.8664856 C152.6090706 242.86597973 146.7957854 245.5366971 139.84457397 248.44314575 C137.69053869 249.39017711 135.53688772 250.33808309 133.38363647 251.28689575 C132.3643103 251.72775513 131.34498413 252.1686145 130.29476929 252.62283325 C117.15145736 258.30944117 104.20224584 265.47780202 97.53207397 278.81814575 C97.40837283 283.39508822 97.65368925 286.81427749 100.71957397 290.31814575 C107.50344587 293.93621076 115.74808253 293.10662371 123.25985718 293.16824341 C124.71705245 293.18466523 126.17417191 293.21176949 127.63095093 293.25027466 C137.38095587 293.50548134 145.24962483 292.45934853 154.38070679 288.93533325 C158.41455596 287.50529809 161.3132646 287.32181524 165.53207397 287.81814575 C166.19207397 288.14814575 166.85207397 288.47814575 167.53207397 288.81814575 C166.9389808 295.05598502 164.62860368 297.46165957 160.19760132 301.64138794 C155.92079661 305.13396815 151.2941334 307.53992994 146.34457397 309.94314575 C145.40549194 310.41623169 144.46640991 310.88931763 143.49887085 311.3767395 C139.38694309 313.44244729 135.25436803 315.46508738 131.12020874 317.48587036 C123.17081523 321.40591606 115.45877742 325.59484322 107.84457397 330.13064575 C107.27946106 330.46630554 106.71434814 330.80196533 106.1321106 331.14779663 C84.11448447 344.25525672 62.25072943 358.22194935 43.53207397 375.81814575 C42.87336304 376.41240356 42.2146521 377.00666138 41.53598022 377.618927 C36.44487369 382.38157505 32.15541049 387.54977474 31.12191772 394.6267395 C30.95419253 400.0012382 31.28732813 404.34263424 34.53207397 408.81814575 C38.15823277 412.11465375 41.85015506 412.38882113 46.57211304 412.23587036 C49.88178309 411.76879304 52.27547849 410.68879681 55.30160522 409.2829895 C62.8719028 406.27900487 69.43514965 406.43007208 77.41543579 406.78536987 C89.6416783 407.29092375 101.19802423 407.02088833 113.15707397 404.19314575 C114.17309692 403.95732788 115.18911987 403.72151001 116.2359314 403.47854614 C126.3531247 400.81819057 134.40003701 395.2238285 142.53207397 388.81814575 C143.9510129 391.65602361 143.76810744 393.65604659 143.53207397 396.81814575 C139.99101988 406.42795172 134.64585896 413.53862742 127.53207397 420.81814575 C126.39978798 422.16622616 125.27436751 423.52011368 124.15707397 424.88064575 C113.26341072 437.22844053 98.26326912 445.27959538 84.23910522 453.5329895 C61.34603931 466.69287768 61.34603931 466.69287768 43.53207397 485.81814575 C43.00355835 486.57224731 42.47504272 487.32634888 41.93051147 488.103302 C28.59371357 508.5872557 22.35045588 540.65507257 24.53207397 564.81814575 C25.55231354 569.3113926 26.56581028 572.17396995 30.53207397 574.81814575 C36.05910449 575.26387402 38.90628182 575.08341081 43.53207397 571.81814575 C44.19207397 571.81814575 44.85207397 571.81814575 45.53207397 571.81814575 C45.53207397 571.15814575 45.53207397 570.49814575 45.53207397 569.81814575 C46.19207397 569.81814575 46.85207397 569.81814575 47.53207397 569.81814575 C47.53207397 569.15814575 47.53207397 568.49814575 47.53207397 567.81814575 C48.19207397 567.81814575 48.85207397 567.81814575 49.53207397 567.81814575 C49.90332397 566.98283325 49.90332397 566.98283325 50.28207397 566.13064575 C55.28432147 556.87648788 64.12884279 551.91790777 73.79379272 548.54470825 C79.40465673 547.05594833 84.93103679 546.72337811 90.70004272 546.57937622 C107.76962207 546.1034703 123.85048892 543.81501564 137.75863647 533.103302 C139.53207397 531.81814575 139.53207397 531.81814575 141.53207397 531.81814575 C140.02056629 541.26082297 134.67999294 548.67315801 127.45394897 554.712677 C120.11611081 560.00023686 111.93640349 563.7036903 103.77035522 567.5173645 C102.76126099 567.9912561 101.75216675 568.46514771 100.7124939 568.95339966 C98.72743419 569.88065967 96.73693388 570.79639165 94.74032593 571.69851685 C82.84939466 577.21604047 69.90304705 586.44155563 64.53207397 598.81814575 C63.85690744 602.95354075 64.32472463 604.45182857 66.40707397 608.13064575 C68.25248668 610.85511246 68.25248668 610.85511246 70.53207397 611.81814575 C72.8204975 612.02462006 75.1132379 612.18461683 77.40707397 612.31814575 C84.12609452 612.71090687 84.12609452 612.71090687 86.45175171 613.32522583 C90.46444247 614.27600891 94.61516843 614.00279349 98.71957397 614.00564575 C99.62771851 614.01789185 100.53586304 614.03013794 101.4715271 614.04275513 C110.43875318 614.06201188 118.41160913 612.11080541 126.84457397 609.19314575 C127.93826294 608.81488647 127.93826294 608.81488647 129.05404663 608.4289856 C135.12489898 606.2072269 140.01318128 603.22356177 145.21176147 599.35720825 C147.53207397 597.81814575 147.53207397 597.81814575 150.53207397 597.81814575 C151.32457374 607.64514288 148.03598877 614.09857027 141.84457397 621.63064575 C126.46723578 637.84398421 104.5623239 649.16887405 85.03207397 659.50564575 C66.55301176 669.34024058 47.21459693 683.09237325 39.59457397 703.50564575 C38.36653526 707.82309005 37.93557353 711.34439245 38.53207397 715.81814575 C40.42856949 718.96473241 40.42856949 718.96473241 43.53207397 720.81814575 C48.72972903 721.26365904 52.22553503 720.36839067 56.96957397 718.31814575 C69.46680774 713.70074675 80.99890314 715.65761779 93.70687866 718.31497192 C101.6574192 719.95387343 109.4214372 720.58870765 117.53207397 720.81814575 C118.18162115 736.81625201 118.18162115 736.81625201 113.22470093 742.2517395 C108.03043881 746.99233675 102.2788029 749.3474063 95.78207397 751.88064575 C93.72406431 752.70307007 91.66676793 753.5272816 89.61019897 754.353302 C88.70688843 754.70787476 87.80357788 755.06244751 86.87289429 755.42776489 C83.70798433 756.68992012 83.70798433 756.68992012 81.45892334 757.89401245 C47.15733582 775.13000459 -0.27824437 775.48362364 -36.53056898 764.35414857 C-66.88951546 754.22341576 -92.52898837 729.55071502 -115.14592636 707.86260635 C-117.50852501 705.59857524 -119.88318813 703.34767211 -122.25806522 701.09653234 C-175.9834165 649.84261065 -196.75828628 599.87056655 -198.57035962 525.84753642 C-199.29873421 487.36082289 -197.94122328 448.97148811 -195.70043404 410.55580039 C-194.53808551 390.61563509 -193.7710763 370.70404316 -193.34487915 350.73757935 C-193.33057991 350.07310477 -193.31628067 349.40863019 -193.30154812 348.72402001 C-193.17233126 342.70859493 -193.04658808 336.69310148 -192.92389862 330.67753977 C-192.08882234 290.06949048 -190.96320894 249.43814265 -188.74390793 208.88005829 C-188.51614118 204.68791965 -188.32004312 200.49631595 -188.15362167 196.30130386 C-186.73684257 161.47567621 -186.73684257 161.47567621 -179.07546735 152.83882511 C-176.07819718 150.08367109 -172.94154923 147.91813364 -169.46792603 145.81814575 C-165.84852893 143.02720189 -162.66059976 140.09005372 -159.46792603 136.81814575 C-156.86810787 134.18882509 -154.2614414 131.56632209 -151.65542603 128.94314575 C-150.98189087 128.26123169 -150.30835571 127.57931763 -149.6144104 126.8767395 C-146.3309269 123.57754555 -143.01633716 120.37824299 -139.48745728 117.34158325 C-135.08901701 113.55088244 -131.03459484 109.45888868 -126.96792603 105.31814575 C-122.92231362 101.19884277 -118.8926652 97.12522874 -114.51089478 93.3611145 C-109.85690835 89.35742679 -105.58297672 85.00532638 -101.28042603 80.63064575 C-96.83110415 76.1078421 -92.47992232 71.72213596 -87.46792603 67.81814575 C-85.77728231 66.17580614 -84.11404127 64.50511349 -82.46792603 62.81814575 C-79.86810787 60.18882509 -77.2614414 57.56632209 -74.65542603 54.94314575 C-73.98189087 54.26123169 -73.30835571 53.57931763 -72.6144104 52.8767395 C-69.3309269 49.57754555 -66.01633716 46.37824299 -62.48745728 43.34158325 C-58.08901701 39.55088244 -54.03459484 35.45888868 -49.96792603 31.31814575 C-45.43144242 26.69903038 -40.90053371 22.20957151 -35.90347612 18.08802116 C-33.94322549 16.26111368 -32.34869032 14.50674328 -30.66565096 12.44419873 C-21.33163408 1.39950624 -14.06726279 -0.22398708 0 0 Z " fill="#8D181B" transform="translate(230.46792602539063,44.181854248046875)"/>
<path d="M0 0 C0.33 0 0.66 0 1 0 C1.15033691 0.72477539 1.30067383 1.44955078 1.45556641 2.19628906 C4.95322975 23.10837179 4.95322975 23.10837179 15.75 40.6875 C20.12825479 42.45564136 24.30960381 42.81460885 29 43 C27.51163341 46.61576014 25.4691203 48.56091975 22.5 51.0625 C17.840573 54.74785774 17.840573 54.74785774 15.734375 60.0859375 C15.69450195 66.32409567 15.69450195 66.32409567 18 72 C20.0867944 73.27325863 20.0867944 73.27325863 23 74 C23.76054687 74.24621094 24.52109375 74.49242187 25.3046875 74.74609375 C30.20130596 76.30140265 34.89327164 77.44492083 40 78 C39.55567007 82.37261044 36.94670826 84.16388548 33.75 86.9375 C26.79593143 92.13023585 26.79593143 92.13023585 22.51953125 99.140625 C23.9995733 109.79692778 30.78439297 116.60347817 39 123 C41.37821245 124.71286684 43.78288037 126.38699258 46.1875 128.0625 C51.21850423 131.57905222 55.58881685 134.83154068 59 140 C58.85546875 142.04296875 58.85546875 142.04296875 58 144 C56.3984375 145.30859375 56.3984375 145.30859375 54.375 146.4375 C47.19266436 150.22018072 47.19266436 150.22018072 42 156 C41.24897465 159.37183542 41.24897465 159.37183542 42 163 C44.34352468 165.22219779 47.13934328 166.53933841 50 168 C60.74343942 173.85508328 73.32601877 182.45510966 80 193 C80.36385258 194.66027112 80.70053744 196.3269157 81 198 C80.23333008 197.97905273 79.46666016 197.95810547 78.67675781 197.93652344 C75.2013054 197.85334842 71.72606237 197.80133425 68.25 197.75 C66.44015625 197.69972656 66.44015625 197.69972656 64.59375 197.6484375 C63.43359375 197.63554687 62.2734375 197.62265625 61.078125 197.609375 C60.00981445 197.58842773 58.94150391 197.56748047 57.84082031 197.54589844 C54.29539151 198.11263078 53.1771646 199.20114939 51 202 C48.9690724 208.09278281 48.88644247 215.46251391 51.5625 221.375 C58.18328842 232.51730246 72.11011979 236.53998268 83.375 241.375 C110.44032961 253.16049441 110.44032961 253.16049441 117 263 C117.125 265.6875 117.125 265.6875 117 268 C112.35109407 270.71066976 108.98592591 271.38434746 103.625 271.3125 C102.37976563 271.30863281 101.13453125 271.30476563 99.8515625 271.30078125 C96.97663433 271.0762686 94.80712316 270.75305223 92.08984375 270.0078125 C79.50292599 266.61538789 65.66344884 268.45397966 54 274 C52.47153339 277.05693322 52.76757555 279.62984547 53 283 C54.39957197 285.28484306 54.39957197 285.28484306 56 287 C56 287.66 56 288.32 56 289 C68.17058214 295.1847403 68.17058214 295.1847403 80.9375 299.9375 C88.72240821 302.39314219 95.81951313 306.16767768 103 310 C103.60102539 310.31984863 104.20205078 310.63969727 104.82128906 310.96923828 C123.6292936 321.08733564 140.09556918 334.01334856 155.57080078 348.65429688 C156.77392874 349.78713618 157.99265901 350.90337222 159.21484375 352.015625 C163.61222338 356.15221934 167.29914232 360.76148283 170.9375 365.5625 C171.42299316 366.18809814 171.90848633 366.81369629 172.40869141 367.45825195 C175.44060875 371.57454216 176.81148437 374.74106393 177 380 C175.875 382 175.875 382 174 383 C170.69758259 382.50838582 167.63609513 381.57432624 164.46484375 380.55859375 C154.85588724 377.90756994 144.74553742 377.63572125 134.84887695 376.84594727 C124.87589009 376.03659512 115.05618224 375.01274766 105.234375 373.05859375 C104.04558495 372.82234032 104.04558495 372.82234032 102.83277893 372.58131409 C93.36709308 370.5873285 83.59929959 367.77525666 75.21875 362.84765625 C71.68721486 360.82045222 69.98774511 360.20245098 66 361 C62.66298009 363.81012203 62.05304916 365.46066687 61.625 369.8125 C62.4524642 383.67252537 70.13410345 393.85494425 79 404 C79.74636719 404.86882812 80.49273438 405.73765625 81.26171875 406.6328125 C96.66019136 424.20803255 117.24820707 435.93826718 137.32421875 447.51171875 C153.88042806 457.07108028 169.08770113 470.57928059 175.0625 489.25 C175.43592529 490.39758789 175.43592529 490.39758789 175.81689453 491.56835938 C177.66887735 497.47655473 179.12487124 503.43759068 180.375 509.5 C180.62648804 510.69931152 180.62648804 510.69931152 180.88305664 511.92285156 C181.95943249 517.52812955 182.70209346 523.30177142 182 529 C180 531 180 531 176.5 531.375 C170.41426533 531.21022379 165.1308798 528.6498217 159.81689453 525.84960938 C153.86994284 522.74604031 148.0783358 520.65433847 141.625 518.875 C132.39855215 516.2032428 123.48420016 512.99311983 114.5625 509.4375 C113.37172852 508.9638501 112.18095703 508.4902002 110.95410156 508.00219727 C106.75200347 506.32293864 102.55322534 504.63626098 98.36572266 502.92089844 C85.97299282 497.50238266 85.97299282 497.50238266 72.9453125 498.7734375 C69.51947774 500.55032275 66.65579835 502.49360349 65 506 C64.50591974 512.32152005 65.5356234 516.32920779 68.5 521.875 C68.86528809 522.57117432 69.23057617 523.26734863 69.60693359 523.98461914 C79.2120725 541.79647134 94.75338489 549.28687262 112.46826172 557.33129883 C126.81894549 563.88269794 144.33017545 573.29608378 153 587 C152.6875 589.75 152.6875 589.75 152 592 C145.34228188 591.10376871 145.34228188 591.10376871 143.2734375 590.4765625 C139.82684028 589.75407992 136.3810162 589.80943998 132.875 589.8125 C131.72668701 589.8115332 131.72668701 589.8115332 130.55517578 589.81054688 C126.53252787 589.84803819 122.80620797 590.06368189 118.875 591 C107.70520186 593.62148324 97.47582001 592.30280248 87 588 C85.67641174 587.47626837 84.35215477 586.95422457 83.02734375 586.43359375 C80.39571292 585.39456192 77.77138346 584.33987895 75.15234375 583.26953125 C70.19768101 581.27415902 66.30530934 580.41420543 61 581 C58.85219923 581.89757556 58.85219923 581.89757556 58 584 C56.67344454 591.07496244 60.2876428 596.17669459 64 602 C64.49886719 602.804375 64.99773437 603.60875 65.51171875 604.4375 C75.91961058 619.18807863 94.82987626 628.80783806 110 638 C110.74556152 638.45391113 111.49112305 638.90782227 112.25927734 639.37548828 C119.49661906 643.76498615 126.72522687 647.93322787 134.375 651.5625 C141.10033002 654.84803967 146.48289863 658.97565409 152 664 C152.69480469 664.60199219 153.38960937 665.20398438 154.10546875 665.82421875 C167.00752117 677.69616718 179.78547537 699.43713791 181.16796875 717.15234375 C181.18397643 718.76911964 181.10522354 720.38657243 181 722 C175.72413045 721.29781592 172.40114072 718.77298245 168.109375 715.7890625 C158.93846141 710.51233081 150.14257828 710.56658474 139.76953125 710.56054688 C129.76889627 710.39014828 121.28565355 708.33890601 113.25 702.125 C112.3425 701.43664062 111.435 700.74828125 110.5 700.0390625 C108.32602499 698.26591413 106.29047618 696.42205569 104.25 694.5 C101.52983959 692.06305241 101.01886564 692.00179673 97.0625 691.625 C95.5465625 691.810625 95.5465625 691.810625 94 692 C90.74454139 697.29877837 90.45548525 701.70839103 90.5 707.75 C90.50572021 708.64090332 90.51144043 709.53180664 90.51733398 710.44970703 C90.72321538 718.023647 91.97026129 723.87684047 97.40063477 729.43310547 C102.03928315 733.74279575 106.97695495 736.04831866 112.8125 738.375 C114.69436709 739.15539045 116.57587188 739.93665509 118.45703125 740.71875 C119.39240723 741.10289062 120.3277832 741.48703125 121.29150391 741.8828125 C173.15580915 763.27555279 173.15580915 763.27555279 183.30859375 787.06640625 C186 794.20934256 186 794.20934256 186 797 C162.56558984 797.52205369 143.18847411 793.74782762 122.35546875 782.734375 C116.11540604 779.50901081 110.87049667 777.7688966 103.8828125 779.53515625 C98.93680572 781.2429284 94.89003351 783.47995532 91.6875 787.75 C89.81434903 793.88031228 90.66789721 797.9346437 93.5625 803.5 C102.69651521 818.85022 117.79683354 828.7053837 134.92773438 833.25488281 C141.21125167 834.7788255 147.58339542 835.88512189 153.94726562 837.01757812 C161.3910614 838.42611021 167.8574249 840.01455366 173.5 845.375 C175.42027914 848.73548849 175.66335073 850.16730691 175 854 C172.40746616 860.32004794 168.34743848 865.15061904 163.671875 870.0546875 C160.53635888 873.70302168 160.59403123 877.63398992 160.66796875 882.23828125 C161.34532585 887.87229858 163.57751649 892.79726662 167.80859375 896.64453125 C170.1411554 898.24513594 172.52500141 899.62848179 175 901 C185.15697132 906.71053392 193.79186278 912.69005643 202 921 C202.61488281 921.60457031 203.22976563 922.20914063 203.86328125 922.83203125 C218.14919783 938.00389614 228.02797236 971.60843396 228.1875 992.1875 C228.20167969 993.02667969 228.21585938 993.86585938 228.23046875 994.73046875 C228 997 228 997 226 1000 C219.99297411 1000.63931466 216.59501949 999.78954964 211.3125 996.6875 C210.66023438 996.30722656 210.00796875 995.92695312 209.3359375 995.53515625 C201.24030822 990.71529853 193.4319854 985.41501093 185.57003784 980.22625732 C173.11904341 972.01285184 160.83988723 964.48744885 147.125 958.5625 C145.98297119 958.06617065 145.98297119 958.06617065 144.81787109 957.55981445 C135.43734063 953.67452631 126.53038784 952.71309553 116.4375 952.91015625 C114.23698132 952.93057162 112.03646039 952.95074662 109.8359375 952.97070312 C106.4129842 953.0141653 102.99018934 953.06265421 99.56738281 953.11645508 C96.23242772 953.16502006 92.89768241 953.19469073 89.5625 953.22265625 C88.55179443 953.24441422 87.54108887 953.26617218 86.49975586 953.28858948 C77.53483818 953.35047278 69.74662433 951.66247625 62.25 946.5625 C61.33734375 945.95277344 60.4246875 945.34304688 59.484375 944.71484375 C58.66453125 944.14894531 57.8446875 943.58304688 57 943 C51.55624044 939.29337509 47.8206772 937.40169498 41 938 C38.63502561 939.86708505 37.33969285 941.32061431 36 944 C35.90429688 945.84821751 35.87369397 947.69993512 35.87301636 949.55062866 C35.86878662 951.32095459 35.86878662 951.32095459 35.86447144 953.12704468 C35.86649567 954.42880646 35.8685199 955.73056824 35.87060547 957.07177734 C35.86925089 958.45159959 35.86747064 959.83142148 35.86529541 961.21124268 C35.86072357 964.96801747 35.86251074 968.72476491 35.8656745 972.4815402 C35.86820444 976.41840915 35.86585831 980.35527574 35.86428833 984.29214478 C35.86246636 990.9149823 35.86487144 997.5378087 35.86962891 1004.16064453 C35.87504914 1011.79374097 35.87332535 1019.4268106 35.8678025 1027.05990636 C35.86324527 1033.62313959 35.86263422 1040.1863648 35.86524117 1046.7495991 C35.86679253 1050.66458678 35.86702967 1054.57956194 35.86370468 1058.4945488 C35.86078877 1062.18647494 35.86286912 1065.87836709 35.86859894 1069.57028961 C35.87052621 1071.55274917 35.86760284 1073.53521165 35.86447144 1075.51766968 C35.89066298 1086.74186694 36.37797202 1097.44275485 39.5625 1108.25 C39.82498535 1109.14823486 40.0874707 1110.04646973 40.35791016 1110.97192383 C44.26737505 1123.75426304 49.91357224 1135.0970099 59 1145 C59.99580078 1146.13308594 59.99580078 1146.13308594 61.01171875 1147.2890625 C67.59766117 1154.3741244 75.52415722 1159.11449433 83.73828125 1164.04296875 C96.7967716 1171.87806296 108.71159139 1180.69482666 118 1192.9375 C124.88228356 1201.06356975 136.53503011 1206.4416705 146 1211 C146 1211.33 146 1211.66 146 1212 C50.96 1212 -44.08 1212 -142 1212 C-137 1208 -137 1208 -134.67578125 1206.2109375 C-119.6308128 1194.52311077 -109.68682189 1180.59127551 -99.72998047 1164.56591797 C-94.27678652 1155.8090184 -88.9770095 1147.80217456 -81.57666016 1140.55029297 C-79.70866676 1138.71353885 -77.87658487 1136.84371977 -76.04296875 1134.97265625 C-68.50868654 1127.32719256 -60.97131333 1119.79229648 -52.4375 1113.25 C-37.33085917 1100.10481367 -34.92567095 1076.48948781 -33.47393799 1057.70426941 C-32.92018573 1049.72470808 -32.8444561 1041.76465989 -32.83886719 1033.77075195 C-32.83422502 1032.1972187 -32.82919855 1030.62368655 -32.82382202 1029.05015564 C-32.81085078 1024.82364568 -32.80428617 1020.59715147 -32.79981136 1016.37062478 C-32.79686229 1013.72688545 -32.79275473 1011.08315028 -32.78830719 1008.43941307 C-32.77468727 1000.15650624 -32.76498768 991.8736091 -32.7611053 983.59069186 C-32.75660491 974.04544482 -32.73894297 964.50033956 -32.7101047 954.95513564 C-32.68852722 947.55613865 -32.67840352 940.15718175 -32.67706418 932.75815362 C-32.67601551 928.34558795 -32.67009153 923.9331566 -32.65224457 919.52062416 C-32.63582676 915.38282648 -32.63357742 911.24526522 -32.64238358 907.10744667 C-32.6431567 905.58804696 -32.63877509 904.0686348 -32.62892532 902.54926682 C-32.61629 900.4794841 -32.62203487 898.4105503 -32.63250732 896.34077454 C-32.63104076 895.18182836 -32.6295742 894.02288218 -32.6280632 892.82881641 C-32.78227848 890.01778866 -32.78227848 890.01778866 -34.27687454 888.11932659 C-36.90827325 886.40999398 -39.33726089 886.65855352 -42.34765625 887.1171875 C-50.4267034 889.80623707 -56.71057896 896.58964216 -62.4375 902.625 C-76.1104088 916.61087953 -94.0315931 919.15672805 -112.59887695 920.55151367 C-128.21306962 921.77837543 -141.88710983 923.85751791 -156 931 C-156.92087402 931.44408203 -157.84174805 931.88816406 -158.79052734 932.34570312 C-176.98887227 941.13507151 -198.42321246 951.95670538 -211.375 968 C-214 971 -214 971 -216.875 971.9375 C-217.926875 971.9684375 -217.926875 971.9684375 -219 972 C-224.26744596 965.88296598 -224.53776009 960.87280769 -224 953 C-223.42069154 949.71210562 -222.53588143 946.56625598 -221.5625 943.375 C-221.16804687 942.04505005 -221.16804687 942.04505005 -220.765625 940.68823242 C-218.57146336 933.48269075 -216.09622221 926.38210275 -213.5 919.3125 C-213.14494385 918.33394043 -212.7898877 917.35538086 -212.42407227 916.34716797 C-203.89019277 893.76372642 -187.50055347 881.99592848 -166.56860352 871.81201172 C-160.46105267 868.81136182 -155.0672779 865.84250712 -151 860.25 C-149.00755032 853.77453854 -148.93866002 848.22316451 -152.125 842.125 C-155.56460625 836.84482963 -160.26456886 833.06939749 -165.23681641 829.28564453 C-168.31877177 826.86238972 -169.79558191 825.61931111 -171.0546875 821.8046875 C-171 819 -171 819 -168.8125 816.375 C-161.22831095 811.00931523 -152.16916313 809.79578461 -143.1875 808.625 C-125.77580613 806.29758158 -107.20746129 798.65783405 -96.0625 784.546875 C-89.48634175 775.60018765 -89.48634175 775.60018765 -87.6484375 764.95703125 C-88.44754052 760.50869113 -90.9465038 757.76378474 -94.5 755.1875 C-100.95884227 752.11954992 -108.00214115 752.02420295 -115 753 C-119.68674543 754.7413394 -123.9060971 757.46278824 -128.19921875 759.99121094 C-144.18633101 768.94711493 -164.94550003 771.5952033 -183 771 C-181.64651141 757.97679885 -174.00674091 746.24927414 -164 738 C-147.48027367 725.88763922 -126.95507187 717.83785837 -107.98022461 710.5234375 C-100.18168922 707.41869353 -93.33964267 703.54394501 -89.77734375 695.59375 C-87.26594908 687.21402105 -85.44591786 675.62264931 -87 667 C-88.22934311 664.71983329 -88.22934311 664.71983329 -90 663 C-93.0842309 662.58297878 -93.0842309 662.58297878 -96 663 C-96.33 663.33 -96.66 663.66 -97 664 C-105.86288438 664.91169637 -114.24586642 663.57111211 -122.9375 662 C-137.4849328 659.39571854 -151.52938515 657.77186521 -165 665 C-165.66 665 -166.32 665 -167 665 C-164.63398384 650.1658762 -151.94713551 638.50450368 -140.40625 629.9375 C-134.00534786 625.47994576 -127.00051967 622.02231588 -120.10400391 618.4074707 C-103.65507092 609.74945548 -88.16167118 599.69472849 -73.54418945 588.2109375 C-72.13975325 587.10959307 -70.71539661 586.03377094 -69.2890625 584.9609375 C-62.28387611 578.95990752 -56.43524907 569.16663794 -55 560 C-54.86191188 558.00303327 -54.78063522 556.00150092 -54.75 554 C-54.72421875 552.989375 -54.6984375 551.97875 -54.671875 550.9375 C-55.04908509 547.56057158 -55.99896265 545.71985659 -58 543 C-61.60402457 541.19798771 -65.1348526 541.30639902 -69 542 C-73.20979629 544.00834318 -77.06844922 546.49957691 -81 549 C-91.41566515 554.86824613 -101.87439418 558.19710717 -113.8125 558.1875 C-114.64112549 558.18814453 -115.46975098 558.18878906 -116.32348633 558.18945312 C-124.31652173 558.12235524 -132.11001377 557.21886684 -140 556 C-139.2976657 549.64845499 -132.84754884 544.70914808 -128.27880859 540.74462891 C-120.68423915 534.93031637 -111.59644847 531.09042979 -103 527 C-85.95842673 518.79657707 -71.66942639 511.00142144 -64.69140625 492.2890625 C-63.03581689 486.80784574 -61.7577867 481.02789491 -64 475.5625 C-66.47345765 473.63011121 -68.44351887 473.26499355 -71.5625 473.4140625 C-76.90189972 474.69757205 -81.41712032 478.08417312 -86 481 C-96.91340362 487.55151778 -106.84092787 489.96170344 -119.5 490.4375 C-139.83191166 491.3778324 -155.5094449 494.59734489 -169.75195312 510.08203125 C-170.81957267 511.26142324 -171.87847699 512.44877378 -172.92773438 513.64453125 C-176.69656459 517.89885486 -176.69656459 517.89885486 -180 519 C-181.71995861 517.28004139 -181.21376491 515.1052808 -181.25 512.75 C-180.98257999 485.56229906 -174.66762482 454.65131498 -154.88427734 434.88623047 C-148.84999507 429.25705404 -142.40303563 424.84463598 -135.30718994 420.68463135 C-133.45212137 419.59692675 -131.60593968 418.49530871 -129.76123047 417.39013672 C-125.24312759 414.68704162 -120.70973108 412.01010747 -116.17675781 409.33203125 C-93.23738475 395.74493271 -70.09942708 378.89532429 -62.4140625 351.9453125 C-60.98713756 345.2414576 -62.21278791 339.1625515 -65 333 C-66.90330798 330.71820338 -66.90330798 330.71820338 -70.0625 330.4375 C-75.73558379 331.24794054 -78.74903099 334.33740041 -83 338 C-84.34172958 339.09869932 -85.69535552 340.18309117 -87.0625 341.25 C-87.63097656 341.70890625 -88.19945312 342.1678125 -88.78515625 342.640625 C-104.26388826 352.14079915 -123.67949963 351.4190865 -141.10644531 350.85229492 C-149.17816406 350.64091723 -155.78159674 350.93105138 -163.40649414 354.02734375 C-166.30033527 355.11263633 -168.92031193 355.72885618 -172 356 C-174 354 -174 354 -174.5 351.4375 C-172.65114657 338.7266327 -157.91076429 329.08306511 -148.31982422 321.82861328 C-131.77100442 309.56030396 -114.31962462 298.76154391 -96.50244141 288.44873047 C-94.26160931 287.15145265 -92.02701572 285.84406272 -89.79296875 284.53515625 C-81.55326884 279.75895134 -73.11779439 275.5593653 -64.44311523 271.62426758 C-54.4741822 267.03039106 -44.66310765 261.38089721 -39.0625 251.625 C-37.78612738 247.27031693 -37.24076257 243.49637279 -38 239 C-40.37272049 234.86970877 -42.57186337 233.47818784 -47 232 C-53.83776706 231.01874944 -59.46993446 231.99985303 -65.86328125 234.5 C-73.52597337 237.26087104 -80.60651844 237.67999112 -88.69360352 237.48706055 C-90.85685149 237.43646263 -93.01784668 237.42549429 -95.18164062 237.41992188 C-105.68674315 237.31325685 -105.68674315 237.31325685 -108 235 C-106.7229251 233.46689318 -105.42724971 231.94928124 -104.125 230.4375 C-103.40570313 229.59058594 -102.68640625 228.74367188 -101.9453125 227.87109375 C-94.22104477 219.86833393 -84.2953073 215.5949998 -74.25 211.3125 C-72.30838106 210.47785098 -70.36836905 209.63989043 -68.43109131 208.79521179 C-66.6853989 208.03499693 -64.93512145 207.28533577 -63.18457031 206.53637695 C-56.46137372 203.29281086 -51.21113606 199.52277831 -47.8828125 192.71484375 C-46.8497095 189.53782347 -46.66399897 186.8383116 -46.625 183.5 C-46.59664062 182.3965625 -46.56828125 181.293125 -46.5390625 180.15625 C-47.11334258 176.22389148 -48.18399119 174.77872025 -51 172 C-54.07711583 171.22364439 -54.07711583 171.22364439 -57.515625 171.29296875 C-58.76601563 171.26396484 -60.01640625 171.23496094 -61.3046875 171.20507812 C-62.60664063 171.19927734 -63.90859375 171.19347656 -65.25 171.1875 C-66.56742188 171.16236328 -67.88484375 171.13722656 -69.2421875 171.11132812 C-72.49509156 171.0523987 -75.74664795 171.01615903 -79 171 C-74.1847039 158.46273869 -60.7234259 147.92105537 -49 142 C-44.49911549 140.17478536 -39.94483161 138.49601174 -35.34838867 136.92749023 C-30.14222505 135.09213431 -26.52747674 133.46813721 -23 129 C-21.76549928 126.01499858 -21.76549928 126.01499858 -22 123 C-24.47193037 119.57732718 -27.0406921 118.25138747 -31 117 C-35.48625362 116.39479411 -40.00236124 116.11840877 -44.515625 115.7890625 C-45.43085938 115.71429688 -46.34609375 115.63953125 -47.2890625 115.5625 C-48.12131348 115.50191406 -48.95356445 115.44132812 -49.81103516 115.37890625 C-52 115 -52 115 -55 113 C-53.47347799 109.02747196 -51.08400673 107.28227774 -47.6875 104.8125 C-47.15914551 104.42449219 -46.63079102 104.03648437 -46.08642578 103.63671875 C-43.31499174 101.61579654 -40.50798219 99.65364722 -37.66796875 97.73046875 C-21.5364581 87.40750869 -21.5364581 87.40750869 -12.4375 71.3125 C-14.0047934 64.86918269 -20.42567744 61.23371208 -25.48632812 57.57421875 C-29.89868595 54.30394214 -29.89868595 54.30394214 -31 51 C-30.33613281 50.89042969 -29.67226563 50.78085938 -28.98828125 50.66796875 C-28.10527344 50.50941406 -27.22226562 50.35085937 -26.3125 50.1875 C-25.44238281 50.03667969 -24.57226562 49.88585937 -23.67578125 49.73046875 C-19.35985617 48.55225271 -16.78295621 47.11778414 -14.19140625 43.41796875 C-8.03956903 31.21756256 -4.74989102 18.21340296 -1.89453125 4.89453125 C-1 1 -1 1 0 0 Z " fill="#155E54" transform="translate(445,91)"/>
<path d="M0 0 C42.52995802 -6.00311954 82.38491265 -7.58084661 118.09551132 19.25006711 C131.90223069 29.90809986 144.54083933 41.66318383 156.85123774 53.99880347 C159.1636044 56.30417168 161.49681334 58.58645497 163.83614373 60.86443448 C217.6534329 113.46369689 238.01199788 164.5027866 239.18116354 239.47378679 C239.55967319 273.76714909 238.28166297 307.93270828 236.17680074 342.15559347 C235.0094977 361.14382754 234.23753091 380.10912832 233.80151367 399.12817383 C233.75782112 401.02767093 233.75782112 401.02767093 233.71324589 402.96554171 C233.59729336 408.06036234 233.48338282 413.15522286 233.37225519 418.25015106 C232.5222699 456.93937704 231.37899732 495.64838467 229.16287422 534.28562546 C228.93534086 538.27657378 228.73716381 542.26715578 228.56649017 546.26093102 C228.36773376 550.86539594 228.10467787 555.46165946 227.79059098 560.0596577 C227.68756363 561.71324756 227.60594745 563.36835551 227.54907259 565.02417534 C227.18963597 574.95173852 225.37656852 580.8141029 218.10500813 587.84927464 C215.79210298 589.97119815 213.4170037 591.9982969 211 594 C209.56131525 595.26949194 208.12338926 596.539847 206.6875 597.8125 C206.08164062 598.32683594 205.47578125 598.84117187 204.8515625 599.37109375 C201.04783984 602.71740672 197.55019722 606.38921921 194 610 C185.57808043 618.56563834 185.57808043 618.56563834 181.03125 622.46875 C176.26833486 626.56202757 171.90285874 631.02646937 167.5 635.5 C162.48072491 640.59984131 157.43954375 645.55183483 152.00976562 650.21289062 C148.1669081 653.63000884 144.60391313 657.33458665 141 661 C132.57808043 669.56563834 132.57808043 669.56563834 128.03125 673.46875 C123.26833486 677.56202757 118.90285874 682.02646937 114.5 686.5 C109.48072491 691.59984131 104.43954375 696.55183483 99.00976562 701.21289062 C95.1669081 704.63000884 91.60391313 708.33458665 88 712 C83.19111025 716.89095271 78.41587352 721.70345524 73.08569336 726.03051758 C70.85168305 728.00171016 70.85168305 728.00171016 69.04125977 730.8503418 C65.64852942 735.3540655 62.891749 738.39563591 57.21014404 739.58306885 C48.79791094 740.45603186 40.37396722 740.0907779 31.9375 739.8125 C29.37441679 739.77441917 26.81125694 739.74117274 24.24804688 739.71289062 C13.94839084 739.54765148 4.05833658 739.38644606 -6 737 C-7.82917969 736.59201172 -7.82917969 736.59201172 -9.6953125 736.17578125 C-30.29425647 730.99085344 -47.5309105 721.77109168 -61.1875 705.125 C-69.99219083 695.02550169 -81.5063201 688.20259078 -93.09594727 681.7668457 C-111.219777 671.52464894 -123.19073033 654.88060104 -129.3125 635.125 C-133.62114977 617.87103832 -133.27219446 600.57330331 -133.20278788 582.91534042 C-133.1901416 579.1464486 -133.18909922 575.37755234 -133.18673706 571.60864258 C-133.18056258 564.49761914 -133.16420738 557.38665844 -133.14403808 550.27566242 C-133.12155225 542.16904579 -133.11065401 534.06242589 -133.10064721 525.95578575 C-133.07983675 509.30382066 -133.04474072 492.65191838 -133 476 C-128.21578812 477.00438092 -124.68545676 479.73503208 -120.74804688 482.49804688 C-111.85966738 488.47317824 -103.17071696 490.60725499 -92.55078125 490.25 C-91.4944902 490.23485352 -90.43819916 490.21970703 -89.34989929 490.20410156 C-84.8874775 490.13956806 -80.42660145 490.02730203 -75.96508789 489.91796875 C-62.64424835 489.62040572 -50.70916998 489.65555382 -38 494 C-37.19232178 494.27231445 -36.38464355 494.54462891 -35.55249023 494.82519531 C-19.00530492 500.93702026 -4.34294914 511.37846087 10.16772461 521.15454102 C16.0312651 525.08405623 21.91956666 528.89565319 28.0625 532.375 C28.67424072 532.72570557 29.28598145 533.07641113 29.91625977 533.43774414 C36.03850285 536.8104204 41.99490481 538.63682684 49 538 C53.06114707 536.72591465 55.23667454 535.17139315 57.375 531.5625 C63.7695366 516.79352844 55.94191016 497.09956653 51.1875 482.8125 C50.77322754 481.5661377 50.35895508 480.31977539 49.93212891 479.03564453 C45.47540998 465.97878356 40.90372173 453.73735947 32 443 C31.50371094 442.39027344 31.00742187 441.78054688 30.49609375 441.15234375 C22.23993036 432.03391786 10.206918 425.37017133 -0.546875 419.6328125 C-3.93704395 417.37629877 -6.18219177 414.63561646 -8 411 C-8.42345057 407.30628662 -8.45253552 405.61126803 -6.20703125 402.578125 C-5.41683594 401.80984375 -4.62664062 401.0415625 -3.8125 400.25 C2.1152249 393.99503476 6.17337678 388.19107304 6.5625 379.375 C6.21317276 373.18317469 4.76684544 368.6737901 0.2578125 364.31640625 C-8.51571353 357.67832335 -19.97295501 356.28846998 -30.5625 354.5625 C-48.92996034 351.50506456 -64.52201197 343.65160656 -75.5 328.3125 C-78.04890778 324.65169622 -78.04890778 324.65169622 -77.84375 321.91796875 C-76.85108194 319.66148719 -75.96422474 318.49461698 -74 317 C-67.63551319 315.09454265 -62.25048017 317.58634025 -56.6875 320.5625 C-38.29238695 330.39794801 -18.42461842 335.1044326 2.375 335.375 C3.16600098 335.38909912 3.95700195 335.40319824 4.77197266 335.41772461 C9.34290482 335.37856785 12.38240137 334.86335026 16 332 C18.19253666 327.61492668 17.76001755 322.69843586 16.45361328 318.06005859 C8.84908567 295.45874451 -5.89411993 283.46957268 -26.65234375 273.06640625 C-38.00215395 267.51254459 -49.58945212 262.41404098 -61.29711914 257.66162109 C-62.36953857 257.22543457 -63.44195801 256.78924805 -64.546875 256.33984375 C-66.00432129 255.75577759 -66.00432129 255.75577759 -67.49121094 255.15991211 C-70.76395488 253.64679353 -72.79807647 251.84119165 -75 249 C-75.598125 248.29875 -76.19625 247.5975 -76.8125 246.875 C-78.67765568 242.35935993 -78.2279773 237.82129778 -78 233 C-74.50501917 235.06178725 -71.12562365 237.24958424 -67.75 239.5 C-59.88231766 244.52598575 -51.89057514 247.03409309 -42.54296875 247.2109375 C-41.51236328 247.23929688 -40.48175781 247.26765625 -39.41992188 247.296875 C-37.27686137 247.34867102 -35.13360721 247.39302627 -32.99023438 247.4296875 C-24.60849847 247.68035624 -18.28221072 249.00497305 -11.375 254.0625 C-5.19790077 258.31783503 -0.39735142 259.35793636 7 259 C9.35529281 258.58268982 9.35529281 258.58268982 11 258 C15.87028711 241.01437058 6.9763834 223.37531194 -1.02832031 208.74853516 C-12.36222841 188.35319601 -27.53989741 177.11405109 -47.97436523 166.73999023 C-62.36151884 159.36588754 -75.78509639 150.43829464 -88.9375 141.0625 C-89.65268799 140.55533447 -90.36787598 140.04816895 -91.10473633 139.52563477 C-97.81930038 134.63802137 -103.79820106 129.22709417 -108 122 C-108 121.34 -108 120.68 -108 120 C-103.74434958 120.64552001 -100.27224966 122.13843103 -96.375 123.9375 C-83.21859164 129.74240432 -69.96601795 130.37573291 -55.9375 127.453125 C-48.81184972 126.35395554 -40.47046826 125.55797771 -34 129 C-28.65038492 129.6949651 -24.28121994 129.65184874 -19.4375 127.1875 C-16.28966267 124.36251778 -15.11377846 122.70795484 -14.4375 118.5 C-14.56071884 112.46227678 -18.36229704 107.57670352 -22 103 C-23.32662408 101.9911163 -24.65816566 100.9885638 -26 100 C-26 99.34 -26 98.68 -26 98 C-26.53496094 97.7628125 -27.06992187 97.525625 -27.62109375 97.28125 C-30.04506989 95.9757259 -32.16874527 94.43456545 -34.36206055 92.77709961 C-45.54418671 84.3788653 -57.91220492 78.29835819 -70.59594727 72.50610352 C-84.77456852 66.00411873 -96.25834666 57.93213583 -102.421875 43.01953125 C-103.17068185 40.40376679 -102.97877966 38.52851413 -102 36 C-95.53385128 34.40973138 -91.43747292 35.90367142 -85.39453125 38.41015625 C-84.47524338 38.77467392 -83.55595551 39.13919159 -82.60881042 39.51475525 C-79.67034489 40.68211512 -76.74109643 41.87062093 -73.8125 43.0625 C-69.98999669 44.60603556 -66.16332323 46.13856667 -62.33203125 47.66015625 C-61.38890579 48.03558563 -60.44578033 48.41101501 -59.47407532 48.79782104 C-52.33331233 51.59250041 -45.12215303 53.92897077 -37.72517395 55.94801331 C-31.51640285 57.67837943 -25.95058379 60.20039413 -20.29728699 63.27952576 C-12.2800002 67.63100147 -5.00756277 68.77673003 4 68 C8.77036314 66.55185405 10.77410874 64.48715978 13.3359375 60.20703125 C15.69369198 52.3709649 12.99877631 43.74232484 11.375 36 C11.10719727 34.71158203 10.83939453 33.42316406 10.56347656 32.09570312 C8.51972876 22.62816661 5.87528798 13.87114117 2 5 C1.32968089 3.33479896 0.66241653 1.66836044 0 0 Z " fill="#8D181B" transform="translate(623,563)"/>
<path d="M0 0 C0.86469808 -0.01021863 1.72939617 -0.02043725 2.62029722 -0.03096554 C5.52633581 -0.05793873 8.43056003 -0.04211333 11.33665943 -0.02653408 C13.43766047 -0.03702542 15.53864986 -0.05011651 17.63962013 -0.06558794 C23.41978202 -0.10040977 29.19941191 -0.09761167 34.97964942 -0.08862984 C41.2109717 -0.0853531 47.4421366 -0.11641982 53.67339039 -0.14289761 C65.88451811 -0.18891307 78.09540105 -0.20171405 90.30659523 -0.20154686 C100.23153538 -0.20155256 110.15641847 -0.21154337 120.08134365 -0.2285738 C122.93807735 -0.23337103 125.79481111 -0.23813294 128.65154487 -0.24289125 C129.3617386 -0.24407839 130.07193234 -0.24526552 130.80364709 -0.24648864 C150.78164992 -0.27953823 170.75963232 -0.29965506 190.73766327 -0.2937088 C191.4909485 -0.29349011 192.24423374 -0.29327142 193.02034579 -0.2930461 C196.83831341 -0.29190789 200.65628098 -0.29066595 204.47424855 -0.28939397 C205.23251057 -0.2891431 205.99077259 -0.28889223 206.77201225 -0.28863376 C208.30540362 -0.28812536 209.83879498 -0.28760964 211.37218635 -0.28708661 C235.22558825 -0.27928014 259.07854227 -0.3172223 282.9318285 -0.39041042 C309.73121143 -0.4725883 336.53030484 -0.51771684 363.32982188 -0.50998205 C366.18812738 -0.50928818 369.04643288 -0.50873181 371.90473843 -0.5082674 C372.60852452 -0.50813005 373.31231061 -0.5079927 374.03742355 -0.50785119 C384.65776433 -0.50657022 395.27777418 -0.53448096 405.89802074 -0.57740879 C417.97984191 -0.62624022 430.06081033 -0.63588056 442.14273801 -0.59658093 C448.30751719 -0.57761026 454.47094774 -0.5763678 460.63560963 -0.62299633 C466.28118966 -0.66524468 471.9243337 -0.65657414 477.56983826 -0.60759812 C479.61022545 -0.59879301 481.65079571 -0.60850917 483.69097742 -0.63877428 C500.51882773 -0.8716323 500.51882773 -0.8716323 506.45350512 4.62375385 C508.56896806 6.88548211 510.44272153 9.31422639 512.32758045 11.7690134 C513.65869806 13.00401055 515.01690324 14.21181761 516.42133045 15.3627634 C522.02389244 20.15517896 527.09346549 25.49101217 532.2611742 30.74166965 C536.48219456 35.00373721 540.76726436 39.07559899 545.31781483 42.98190403 C549.97099895 47.11957504 554.25306408 51.65909573 558.61664295 56.0971384 C562.08370432 59.59994268 565.55562647 63.02665062 569.29633045 66.2377634 C574.93302676 71.0819737 580.05145183 76.44832413 585.2611742 81.74166965 C588.85694272 85.37240512 592.44905001 88.93958697 596.32758045 92.2690134 C601.95570802 97.10033727 607.06194644 102.45898719 612.2611742 107.74166965 C616.48219456 112.00373721 620.76726436 116.07559899 625.31781483 119.98190403 C629.97099895 124.11957504 634.25306408 128.65909573 638.61664295 133.0971384 C642.08370432 136.59994268 645.55562647 140.02665062 649.29633045 143.2377634 C654.93302676 148.0819737 660.05145183 153.44832413 665.2611742 158.74166965 C668.78480204 162.29956292 672.29435295 165.80355929 676.10883045 169.0502634 C677.0042189 169.86381023 677.0042189 169.86381023 677.917696 170.69379234 C680.38888592 172.89003576 680.38888592 172.89003576 683.53143311 175.02363968 C689.41708864 179.52407799 693.396285 183.89259749 694.51023769 191.41091442 C695.09980158 198.5557426 694.9372807 205.69547985 694.80341053 212.85617161 C694.79247738 215.60686975 694.8012379 218.35742483 694.80916309 221.10812473 C694.81594953 227.01059025 694.7754909 232.91117439 694.70207119 238.81316662 C694.59599518 247.34589913 694.56252045 255.87773061 694.5462273 264.41105094 C694.51784026 278.25834397 694.43150679 292.1046362 694.30829334 305.95138645 C694.18879495 319.39469603 694.09700969 332.83773149 694.04169178 346.28146458 C694.03820781 347.11986395 694.03472385 347.95826333 694.03113431 348.82206875 C694.00409862 355.37981338 693.97865972 361.93756395 693.95372498 368.49531686 C693.83129191 400.58746791 693.5697132 432.67711091 693.32758045 464.7690134 C609.83758045 464.7690134 526.34758045 464.7690134 440.32758045 464.7690134 C440.32758045 468.0690134 440.32758045 471.3690134 440.32758045 474.7690134 C438.99641269 481.01971421 436.30337117 485.75246135 431.1674242 489.58541965 C424.6963209 493.74835872 418.88313498 494.74459325 411.32758045 493.7690134 C408.67886908 492.92416581 406.22546888 491.93117108 403.7142992 490.74166965 C399.08709826 488.85595274 394.18922526 488.6293248 389.24164295 488.37448215 C371.64251212 487.37232292 354.60149289 485.24406864 337.32758045 481.7690134 C349.09569838 495.54021524 362.04380652 504.35141707 377.49335194 513.64328098 C379.12881046 514.64702107 380.73095014 515.7045932 382.32758045 516.7690134 C384.56635349 516.61037371 384.56635349 516.61037371 387.03137684 515.92372227 C435.83422958 504.0550349 495.1350297 498.61135067 540.17706546 525.07276195 C566.54627018 541.22814655 589.4440652 562.1649622 611.46385697 583.70903221 C614.25017926 586.42941411 617.05293766 589.13198661 619.8582294 591.83279014 C680.37057176 650.36786009 708.82452774 707.4880345 710.30841642 793.28063666 C710.77055511 830.55988918 709.33140035 867.66787552 706.86728348 904.84822043 C705.50349938 925.44017632 704.62906154 946.00040627 704.16083241 966.63205051 C704.14509493 967.31951103 704.12935745 968.00697155 704.11314308 968.71526421 C703.97090148 974.94004095 703.83235284 981.16489677 703.69727348 987.38983295 C703.14810148 1012.50344755 702.30085207 1037.60915631 701.3471117 1062.71041965 C701.29960877 1063.96718404 701.25210583 1065.22394843 701.20316342 1066.51879659 C700.60459035 1082.14809391 699.85659319 1097.75954646 698.87094402 1113.36934757 C698.60102461 1117.6890152 698.37731342 1122.00685858 698.19762897 1126.33119869 C696.60451335 1163.45670781 696.60451335 1163.45670781 684.00148907 1175.70100384 C680.80399774 1178.6280574 677.45723063 1181.29021767 673.95742548 1183.84441364 C668.45777492 1187.8692235 663.44674483 1192.50856125 658.67133045 1197.3627634 C657.87597889 1198.16584934 657.08062733 1198.96893528 656.2611742 1199.79635715 C655.45808826 1200.61233372 654.65500233 1201.42831028 653.82758045 1202.2690134 C648.81837576 1207.35862267 643.78735264 1212.29905941 638.36859608 1216.95065403 C634.34261151 1220.53744028 630.60836547 1224.42754163 626.82758045 1228.2690134 C621.80830536 1233.36885471 616.7671242 1238.32084823 611.33734608 1242.98190403 C607.49448855 1246.39902224 603.93149358 1250.10360005 600.32758045 1253.7690134 C591.90566088 1262.33465174 591.90566088 1262.33465174 587.35883045 1266.2377634 C582.59591531 1270.33104097 578.23043919 1274.79548278 573.82758045 1279.2690134 C568.81837576 1284.35862267 563.78735264 1289.29905941 558.36859608 1293.95065403 C554.34261151 1297.53744028 550.60836547 1301.42754163 546.82758045 1305.2690134 C541.80830536 1310.36885471 536.7671242 1315.32084823 531.33734608 1319.98190403 C527.49448855 1323.39902224 523.93149358 1327.10360005 520.32758045 1330.7690134 C515.3543305 1335.82713111 510.35142002 1340.74864141 504.9564867 1345.35885715 C503.70150472 1346.44530439 502.5013239 1347.59526996 501.32758045 1348.7690134 C498.56541067 1348.97177065 495.90282097 1349.04757184 493.13897228 1349.03745556 C492.27799079 1349.04216002 491.41700929 1349.04686448 490.52993745 1349.0517115 C487.61301944 1349.06514231 484.69627858 1349.06417355 481.77933216 1349.06335545 C479.67965662 1349.06994956 477.57998363 1349.07740002 475.4803139 1349.0856384 C469.68547103 1349.10573088 463.8906696 1349.11312038 458.09579682 1349.11841702 C451.85565719 1349.12620769 445.61555062 1349.14536545 439.37543201 1349.16284275 C425.00582845 1349.20054518 410.63623232 1349.22089076 396.26659237 1349.23776411 C389.16777506 1349.24617277 382.06896115 1349.25661736 374.97014671 1349.26713317 C350.67696782 1349.30291764 326.38378798 1349.33291043 302.09058666 1349.34777355 C300.56493111 1349.34872307 299.03927555 1349.34967485 297.51362 1349.35062888 C296.37871949 1349.351338 296.37871949 1349.351338 295.2208917 1349.35206146 C291.38747674 1349.35446389 287.55406179 1349.35689478 283.72064686 1349.35934544 C282.95988893 1349.35982574 282.199131 1349.36030604 281.4153198 1349.36080089 C256.74858922 1349.37658746 232.08205097 1349.42345008 207.41540438 1349.48845732 C181.34551427 1349.55703744 155.27573669 1349.59647436 129.20575488 1349.60306203 C126.34435148 1349.60389713 123.48294816 1349.60485626 120.62154484 1349.60590839 C119.91697048 1349.60615478 119.21239612 1349.60640116 118.48647102 1349.60665501 C107.14223613 1349.61132134 95.79822436 1349.64265415 84.45406903 1349.68359209 C73.05261683 1349.7240842 61.65150984 1349.73440725 50.24997155 1349.71605082 C44.07162906 1349.70693798 37.89401171 1349.71088716 31.71576786 1349.74957371 C26.06135474 1349.78467503 20.40820004 1349.78297671 14.75377508 1349.75177912 C12.70658455 1349.74700198 10.65930874 1349.75580349 8.61224906 1349.77943642 C-6.70668135 1349.94535765 -6.70668135 1349.94535765 -11.55919623 1347.04149795 C-13.56195312 1345.05549426 -15.07347665 1343.08118461 -16.67241955 1340.7690134 C-17.93275379 1339.60901971 -19.22181555 1338.47881837 -20.54741955 1337.3940134 C-26.44104869 1332.31766486 -31.7956872 1326.6893326 -37.25054455 1321.1518259 C-40.96459802 1317.40359403 -44.66525307 1313.70487703 -48.67241955 1310.2690134 C-54.5320891 1305.24475859 -59.83778763 1299.64659429 -65.25054455 1294.1518259 C-68.96459802 1290.40359403 -72.66525307 1286.70487703 -76.67241955 1283.2690134 C-82.5320891 1278.24475859 -87.83778763 1272.64659429 -93.25054455 1267.1518259 C-96.96459802 1263.40359403 -100.66525307 1259.70487703 -104.67241955 1256.2690134 C-110.5320891 1251.24475859 -115.83778763 1245.64659429 -121.25054455 1240.1518259 C-125.58631218 1235.77615857 -129.97366628 1231.57854934 -134.64898205 1227.56979465 C-139.53116771 1223.22483792 -144.02361457 1218.45230964 -148.6060133 1213.79635715 C-152.19148014 1210.17602353 -155.77183846 1206.61794287 -159.64116955 1203.3002634 C-165.50929315 1198.26292101 -170.82725317 1192.65728837 -176.25054455 1187.1518259 C-179.98524279 1183.38275927 -183.70944478 1179.66603033 -187.73491955 1176.2065134 C-188.62562318 1175.40173384 -188.62562318 1175.40173384 -189.53432083 1174.58069611 C-191.62296489 1172.7217289 -191.62296489 1172.7217289 -193.98977089 1171.32666206 C-197.64608119 1168.63665437 -200.16966243 1166.02602127 -201.18396401 1161.47255683 C-202.04109585 1154.09496744 -201.79797166 1146.65996693 -201.69414806 1139.24728489 C-201.69138973 1136.68303933 -201.69259473 1134.11878693 -201.69743538 1131.55454445 C-201.69925903 1125.39141454 -201.66078546 1119.22971622 -201.60292342 1113.06689546 C-201.53796435 1105.93375684 -201.53096231 1098.8010288 -201.52385998 1091.66757298 C-201.47666229 1072.84703252 -201.35101144 1054.02675499 -201.23491955 1035.2065134 C-201.04929455 993.1521384 -200.86366955 951.0977634 -200.67241955 907.7690134 C-116.52241955 907.7690134 -32.37241955 907.7690134 54.32758045 907.7690134 C54.98758045 905.4590134 55.64758045 903.1490134 56.32758045 900.7690134 C60.45757397 893.13268311 68.06980166 890.00509089 75.58539295 886.53073215 C81.35182779 884.17136719 81.35182779 884.17136719 85.32758045 879.7690134 C84.66758045 880.0990134 84.00758045 880.4290134 83.32758045 880.7690134 C70.79346481 882.71396238 57.91741251 883.78116665 47.01508045 876.5815134 C42.83355243 872.20549571 41.52995742 868.11658622 41.01508045 862.1440134 C41.33121313 858.72978047 42.19546376 855.98945691 43.32758045 852.7690134 C42.55736089 852.91850567 41.78714132 853.06799793 40.99358177 853.22202027 C4.17103688 859.99584858 -29.18311905 859.19039746 -60.93500328 837.64689839 C-81.71883574 823.08374435 -100.36825569 805.90303051 -118.45377588 788.1689747 C-121.25109119 785.4328832 -124.06631577 782.71629524 -126.88476467 780.00199366 C-188.04820493 720.8186686 -216.12435767 662.15726822 -217.72011042 575.31911648 C-217.79571725 570.53434631 -217.83530804 565.74960573 -217.85991955 560.9643259 C-217.86353662 560.28668931 -217.86715369 559.60905272 -217.87088037 558.91088168 C-218.02920521 524.77652306 -216.51692159 490.75337133 -214.3792963 456.69452879 C-213.02924156 435.1664407 -212.17514019 413.67016056 -211.73198986 392.10446262 C-211.71710157 391.38647612 -211.70221329 390.66848962 -211.68687384 389.92874595 C-211.55230803 383.42762223 -211.42124399 376.92643036 -211.29326481 370.42517377 C-210.77172909 344.18137587 -209.9173256 317.94635705 -208.98491955 291.7143259 C-208.93910984 290.40098516 -208.89330012 289.08764442 -208.84610224 287.73450547 C-208.27215723 271.39074434 -207.54530913 255.06646147 -206.55510616 238.74243259 C-206.28465713 234.22547806 -206.06706818 229.71126336 -205.9000845 225.18932819 C-204.4120361 186.39612933 -204.4120361 186.39612933 -190.03857172 172.40205525 C-185.47954327 168.19839376 -180.64019884 164.47822274 -175.67241955 160.7690134 C-171.4366715 157.21682367 -167.32739534 153.55904597 -163.45366955 149.6127634 C-162.74855236 148.89991184 -162.04343517 148.18706028 -161.3169508 147.45260715 C-160.60925549 146.73202122 -159.90156017 146.01143528 -159.17241955 145.2690134 C-155.12293491 141.14576766 -151.08883006 137.0688964 -146.70366955 133.3002634 C-142.12063294 129.35713948 -137.90901866 125.07790943 -133.67241955 120.7690134 C-128.81595609 115.82967514 -123.92220178 111.057502 -118.6685133 106.5424509 C-115.00446466 103.2871122 -111.60536911 99.76449393 -108.17241955 96.2690134 C-104.12293491 92.14576766 -100.08883006 88.0688964 -95.70366955 84.3002634 C-91.12063294 80.35713948 -86.90901866 76.07790943 -82.67241955 71.7690134 C-77.81595609 66.82967514 -72.92220178 62.057502 -67.6685133 57.5424509 C-64.00446466 54.2871122 -60.60536911 50.76449393 -57.17241955 47.2690134 C-53.12293491 43.14576766 -49.08883006 39.0688964 -44.70366955 35.3002634 C-40.12063294 31.35713948 -35.90901866 27.07790943 -31.67241955 22.7690134 C-26.82799888 17.84192344 -21.97742059 13.02617114 -16.6919508 8.56979465 C-14.72369877 6.90688477 -14.72369877 6.90688477 -13.46758945 5.30769149 C-9.32836213 0.49688258 -6.18632404 -0.09765619 0 0 Z M-9.67241955 34.7690134 C-11.12299747 36.22475557 -12.58391248 37.67041844 -14.06304455 39.0971384 C-15.35223418 40.40173667 -16.63877616 41.7089576 -17.92241955 43.0190134 C-21.71720882 46.89000326 -25.51477881 50.68478006 -29.62554455 54.2221384 C-34.03336725 58.02080215 -38.09712871 62.11949141 -42.17241955 66.2690134 C-46.22190418 70.39225915 -50.25600903 74.46913041 -54.64116955 78.2377634 C-59.22420615 82.18088733 -63.43582044 86.46011738 -67.67241955 90.7690134 C-72.52888301 95.70835167 -77.42263731 100.48052481 -82.6763258 104.9955759 C-86.34037443 108.25091461 -89.73946998 111.77353288 -93.17241955 115.2690134 C-97.22190418 119.39225915 -101.25600903 123.46913041 -105.64116955 127.2377634 C-110.22420615 131.18088733 -114.43582044 135.46011738 -118.67241955 139.7690134 C-123.52888301 144.70835167 -128.42263731 149.48052481 -133.6763258 153.9955759 C-137.34037443 157.25091461 -140.73946998 160.77353288 -144.17241955 164.2690134 C-145.59692511 165.71946624 -147.02399419 167.16740605 -148.45366955 168.6127634 C-149.07306408 169.2437595 -149.69245861 169.87475559 -150.33062267 170.52487278 C-154.88877489 174.89294359 -159.44679782 179.0597602 -164.8044529 182.42503548 C-172.05791142 187.49401391 -176.54327596 193.32434258 -178.19154448 202.07891398 C-179.90464666 213.28479992 -180.30140139 224.65211283 -180.7723037 235.96386421 C-180.96876723 240.3908375 -181.22184072 244.8139182 -181.47396076 249.23801648 C-183.84612608 291.05242395 -184.97690365 332.95393304 -185.86925472 374.82448614 C-186.00333368 381.09962584 -186.14268361 387.37464803 -186.28399181 393.64962864 C-186.29947177 394.34262082 -186.31495172 395.03561299 -186.33090077 395.74960493 C-186.79859207 416.52817953 -187.70503463 437.24529811 -188.96977499 457.98996753 C-199.56288559 607.06341865 -199.56288559 607.06341865 -135.48456383 736.67101097 C-126.60570586 746.61657845 -117.22999049 756.03590604 -107.67389378 765.32687584 C-105.15758984 767.78431859 -102.66495273 770.26362794 -100.17752862 772.75027061 C-66.81352382 805.98647131 -34.74642183 832.38224659 14.08833694 832.8533783 C31.59772403 832.76805256 49.00390107 831.24651644 66.32758045 828.7690134 C65.84420216 829.45236759 65.36082386 830.13572178 64.86279774 830.83978367 C63.91385639 832.18703022 63.91385639 832.18703022 62.94574451 833.56149387 C62.31799122 834.45109806 61.69023792 835.34070225 61.0434618 836.25726414 C57.91771084 840.83281518 55.63364374 845.74583628 53.32758045 850.7690134 C52.97308826 851.50248997 52.61859608 852.23596653 52.2533617 852.99166965 C50.3459034 857.33307927 50.08795505 860.97221614 50.4174242 865.59323215 C51.84819167 869.01356468 54.13353068 871.0434439 57.32758045 872.7690134 C60.35363435 873.46134398 63.23514 873.43237041 66.32758045 873.3315134 C67.18972157 873.31709202 68.05186268 873.30267063 68.94012928 873.28781223 C82.33977125 872.84873608 95.72167032 870.30810714 108.32758045 865.7690134 C109.42843983 865.38100559 110.5292992 864.99299778 111.66351795 864.59323215 C117.08656675 862.56481673 122.09361418 860.41617965 127.07758045 857.4565134 C131.91243474 854.72193109 135.82264036 853.61065928 141.32758045 854.7690134 C144.39008045 856.2690134 144.39008045 856.2690134 146.32758045 857.7690134 C143.9974782 867.86612314 135.66236513 875.25898839 127.32758045 880.7690134 C117.13708008 886.36429436 106.91776909 889.13389809 95.57611561 891.19381809 C78.81046694 893.99837588 78.81046694 893.99837588 65.32758045 903.7690134 C62.59303093 908.24960975 62.47594346 912.66666194 63.32758045 917.7690134 C66.19056304 924.11693687 69.44517275 926.84740827 75.32758045 930.7690134 C-7.83241955 931.0990134 -90.99241955 931.4290134 -176.67241955 931.7690134 C-176.91991955 968.1515134 -177.16741955 1004.5340134 -177.42241955 1042.0190134 C-177.53166759 1053.4997263 -177.64091564 1064.98043919 -177.75347424 1076.80905247 C-177.79361158 1087.11539686 -177.79361158 1087.11539686 -177.81774426 1097.4217844 C-177.82890916 1102.00696823 -177.87380863 1106.59047895 -177.93932629 1111.17520237 C-178.02190081 1117.03147117 -178.04626891 1122.88532237 -178.02928686 1128.74211931 C-178.0328353 1130.88636022 -178.05648532 1133.03068922 -178.10300112 1135.17442846 C-178.59639181 1148.28298726 -178.59639181 1148.28298726 -172.4856379 1159.35117412 C-170.00375488 1161.69622501 -167.41511522 1163.73066576 -164.67241955 1165.7690134 C-163.28809756 1166.9666557 -161.91038411 1168.17212059 -160.54741955 1169.3940134 C-159.9235133 1169.92639622 -159.29960705 1170.45877903 -158.65679455 1171.00729465 C-153.55765626 1175.53428554 -148.87727713 1180.53074889 -144.09429455 1185.3862009 C-139.75852691 1189.76186824 -135.37117282 1193.95947747 -130.69585705 1197.96823215 C-125.81367139 1202.31318889 -121.32122453 1207.08571717 -116.7388258 1211.74166965 C-113.15335895 1215.36200328 -109.57300063 1218.92008394 -105.70366955 1222.2377634 C-99.83554595 1227.2751058 -94.51758593 1232.88073844 -89.09429455 1238.3862009 C-85.38024107 1242.13443278 -81.67958603 1245.83314978 -77.67241955 1249.2690134 C-71.81275 1254.29326822 -66.50705146 1259.89143252 -61.09429455 1265.3862009 C-57.38024107 1269.13443278 -53.67958603 1272.83314978 -49.67241955 1276.2690134 C-43.81275 1281.29326822 -38.50705146 1286.89143252 -33.09429455 1292.3862009 C-31.83359142 1293.65850559 -31.83359142 1293.65850559 -30.54741955 1294.9565134 C-29.80234142 1295.71319309 -29.0572633 1296.46987278 -28.28960705 1297.24948215 C-26.87384102 1298.61242109 -25.43826007 1299.96007828 -23.91562581 1301.20248759 C-20.08656277 1304.34597625 -17.11755976 1307.37999306 -14.37926388 1311.52019405 C-9.14358015 1318.86431908 -3.26139663 1324.99703381 5.79243469 1326.88338232 C18.57884009 1328.87468949 31.72326191 1328.43208189 44.62173414 1328.31141829 C50.57468601 1328.27644953 56.52645738 1328.35127805 62.47906971 1328.41134739 C73.44895997 1328.50521166 84.41678883 1328.51275524 95.3869608 1328.47374714 C105.52615591 1328.43779392 115.66463305 1328.43580712 125.80384541 1328.46726704 C127.16820103 1328.47137591 128.53255666 1328.4754833 129.89691229 1328.47958922 C131.95332835 1328.48583613 134.00974425 1328.49212418 136.06615986 1328.49851442 C155.16437832 1328.55719481 174.26235773 1328.5789864 193.36059666 1328.52118969 C194.07926386 1328.51901542 194.79793106 1328.51684114 195.53837605 1328.51460098 C201.37302057 1328.49670326 207.20766151 1328.47769296 213.04230227 1328.45861687 C235.79101395 1328.38502027 258.537131 1328.42135937 281.28558826 1328.547822 C306.89414499 1328.689892 332.50118026 1328.7557466 358.11013341 1328.70578516 C360.84543944 1328.70067659 363.58074579 1328.69578908 366.31605244 1328.69102192 C366.98946194 1328.68978914 367.66287144 1328.68855636 368.35668728 1328.68728623 C378.48182733 1328.67017998 388.60565002 1328.71109756 398.73052692 1328.78154469 C410.25856248 1328.86032686 421.78312945 1328.85691107 433.31099722 1328.75029583 C439.18529946 1328.69807876 445.05355157 1328.68152352 450.92760944 1328.76644611 C478.72600596 1330.03760726 478.72600596 1330.03760726 502.35327649 1317.67970312 C506.01852468 1313.8615845 509.19800867 1309.74703005 512.28316069 1305.4463613 C515.19029713 1301.63920987 518.62150487 1298.76197581 522.32758045 1295.7690134 C523.922885 1294.23463323 525.50163408 1292.68261859 527.05414295 1291.1049509 C527.85851795 1290.29284153 528.66289295 1289.48073215 529.49164295 1288.6440134 C530.30375233 1287.8190134 531.1158617 1286.9940134 531.95258045 1286.1440134 C541.06113901 1276.89223852 541.06113901 1276.89223852 544.91351795 1273.8080759 C545.71015858 1273.13518528 546.5067992 1272.46229465 547.32758045 1271.7690134 C547.32758045 1271.1090134 547.32758045 1270.4490134 547.32758045 1269.7690134 C547.91313709 1269.51015354 548.49869373 1269.25129368 549.10199451 1268.98458958 C551.49642005 1267.67679616 553.03851375 1266.2716524 554.93695545 1264.31979465 C555.60984608 1263.635947 556.2827367 1262.95209934 556.97601795 1262.24752903 C557.66953358 1261.53274387 558.3630492 1260.81795872 559.07758045 1260.0815134 C563.02361093 1256.03420648 566.94881505 1252.03337041 571.24164295 1248.35104465 C576.06681224 1244.20175386 580.49063721 1239.67678115 584.95258045 1235.1440134 C594.06113901 1225.89223852 594.06113901 1225.89223852 597.91351795 1222.8080759 C598.71015858 1222.13518528 599.5067992 1221.46229465 600.32758045 1220.7690134 C600.32758045 1220.1090134 600.32758045 1219.4490134 600.32758045 1218.7690134 C600.91313709 1218.51015354 601.49869373 1218.25129368 602.10199451 1217.98458958 C604.49642005 1216.67679616 606.03851375 1215.2716524 607.93695545 1213.31979465 C608.60984608 1212.635947 609.2827367 1211.95209934 609.97601795 1211.24752903 C610.66953358 1210.53274387 611.3630492 1209.81795872 612.07758045 1209.0815134 C616.0261857 1205.03156562 619.95436025 1201.02856958 624.24945545 1197.34323215 C629.02731538 1193.23429603 633.4095865 1188.75792219 637.82758045 1184.2690134 C646.7847253 1175.16809416 646.7847253 1175.16809416 651.04633045 1171.5502634 C651.64420649 1171.02015492 652.24208254 1170.49004644 652.85807604 1169.94387406 C654.20393899 1168.75858994 655.55693036 1167.5805341 656.94247831 1166.4418935 C665.17702284 1159.6087057 670.66162542 1153.94402947 671.69320819 1143.02307301 C671.85344723 1140.57892691 671.94801991 1138.13716133 672.04069996 1135.68959141 C672.15663201 1133.89292465 672.27793271 1132.09659778 672.40407425 1130.30061895 C672.73024484 1125.39647278 672.97124798 1120.49143232 673.19533336 1115.58169663 C673.3985441 1111.35825608 673.65093196 1107.13826344 673.90211891 1102.91744747 C676.3050225 1062.32833011 677.46457689 1021.65386388 678.40468216 981.00793076 C678.53026376 975.67571191 678.65804552 970.34355198 678.78827381 965.01144505 C678.8123424 964.01819567 678.8123424 964.01819567 678.83689723 963.00488065 C679.33689662 942.52114474 680.32541246 922.09757579 681.63885975 901.6481638 C691.75361818 761.97358534 691.75361818 761.97358534 632.03890169 640.47733247 C621.54267727 628.57911425 610.38390555 617.38967851 598.895569 606.45447949 C596.32090395 604.0037178 593.75841391 601.54069123 591.19649482 599.076617 C552.4150797 561.96134861 513.40199277 530.50838869 457.4025898 531.65914536 C440.92113725 532.42178405 424.54976351 535.15433446 408.73958379 539.86942309 C405.31285347 540.87201172 403.32464834 541.2939416 400.08748722 539.58966732 C398.06078922 538.07379015 396.20002578 536.46912629 394.32758045 534.7690134 C392.74331573 533.75383601 391.13965393 532.76735307 389.50726795 531.8315134 C388.65334461 531.33659397 387.79942127 530.84167454 386.91962147 530.33175755 C386.02299793 529.81605198 385.1263744 529.30034641 384.20258045 528.7690134 C349.32831752 508.32996067 349.32831752 508.32996067 335.32758045 493.7690134 C334.44715076 492.87311497 333.56672108 491.97721653 332.6596117 491.05416965 C325.37648522 483.33185967 319.58297835 474.91819509 316.32758045 464.7690134 C317.16676014 465.14413059 318.00593983 465.51924778 318.8705492 465.90573215 C329.76034169 470.53943807 340.77328911 473.30205676 352.32758045 475.7690134 C353.83578358 476.10739231 353.83578358 476.10739231 355.37445545 476.45260715 C367.23276334 478.88846976 379.63534246 479.63335005 391.71259022 480.06002903 C398.46196983 480.30621571 404.04076603 480.98986882 410.22601795 483.9018259 C414.84620058 485.80829532 418.91268039 485.28599612 423.57758045 483.5815134 C427.56319199 480.95463307 429.81738576 478.29959748 431.32758045 473.7690134 C431.91722481 464.92434807 428.85094112 459.06498134 423.82758045 452.0190134 C423.43699451 451.45569309 423.04640858 450.89237278 422.6439867 450.31198215 C420.6896673 447.52855756 418.74464603 445.18607898 416.32758045 442.7690134 C500.14758045 442.4390134 583.96758045 442.1090134 670.32758045 441.7690134 C670.69883045 401.7152634 671.07008045 361.6615134 671.45258045 320.3940134 C671.61645252 307.76716282 671.78032459 295.14031223 671.94916248 282.13082981 C672.00937825 270.76946947 672.00937825 270.76946947 672.04556751 259.40802097 C672.06227856 254.36318318 672.12946599 249.32178604 672.22794056 244.27789402 C672.35221523 237.82619201 672.38828549 231.37942901 672.36288142 224.92664123 C672.36818562 222.56985915 672.40343097 220.21288935 672.47345281 217.85714173 C672.80294475 206.22346811 672.37524977 197.80223153 664.13590896 189.01551187 C660.36078618 185.3855805 656.40140145 182.05556679 652.32758045 178.7690134 C650.86166253 177.51454058 649.4021837 176.2524908 647.9503088 174.9817915 C647.33108111 174.44181141 646.71185341 173.90183131 646.07386124 173.34548819 C642.68472847 170.28591015 639.54008742 166.98401756 636.3783617 163.69284153 C635.06360865 162.34921147 633.69941157 161.05431364 632.32758045 159.7690134 C631.66758045 159.7690134 631.00758045 159.7690134 630.32758045 159.7690134 C630.10199451 159.20569309 629.87640858 158.64237278 629.6439867 158.06198215 C627.94408174 155.10102011 625.83523059 153.33348815 623.26508045 151.0815134 C617.08814352 145.58276792 611.26266141 139.76976992 605.46796131 133.87179661 C601.52209115 129.8782789 597.47530474 126.10446759 593.22015858 122.44332981 C589.75545639 119.37819467 586.58127534 116.02689183 583.3783617 112.69284153 C582.06360865 111.34921147 580.69941157 110.05431364 579.32758045 108.7690134 C578.66758045 108.7690134 578.00758045 108.7690134 577.32758045 108.7690134 C577.10199451 108.20569309 576.87640858 107.64237278 576.6439867 107.06198215 C574.94408174 104.10102011 572.83523059 102.33348815 570.26508045 100.0815134 C564.08814352 94.58276792 558.26266141 88.76976992 552.46796131 82.87179661 C548.52209115 78.8782789 544.47530474 75.10446759 540.22015858 71.44332981 C536.75545639 68.37819467 533.58127534 65.02689183 530.3783617 61.69284153 C529.06360865 60.34921147 527.69941157 59.05431364 526.32758045 57.7690134 C525.66758045 57.7690134 525.00758045 57.7690134 524.32758045 57.7690134 C524.10199451 57.20569309 523.87640858 56.64237278 523.6439867 56.06198215 C521.94408174 53.10102011 519.83523059 51.33348815 517.26508045 49.0815134 C510.9313267 43.44808361 504.97085451 37.47458298 499.02850819 31.43234348 C498.33185047 30.72746799 497.63519276 30.02259251 496.9174242 29.29635715 C496.29730457 28.66463596 495.67718494 28.03291477 495.03827381 27.38205051 C490.94810067 23.52536806 487.70515081 23.47760601 482.37067986 23.49219131 C481.54688712 23.48658806 480.72309439 23.48098481 479.87433824 23.47521177 C477.0899167 23.45877751 474.30566586 23.45668447 471.52119923 23.45448399 C469.51425604 23.44574172 467.50731639 23.43615308 465.50038093 23.42578679 C459.96636382 23.3998673 454.43237735 23.38667073 448.89831316 23.37563264 C442.93690989 23.36168462 436.97555219 23.33642809 431.01418018 23.31297398 C416.60667151 23.25912722 402.19913645 23.22530646 387.79156271 23.19552156 C383.72318652 23.18708394 379.65481172 23.17807222 375.58643699 23.16896367 C350.33132087 23.11265214 325.07619844 23.06398734 299.82103539 23.03481674 C293.96880612 23.02795819 288.11657701 23.02097883 282.26434803 23.01388645 C281.53728256 23.01301387 280.8102171 23.0121413 280.06111934 23.01124228 C256.49598752 22.98267835 232.93121069 22.9132941 209.36624985 22.82067782 C185.1388565 22.72563176 160.91165146 22.66625602 136.68406732 22.6537645 C133.26074836 22.6519955 129.83742973 22.6498485 126.41411114 22.64748669 C125.74038228 22.64703803 125.06665342 22.64658938 124.37250854 22.64612713 C113.53762913 22.63792416 102.70320725 22.5927161 91.86849752 22.53393862 C80.97226096 22.47570373 70.0765694 22.45898956 59.18019927 22.48147186 C53.27853868 22.49249023 47.37831953 22.48570541 41.47687244 22.43083668 C36.07047191 22.38098544 30.66654187 22.38220946 25.26009177 22.423551 C23.30772478 22.42957475 21.35519153 22.41710025 19.40309686 22.38394084 C5.76936035 22.16650405 -0.72075022 24.1829409 -9.67241955 34.7690134 Z " fill="#8E1C1D" transform="translate(200.67241954803467,-0.7690134048461914)"/>
<path d="M0 0 C75.24 0 150.48 0 228 0 C224.56638816 2.57520888 221.3157164 4.52187496 217.5625 6.5625 C186.69490737 23.81335368 176.73967013 50.54098547 167.37548828 83.17651367 C164.81644384 92.70615776 164.82332182 102.54613928 168.67578125 111.7109375 C170.77848874 115.34570619 173.0738302 117.48379621 177 119 C183.12369877 120.32599776 186.90938097 118.25799618 192 115 C192.66 115 193.32 115 194 115 C194.27328125 114.40445312 194.5465625 113.80890625 194.828125 113.1953125 C204.84877041 94.42330344 236.65793117 82.01327262 255 74 C255.68304199 73.70158203 256.36608398 73.40316406 257.06982422 73.09570312 C265.49642224 69.54354792 273.28861432 68.55539245 282.3034668 68.30371094 C307.79373066 67.57548704 329.55689337 60.94393423 348 43 C349.55151355 41.59196497 351.11245772 40.19416521 352.6875 38.8125 C353.31011719 38.26207031 353.93273437 37.71164062 354.57421875 37.14453125 C356 36 356 36 357 36 C357.07050371 55.64731364 357.12318861 75.29460114 357.15543652 94.94201565 C357.17081676 104.06742554 357.19173402 113.19275623 357.22631836 122.31811523 C357.25649484 130.28431495 357.27563897 138.25045723 357.28226548 146.21671253 C357.28613065 150.42340633 357.29502231 154.629936 357.31719017 158.83657646 C357.65444058 225.58138933 357.65444058 225.58138933 340.34375 243.70703125 C337.73644355 246.25784606 335.06801625 248.68220691 332.28515625 251.0390625 C327.04740217 255.53368224 322.0313604 260.27723777 317 265 C316.50532227 265.45922852 316.01064453 265.91845703 315.50097656 266.39160156 C304.80217634 276.37471413 297.24099307 287.86981918 289.61132812 300.2355957 C283.59264294 309.95435053 276.84588244 318.68281014 269 327 C268.02933594 328.06734375 268.02933594 328.06734375 267.0390625 329.15625 C250.01699394 347.22048602 225.97737484 349.83761002 202.40899563 350.6003294 C200.35609458 350.65687254 198.30319303 350.70535952 196.25 350.75 C195.56377689 350.76620014 194.87755379 350.78240028 194.17053604 350.79909134 C164.55067341 351.41323483 164.55067341 351.41323483 153.88119507 342.06063843 C149.25642002 337.50590161 145.50852262 332.31359566 141.98388672 326.88427734 C139.68538489 323.54259624 137.18635806 321.22669673 134.05200195 318.69750977 C129.03730318 314.54912183 124.62742402 309.66157208 120.06640625 305.02734375 C116.47063773 301.39660828 112.87853044 297.82942643 109 294.5 C103.37187243 289.66867614 98.26563402 284.31002622 93.06640625 279.02734375 C89.47063773 275.39660828 85.87853044 271.82942643 82 268.5 C76.37187243 263.66867614 71.26563402 258.31002622 66.06640625 253.02734375 C61.78886634 248.70820702 57.4473512 244.56803092 52.83544922 240.60839844 C50.03466887 238.15408333 47.42189808 235.52968804 44.8125 232.875 C44.31814453 232.37613281 43.82378906 231.87726563 43.31445312 231.36328125 C41.01351455 229.0411219 38.71774171 226.71389274 36.421875 224.38671875 C34.15494766 222.15269842 31.82848686 220.03719912 29.4375 217.9375 C22.52615974 211.7607483 16.04498153 205.15607149 9.58203125 198.515625 C7.29537882 196.0485762 7.29537882 196.0485762 5.2445364 195.0789547 C2.79471218 193.6225565 1.55736719 192.41341676 0 190 C-1.07022865 183.97359005 -0.88412822 177.98037461 -0.79467773 171.87744141 C-0.79253269 169.97437325 -0.79346903 168.07129952 -0.79723454 166.16823387 C-0.79881378 161.07546159 -0.75826974 155.9838425 -0.70896149 150.89134216 C-0.66907134 146.1113627 -0.66721846 141.33166251 -0.66223145 136.55151367 C-0.62551235 122.57585659 -0.52778399 108.6004137 -0.4375 94.625 C-0.293125 63.39875 -0.14875 32.1725 0 0 Z " fill="#8D181B" transform="translate(46,953)"/>
</svg>
