<?xml version="1.0" encoding="UTF-8"?>
<svg version="1.1" xmlns="http://www.w3.org/2000/svg" width="916" height="1370">
<path d="M0 0 C5.74572505 0.02625154 11.49038687 -0.04555066 17.2357583 -0.10412455 C28.474595 -0.20259839 39.71164189 -0.20884906 50.95080371 -0.18025976 C60.09226339 -0.15821975 69.23319465 -0.16729554 78.37462473 -0.1982255 C79.67842664 -0.2025628 80.98222855 -0.2069001 82.32553961 -0.21136883 C84.97472283 -0.22023851 87.62390594 -0.22914439 90.27308892 -0.23808604 C108.04691252 -0.29497161 125.82050973 -0.31980185 143.59438753 -0.27763987 C144.28837814 -0.27599762 144.98236875 -0.27435538 145.69738937 -0.27266337 C151.3317862 -0.25912994 156.96618074 -0.24468244 162.60057511 -0.23016537 C184.56351958 -0.17432878 206.52395688 -0.22395582 228.4865365 -0.35867167 C253.2080336 -0.51007725 277.92800189 -0.58435598 302.6499809 -0.54515743 C315.72257729 -0.52582711 328.79308891 -0.53912378 341.86535501 -0.64112711 C352.99633315 -0.72693739 364.12378469 -0.73088973 375.2547123 -0.63198239 C380.92659422 -0.58373279 386.59217298 -0.5711475 392.26370287 -0.66024256 C430.21329436 -1.2150187 430.21329436 -1.2150187 442.29806745 10.3974371 C445.97508487 14.22297227 449.18521519 18.3402254 452.30567193 22.63193178 C455.23426034 26.42203702 458.66850106 29.31608529 462.37520838 32.31027365 C463.87375468 33.74868566 465.35674854 35.20377066 466.81270838 36.68527365 C467.56294275 37.4432424 468.31317713 38.20121115 469.08614588 38.98214865 C470.61218754 40.53423198 472.13822921 42.08631531 473.66427088 43.63839865 C477.13133225 47.14120292 480.6032544 50.56791086 484.34395838 53.77902365 C489.98065469 58.62323394 495.09907975 63.98958437 500.30880213 69.2829299 C504.52982248 73.54499745 508.81489228 77.61685923 513.36544275 81.52316427 C518.01862687 85.66083528 522.300692 90.20035597 526.66427088 94.63839865 C530.13133225 98.14120292 533.6032544 101.56791086 537.34395838 104.77902365 C542.98065469 109.62323394 548.09907975 114.98958437 553.30880213 120.2829299 C557.52982248 124.54499745 561.81489228 128.61685923 566.36544275 132.52316427 C571.01862687 136.66083528 575.300692 141.20035597 579.66427088 145.63839865 C583.88749701 149.9051632 588.18148462 153.99927334 592.74630213 157.9001174 C594.00128411 158.98656463 595.20146493 160.1365302 596.37520838 161.31027365 C596.56867193 164.13108089 596.63559832 166.85335974 596.61571741 169.67505026 C596.61828069 170.98843384 596.61828069 170.98843384 596.62089574 172.32835042 C596.62420545 175.27960056 596.61316267 178.23062628 596.60225916 181.18185568 C596.60169536 183.2904982 596.60201098 185.39914112 596.60314417 187.50778341 C596.60371992 193.24718547 596.59192966 198.98650458 596.57799625 204.7258873 C596.56552591 210.71835714 596.56432132 216.71082872 596.56194544 222.70330954 C596.55571977 234.05762046 596.53929429 245.41189305 596.51924646 256.76618707 C596.49692121 269.68980326 596.48590253 282.61342125 596.47585559 295.53705192 C596.45492898 322.12814711 596.41973196 348.71920824 596.37520838 375.31027365 C563.94966573 375.51574531 531.52431122 375.67494164 499.09826581 375.76986161 C495.26699494 375.78111749 491.43572537 375.79276644 487.60445642 375.80465841 C486.46038847 375.8081996 486.46038847 375.8081996 485.29320804 375.81181233 C472.95583917 375.85093633 460.6188491 375.92187602 448.28170469 376.00464881 C435.61536621 376.08891922 422.94922563 376.138825 410.28261834 376.1570701 C402.47123093 376.16939764 394.6609143 376.2082787 386.84985665 376.28152185 C380.85240872 376.33488209 374.85587482 376.34034407 368.8581624 376.32824278 C366.40356603 376.33071395 363.94892823 376.34855303 361.49457407 376.38312292 C340.64075514 376.66238504 340.64075514 376.66238504 333.61576319 370.9434371 C332.17965525 369.42003249 330.76356219 367.87732225 329.37520838 366.31027365 C326.45215392 364.167307 323.39895415 362.27143632 320.31270838 360.37277365 C319.50543299 359.8711672 318.6981576 359.36956076 317.86641932 358.85275412 C304.783126 350.79464639 291.81818541 343.61293225 277.37520838 338.31027365 C263.43426036 333.11479466 263.43426036 333.11479466 257.37520838 329.31027365 C265.13314429 325.15423655 272.96748155 325.81365462 281.43770838 327.31027365 C292.5707859 329.12630757 305.37453489 330.51401094 315.37520838 324.31027365 C318.22503217 321.87413395 319.20900234 319.86879586 319.61348963 316.07589865 C319.82747754 308.82283462 318.29803935 304.63992264 313.55098963 299.23214865 C301.43495742 287.13726135 283.95367103 281.01518511 268.45162439 274.50827169 C261.13001845 271.36906845 256.82113114 268.97915779 252.37520838 262.31027365 C252.29615774 259.97827977 252.28722069 257.64194743 252.37520838 255.31027365 C253.10634851 255.3259841 253.83748865 255.34169455 254.59078455 255.35788107 C257.91467998 255.42037716 261.23845158 255.45931117 264.56270838 255.49777365 C265.71319666 255.52291037 266.86368494 255.54804708 268.0490365 255.57394552 C269.16085291 255.58361349 270.27266932 255.59328146 271.41817713 255.6032424 C272.94994593 255.62680807 272.94994593 255.62680807 274.51265955 255.65084982 C277.83573799 255.25548142 279.6827913 254.26177039 282.37520838 252.31027365 C284.83977809 248.71214813 284.56517873 245.8510517 283.97677088 241.67746115 C282.94923497 237.63404063 280.86219456 234.61031301 278.37520838 231.31027365 C277.98848963 230.75984396 277.60177088 230.20941427 277.20333338 229.6423049 C269.66246295 219.8438282 257.85138818 212.57460157 247.37520838 206.31027365 C250.62851997 203.79369853 254.00522064 201.72745532 257.57052088 199.6891799 C260.34825391 197.56679946 261.17205856 195.44127121 261.78145838 192.0485549 C262.05732504 184.9105049 260.1564145 180.58642865 255.37520838 175.31027365 C252.53774317 172.73025105 249.50684056 170.51915009 246.37520838 168.31027365 C238.80820158 162.90669304 232.22052522 157.58253548 226.37520838 150.31027365 C227.89780649 146.52944013 230.16665355 144.54302773 233.25020838 141.93527365 C238.25894989 137.51196945 241.54779612 134.39927942 243.31270838 127.81027365 C243.38833625 123.575113 242.92194431 121.70592155 240.37520838 118.31027365 C235.01620466 115.63077179 229.7038849 114.73559515 223.79317713 113.93527365 C221.11838888 113.24389058 220.10087558 112.42005946 218.37520838 110.31027365 C219.14606775 109.5626174 219.91692713 108.81496115 220.71114588 108.04464865 C221.72443194 107.05012714 222.73743812 106.05532042 223.75020838 105.06027365 C224.258099 104.56914083 224.76598963 104.07800802 225.28927088 103.5719924 C229.416132 99.49943208 231.17374876 97.12341021 231.81270838 91.37277365 C231.69446251 88.19787204 231.33945352 87.25355904 229.56270838 84.43527365 C225.70630063 81.86433515 222.65774973 81.51046996 218.09395838 81.1579299 C214.19168876 79.941274 212.30301862 77.78007908 210.37520838 74.31027365 C209.0181808 70.56380888 208.12190639 66.75730439 207.25020838 62.87277365 C206.99868006 61.80905539 206.74715174 60.74533712 206.48800135 59.64938498 C201.37520838 37.78498808 201.37520838 37.78498808 201.37520838 32.31027365 C194.02130692 31.79737805 194.02130692 31.79737805 187.37520838 34.31027365 C183.19502979 41.28573426 181.67925108 48.61436342 179.93770838 56.49777365 C174.11448404 82.81874763 174.11448404 82.81874763 168.37520838 87.31027365 C165.85177088 87.9001174 165.85177088 87.9001174 163.00020838 88.24777365 C158.43861936 89.00200464 155.3641641 89.52426307 152.37520838 93.31027365 C151.01875782 98.1775374 150.91917618 100.1801069 152.81270838 104.87277365 C155.59474659 109.10379009 159.45422313 112.17348545 163.37520838 115.31027365 C164.36520838 116.11464865 165.35520838 116.91902365 166.37520838 117.74777365 C167.03520838 118.26339865 167.69520838 118.77902365 168.37520838 119.31027365 C166.99533066 124.18351267 164.16408258 126.50991387 160.25020838 129.43527365 C159.63782312 129.90610373 159.02543787 130.3769338 158.39449549 130.86203146 C153.69137612 134.43486114 148.83368619 137.75944069 143.93770838 141.06027365 C133.92419919 147.59717519 133.92419919 147.59717519 127.37520838 157.31027365 C127.1606116 160.43568315 127.5207407 163.29744279 128.37520838 166.31027365 C133.25602409 171.74889687 139.75242987 172.53917298 146.75020838 172.93527365 C147.99544275 173.01003927 149.24067713 173.0848049 150.52364588 173.16183615 C151.4646615 173.21082052 152.40567713 173.2598049 153.37520838 173.31027365 C153.37520838 173.97027365 153.37520838 174.63027365 153.37520838 175.31027365 C152.15446619 175.77175802 150.933724 176.2332424 149.67598963 176.70871115 C138.83335934 180.94946286 130.13874204 185.67278062 121.37520838 193.31027365 C120.53473963 193.99089865 119.69427088 194.67152365 118.82833338 195.37277365 C112.71019508 200.46437867 106.93293963 206.63707988 104.37520838 214.31027365 C104.10957042 217.89638605 104.14867694 220.64578143 105.31270838 224.06027365 C108.86002955 227.93007857 113.83718946 229.07805524 118.98482752 229.54904318 C121.64221321 229.60351088 124.28096165 229.57379208 126.93770838 229.49777365 C127.85100916 229.48423849 128.76430994 229.47070333 129.7052865 229.45675802 C131.92924096 229.4218268 134.1518879 229.37278951 136.37520838 229.31027365 C136.01075735 236.47781062 136.01075735 236.47781062 133.26973963 240.06808615 C130.04297837 242.5676286 126.73257426 244.44457791 123.06270838 246.18527365 C122.36774256 246.52550558 121.67277674 246.86573751 120.95675135 247.21627951 C116.70348135 249.27500756 112.39799012 251.17478825 108.04439783 253.00998068 C100.83319678 256.0536191 94.524674 259.37524469 88.37520838 264.31027365 C87.64688807 264.87617208 86.91856775 265.44207052 86.16817713 266.0251174 C80.46894314 270.68812703 75.89147845 275.50278185 74.87520838 282.99777365 C75.41798452 286.59366557 76.05829204 288.51399531 78.37520838 291.31027365 C86.1027433 295.48731955 95.78989251 294.62854859 104.31270838 294.68527365 C105.35891855 294.69361227 105.35891855 294.69361227 106.42626429 294.70211935 C115.79976079 294.73995112 123.88124396 294.09381094 132.60177088 290.42746115 C136.44816565 288.87806832 139.29264285 288.82997182 143.37520838 289.31027365 C144.03520838 289.64027365 144.69520838 289.97027365 145.37520838 290.31027365 C144.60953031 296.90582598 140.28363591 300.23179527 135.37520838 304.31027365 C131.8189561 306.62865252 128.12822709 308.51928386 124.31270838 310.37277365 C123.29394617 310.88751242 122.27518396 311.40225119 121.22555017 311.9325881 C116.94210046 314.08969916 112.63501562 316.19394208 108.30489588 318.25558615 C75.98480829 333.73932379 28.98828952 357.90726395 10.43770838 389.62277365 C8.73969725 395.51587109 8.27934803 401.44886051 10.50020838 407.24777365 C13.95591053 411.04904602 17.15701058 413.52360056 22.37520838 413.87277365 C26.58732245 413.65800596 29.82322659 412.38932454 33.69942713 410.7751174 C40.99499387 408.10824258 47.3271612 407.86017676 55.1085763 408.21981955 C74.4854723 409.06282502 99.52942697 408.51274436 114.87520838 395.06027365 C119.2000259 391.31027365 119.2000259 391.31027365 121.37520838 391.31027365 C120.68696249 405.53402202 112.5660291 414.25335211 103.37520838 424.31027365 C102.69329432 425.07597677 102.01138025 425.8416799 101.30880213 426.63058615 C89.42338623 439.31178583 72.98256081 447.50326684 58.22684717 456.38380575 C31.98753919 472.18502702 15.54846113 488.87039305 7.93819666 518.92404318 C4.84670896 532.02733924 2.22290343 545.37864451 2.12520838 558.87277365 C2.10458338 559.58884787 2.08395838 560.30492208 2.06270838 561.04269552 C2.02519589 566.19597298 2.99004082 569.72701049 5.37520838 574.31027365 C8.65769434 577.0066014 12.27814017 576.66346918 16.37520838 576.31027365 C23.62526128 573.84217053 28.63597972 567.55081855 33.25020838 561.68527365 C40.16912688 553.47257364 51.01352277 549.69907766 61.37520838 548.31027365 C63.76855474 548.17550113 66.16011416 548.09420925 68.55611658 548.02096701 C88.13568899 547.39818224 102.65373078 543.54138804 119.37520838 533.31027365 C116.47372468 544.99910796 109.18073811 552.65595862 99.37520838 559.31027365 C93.6711477 562.51503504 87.6864871 565.19469574 81.75020838 567.93527365 C68.3103804 573.88669325 68.3103804 573.88669325 56.37520838 582.31027365 C55.44192713 583.12109396 54.50864588 583.93191427 53.54708338 584.7673049 C48.47736452 589.69801534 44.0148456 594.25327503 42.37520838 601.31027365 C42.37520838 605.51301292 42.65637772 607.42912639 45.31270838 610.68527365 C54.44621882 617.88137278 75.99849196 616.28403696 87.37520838 615.31027365 C100.55841202 613.6590441 112.77759222 608.56924217 123.70723963 601.06027365 C126.37520838 599.31027365 126.37520838 599.31027365 128.37520838 599.31027365 C128.93964766 608.52944859 124.91572158 615.23964099 119.37520838 622.31027365 C104.25956387 638.93405502 80.19539584 651.42724501 60.37520838 661.49777365 C52.24041311 665.66226212 45.26911286 670.2803572 38.37520838 676.31027365 C37.85346033 676.76627951 37.33171228 677.22228537 36.79415369 677.69210958 C27.20972448 686.22266142 17.71998799 697.51710743 16.07442713 710.72433615 C16.04290512 715.44680297 16.04290512 715.44680297 17.68770838 719.81027365 C21.17343113 722.90869387 24.93673897 722.57108612 29.37520838 722.31027365 C32.67051354 721.24941558 32.67051354 721.24941558 35.93770838 719.81027365 C48.28613369 715.26698509 59.16972969 717.45104177 71.73263025 719.80709982 C79.96138488 721.32990956 88.01217065 722.06751493 96.37520838 722.31027365 C96.1454964 724.85524053 95.89222429 727.39417225 95.62520838 729.93527365 C95.53239588 731.00455099 95.53239588 731.00455099 95.43770838 732.0954299 C94.88671104 737.10032234 93.69445238 740.3482183 90.37520838 744.31027365 C88.20333338 745.85714865 88.20333338 745.85714865 85.62520838 747.06027365 C84.58880213 747.54496115 83.55239588 748.02964865 82.48458338 748.52902365 C74.00099593 752.25438671 65.42118437 755.76242893 56.84200525 759.26046896 C54.4415605 760.24173384 54.4415605 760.24173384 52.47866011 761.31080675 C37.12497954 768.60619426 15.695096 768.61826132 -0.93729162 769.87277365 C-2.22053572 769.97068197 -3.50377981 770.0685903 -4.82591009 770.16946554 C-39.25744006 772.47434969 -65.70685067 766.50072524 -92.21291113 743.69404745 C-106.60038658 731.02154411 -119.9568357 717.34663045 -132.99979162 703.31027365 C-133.65444293 702.60719784 -134.30909423 701.90412204 -134.98358345 701.17974091 C-150.83329345 684.13573328 -166.17437497 666.68707124 -181.05261755 648.79000998 C-182.57603645 646.96289812 -184.10001824 645.1362553 -185.62479162 643.31027365 C-186.17639582 642.64490591 -186.72800001 641.97953817 -187.29631948 641.29400778 C-187.81436525 640.68408987 -188.33241102 640.07417196 -188.86615515 639.44577169 C-189.37176222 638.85042305 -189.87736929 638.2550744 -190.39829779 637.64168489 C-192.20625519 635.74853246 -193.97651508 634.16446404 -195.99231935 632.51421225 C-201.96691631 627.44236142 -207.15755681 622.83420683 -208.23155977 614.76493715 C-208.50009654 610.58145504 -208.47049083 606.43330045 -208.38910437 602.24408102 C-208.40382833 600.34308742 -208.4246568 598.44213309 -208.45100963 596.54126513 C-208.50530215 591.35008615 -208.47297993 586.16260022 -208.42561889 580.97148824 C-208.38970045 575.36115617 -208.43471035 569.75137515 -208.46918249 564.14111471 C-208.52363503 553.16426212 -208.5029106 542.18879212 -208.45535548 531.21195637 C-208.41822448 522.28971108 -208.40927116 513.36784378 -208.42033529 504.44553137 C-208.42190311 503.17422673 -208.42347093 501.90292209 -208.42508625 500.59309307 C-208.42841791 498.01024323 -208.43182548 495.42739348 -208.43530814 492.84454383 C-208.46401977 469.33370367 -208.41530088 445.82377129 -208.33287729 422.31313386 C-208.25816064 400.86835962 -208.24995826 379.42454916 -208.29910803 357.97970724 C-208.35411104 333.86132743 -208.37051955 309.74356798 -208.32323825 285.62511027 C-208.31827541 283.05253505 -208.31334847 280.47995976 -208.30845785 277.9073844 C-208.30479593 276.00887587 -208.30479593 276.00887587 -208.30106003 274.07201364 C-208.28640679 265.16165817 -208.29882491 256.25157597 -208.32146597 247.34124517 C-208.34817103 236.48074264 -208.33155648 225.62131748 -208.25999291 214.76100145 C-208.22452472 209.22177999 -208.208026 203.68427311 -208.24367285 198.14501333 C-208.27576181 193.06983469 -208.25206774 187.99803005 -208.18460028 182.92322649 C-208.16985618 181.09172965 -208.1751299 179.25993414 -208.20289274 177.42858838 C-208.31960997 169.04880624 -208.37889746 162.31981243 -202.43080809 155.93107916 C-199.93962988 153.5528352 -197.34212279 151.42987977 -194.62479162 149.31027365 C-193.21253979 148.07753253 -191.80457487 146.83980674 -190.40604162 145.59152365 C-189.47018225 144.79294943 -189.47018225 144.79294943 -188.51541662 143.9782424 C-184.87800716 140.76920553 -181.52208808 137.26945165 -178.12479162 133.81027365 C-174.07530699 129.68702791 -170.04120214 125.61015664 -165.65604162 121.84152365 C-161.07300502 117.89839972 -156.86139073 113.61916967 -152.62479162 109.31027365 C-147.77838758 104.38116647 -142.89481544 99.62055154 -137.65213537 95.11496115 C-133.80481105 91.69017534 -130.23464477 87.98172838 -126.62479162 84.31027365 C-121.76832816 79.37093538 -116.87457386 74.59876224 -111.62088537 70.08371115 C-107.95683674 66.82837244 -104.55774119 63.30575417 -101.12479162 59.81027365 C-97.07530699 55.68702791 -93.04120214 51.61015664 -88.65604162 47.84152365 C-84.07300502 43.89839972 -79.86139073 39.61916967 -75.62479162 35.31027365 C-74.10651556 33.76608844 -72.58570428 32.22439159 -71.06229162 30.68527365 C-70.07035803 29.67593771 -70.07035803 29.67593771 -69.05838537 28.64621115 C-67.69791303 27.3403324 -66.31343388 26.05518437 -64.85469854 24.86007118 C-61.1921023 21.83824428 -58.2645235 19.00507441 -55.70629072 14.98861074 C-42.81400007 -3.71739304 -20.2521561 -0.15764201 0 0 Z " fill="#000000" transform="translate(260.62479162216187,53.68972635269165)"/>
<path d="M0 0 C42.52197671 -5.99788628 82.38304823 -7.57781299 118.09741807 19.23101676 C131.90589646 29.88085984 144.54486409 41.62983035 156.85505587 53.96049777 C159.16752877 56.26512021 161.50083629 58.54666077 163.84024 60.8239181 C217.75542352 113.50210506 238.00647502 164.65489035 239.14935704 239.73130176 C239.51686637 274.12151901 238.23315843 308.38390547 236.12107429 342.7033544 C234.94937738 361.75004104 234.1704949 380.77432155 233.72607422 399.85180664 C233.69638045 401.12225584 233.66668668 402.39270505 233.63609309 403.70165271 C233.51788878 408.81285171 233.40178961 413.92409243 233.28853778 419.03540361 C232.42338814 457.83737407 231.26271287 496.65484068 229.04976654 535.40543938 C228.82222883 539.41013516 228.62202644 543.41462735 228.4472847 547.42196655 C228.24404028 552.0382503 227.98092034 556.64715908 227.66969208 561.25738769 C227.56685886 562.9177534 227.48408867 564.57951852 227.4241894 566.24198688 C227.11560042 574.4113838 226.45056941 580.32553292 220.40618368 586.2254309 C218.19362487 588.17556127 215.91163863 590.00003785 213.55853777 591.77710467 C211.28962874 593.55738765 209.30085486 595.57931819 207.29296875 597.64453125 C206.60396484 598.34126953 205.91496094 599.03800781 205.20507812 599.75585938 C204.53927734 600.43455078 203.87347656 601.11324219 203.1875 601.8125 C199.24798151 605.82613925 195.31767113 609.7814867 191.05078125 613.44921875 C186.46212267 617.39992406 182.24306867 621.68452401 178 626 C169.57808043 634.56563834 169.57808043 634.56563834 165.03125 638.46875 C160.26833486 642.56202757 155.90285874 647.02646937 151.5 651.5 C146.48072491 656.59984131 141.43954375 661.55183483 136.00976562 666.21289062 C132.1669081 669.63000884 128.60391313 673.33458665 125 677 C116.57808043 685.56563834 116.57808043 685.56563834 112.03125 689.46875 C107.26833486 693.56202757 102.90285874 698.02646937 98.5 702.5 C93.48642429 707.59405044 88.45128936 712.54002984 83.02734375 717.1953125 C79.09243762 720.69806131 75.44275272 724.4957014 71.75 728.25 C70.18468099 729.84089612 68.61705731 731.42952868 67.046875 733.015625 C66.36463867 733.70946289 65.68240234 734.40330078 64.97949219 735.11816406 C61.34174806 738.57644375 59.174459 740.37400531 54.02636719 740.38818359 C53.03723328 740.39764008 52.04809937 740.40709656 51.0289917 740.4168396 C49.96239319 740.41076691 48.89579468 740.40469421 47.796875 740.3984375 C46.68628723 740.40130768 45.57569946 740.40417786 44.43145752 740.40713501 C42.07441704 740.40917772 39.71735968 740.40363348 37.36035156 740.39111328 C33.80493618 740.37524518 30.25068958 740.39086044 26.6953125 740.41015625 C10.99772811 740.4260271 -3.64549153 739.62022352 -18.4375 733.875 C-19.61300415 733.42713135 -19.61300415 733.42713135 -20.81225586 732.97021484 C-35.9712623 727.01505407 -48.02626865 719.86213521 -58.93774414 707.6027832 C-67.79962825 697.67388481 -77.70627018 690.64942579 -89.125 683.9375 C-110.01934075 671.65403067 -123.62572144 655.8174026 -130 632 C-133.7754439 616.33802686 -133.39816498 600.5092459 -133.30418181 584.51062346 C-133.28517803 580.71906413 -133.28364621 576.92749438 -133.28010559 573.13589478 C-133.27085364 565.985943 -133.24633475 558.83613205 -133.21605712 551.68624175 C-133.18229716 543.53364152 -133.16597333 535.38103387 -133.15097082 527.22838092 C-133.11977738 510.4855054 -133.06715328 493.74277079 -133 477 C-129.30878227 478.41087564 -126.51596719 479.9693763 -123.375 482.375 C-115.67126656 487.90234238 -106.6597807 491.23419632 -97.11230469 491.03417969 C-96.1665155 491.0179657 -95.22072632 491.00175171 -94.24627686 490.98504639 C-92.72444794 490.95377655 -92.72444794 490.95377655 -91.171875 490.921875 C-88.98699449 490.89457797 -86.80209744 490.86857989 -84.6171875 490.84375 C-81.20103647 490.80086537 -77.78576487 490.75076469 -74.37011719 490.67773438 C-40.64681315 489.9889012 -17.60169391 503.74506021 9.6875 522.1875 C26.80922166 534.75976383 26.80922166 534.75976383 46.6875 538.75 C47.41324219 538.66234375 48.13898438 538.5746875 48.88671875 538.484375 C53.10189083 537.51823574 54.71355276 536.40580026 57.25 532.8125 C65.35188406 514.73658338 53.25805251 488.18679862 47 471 C46.71366699 470.21012695 46.42733398 469.42025391 46.13232422 468.60644531 C42.61279672 459.06693788 38.67608914 450.81558226 32 443 C31.48179687 442.38253906 30.96359375 441.76507812 30.4296875 441.12890625 C22.08625258 432.05175217 10.76478431 425.58531529 -0.0390625 419.88671875 C-4.28077282 417.1838875 -6.45347618 414.42096194 -8.25 409.75 C-7.9108718 404.66307702 -5.65557236 403.07552758 -2.21484375 399.5078125 C3.84169976 392.6501389 7.06703353 384.93558906 6.50390625 375.7578125 C5.49505084 370.23647979 3.26902429 366.90935508 -0.99609375 363.3203125 C-9.99145048 357.22227977 -21.04153289 355.60699843 -31.57543945 353.91381836 C-48.06111027 351.250421 -63.7785431 344.34842127 -73.828125 330.4765625 C-77.06369488 325.50661057 -77.06369488 325.50661057 -78 323 C-77.14452731 320.47596481 -76.54975407 319.29808166 -74.1809082 318.01367188 C-67.22899162 316.28594915 -63.29147711 318.12100233 -57.1875 321.5 C-37.58560128 331.5239151 -8.86517454 341.09228609 13.3125 335 C14.199375 334.67 15.08625 334.34 16 334 C17.93613495 327.97646905 18.12599077 324.02364052 16 318 C15.66742187 316.99582031 15.33484375 315.99164062 14.9921875 314.95703125 C12.31730659 307.40182128 8.94556708 301.28522408 4 295 C3.56300781 294.38769531 3.12601563 293.77539062 2.67578125 293.14453125 C-5.00070875 283.07057891 -17.63693694 277.3191026 -28.82714844 272.03125 C-31.07323398 270.96524266 -33.3064788 269.87522551 -35.5390625 268.78125 C-44.6743184 264.34129459 -53.86416004 260.29988643 -63.41503906 256.82617188 C-69.35436386 254.57859739 -72.74069368 251.726749 -76.8125 246.8125 C-78.59259451 242.59648669 -78.23665462 238.51396782 -78 234 C-77.48953125 234.36351562 -76.9790625 234.72703125 -76.453125 235.1015625 C-61.93700071 245.13930802 -50.10282558 248.25329264 -32.70703125 248.47851562 C-24.24303173 248.69787339 -19.06665928 250.5416981 -11.875 255.0625 C-5.68402849 258.94916423 -0.37723441 261.20063489 7 260 C10.32844113 258.50687659 10.32844113 258.50687659 12 255 C15.07207457 237.6846706 4.36076601 215.687545 -5.125 201.5859375 C-17.03269939 185.16323542 -31.05589663 174.97274526 -48.9375 165.875 C-98.93394454 140.31832378 -98.93394454 140.31832378 -108 121 C-101.36121425 123.17477464 -94.79341035 125.50908287 -88.234375 127.9140625 C-82.69687176 129.77327252 -77.63506287 130.19264077 -71.8125 130.1875 C-71.05219482 130.18814453 -70.29188965 130.18878906 -69.50854492 130.18945312 C-64.65135786 130.14387977 -60.26364274 129.58861061 -55.53515625 128.453125 C-47.81651701 127.0735223 -40.35746621 127.40324722 -33 130 C-28.34975005 130.67668612 -24.28288862 130.48424164 -20.0625 128.3125 C-16.77121879 125.82724684 -15.7127878 125.00943138 -15 121 C-14.39725679 113.89624075 -17.21097469 109.23988811 -21.5078125 103.765625 C-34.16810682 89.71627018 -50.98713387 81.76471179 -67.8605957 74 C-82.66630845 67.16068575 -95.23331248 59.11004445 -102.41796875 43.79296875 C-103.24574108 41.24298554 -102.97201719 39.46742825 -102 37 C-101.67 36.67 -101.34 36.34 -101 36 C-93.24910264 36.18904628 -86.95666484 38.75314278 -79.86953735 41.74755859 C-76.56256618 43.14245282 -73.2392854 44.49695613 -69.9140625 45.84765625 C-69.24657486 46.11901398 -68.57908722 46.3903717 -67.89137268 46.66995239 C-59.81215483 49.92433047 -51.56008455 52.62184674 -43.26953125 55.28125 C-35.54834842 57.76958646 -27.92504101 60.29697533 -20.75 64.125 C-12.20372888 68.46387611 -3.34857024 71.04055202 6.22265625 68.3828125 C9.52455887 66.79846008 11.47946959 64.7437982 13 61.5 C17.90908385 44.59434249 8.17718927 18.9614358 1.42431641 3.30273438 C0.71927979 1.66788086 0.71927979 1.66788086 0 0 Z " fill="#000000" transform="translate(632,573)"/>
<path d="M0 0 C0.86190041 -0.00671255 1.72380081 -0.01342511 2.61181942 -0.02034107 C5.52002034 -0.03804384 8.42741753 -0.02708142 11.33564281 -0.01637745 C13.43363569 -0.02313022 15.53162357 -0.03161882 17.62960309 -0.04170066 C23.41052187 -0.0643017 29.19120191 -0.06175138 34.97215116 -0.05513132 C41.2006622 -0.0522655 47.42910533 -0.07228803 53.65758801 -0.08928394 C65.86627932 -0.11869206 78.07486015 -0.12596377 90.28357784 -0.12470844 C100.20429603 -0.12379564 110.12498869 -0.12966403 120.04570103 -0.14033413 C121.47004027 -0.14183239 122.89437951 -0.14332642 124.31871876 -0.14481625 C125.02573619 -0.14555608 125.73275362 -0.1462959 126.46119582 -0.14705815 C127.52364413 -0.14816877 127.52364413 -0.14816877 128.60755605 -0.14930183 C129.31702469 -0.15004687 130.02649333 -0.15079191 130.75746103 -0.15155952 C150.71831933 -0.17230335 170.67916836 -0.18452363 190.64003754 -0.17946625 C191.76929046 -0.17918495 191.76929046 -0.17918495 192.92135656 -0.17889796 C196.73718112 -0.17792594 200.55300565 -0.17688209 204.36883018 -0.17581525 C205.12668873 -0.17560427 205.88454728 -0.17539329 206.66537124 -0.17517592 C208.19794659 -0.17474839 209.73052194 -0.17431626 211.26309729 -0.17387955 C235.10931135 -0.16729688 258.95533985 -0.19023918 282.8015089 -0.23605824 C309.58249735 -0.28747922 336.36336694 -0.31543592 363.14440793 -0.30955631 C365.99930266 -0.30901168 368.85419739 -0.30855273 371.70909214 -0.30815029 C372.41205777 -0.30803625 373.1150234 -0.30792221 373.83929103 -0.30780471 C384.45809897 -0.30658025 395.07677486 -0.32388117 405.69554615 -0.35062695 C417.77116219 -0.38103356 429.84643112 -0.38656096 441.92208711 -0.36081793 C448.08606494 -0.34836454 454.24949706 -0.34729309 460.41343021 -0.37652683 C466.05345126 -0.4029866 471.69248069 -0.39729459 477.33246686 -0.36569688 C479.37552918 -0.35994793 481.41866573 -0.36608917 483.46164719 -0.3851529 C486.23521045 -0.40929057 489.00528344 -0.39045948 491.77871704 -0.36076355 C492.57579639 -0.37800926 493.37287573 -0.39525496 494.19410899 -0.41302326 C498.88836742 -0.3073466 501.13404523 0.59898274 504.49685735 3.94872254 C505.53452209 5.12716659 506.56312666 6.31371839 507.57812023 7.5117445 C508.84301492 8.64485481 510.12074366 9.76418005 511.42187023 10.8554945 C517.09306542 15.75086144 522.26006675 21.14845741 527.51171398 26.48440075 C531.1074825 30.11513622 534.69958979 33.68231807 538.57812023 37.0117445 C544.2062478 41.84306836 549.31248621 47.20171828 554.51171398 52.48440075 C558.73273434 56.7464683 563.01780414 60.81833008 567.56835461 64.72463512 C572.22153873 68.86230613 576.50360386 73.40182682 580.86718273 77.8398695 C584.3342441 81.34267377 587.80616625 84.76938171 591.54687023 87.9804945 C597.18356654 92.82470479 602.30199161 98.19105522 607.51171398 103.48440075 C611.73273434 107.7464683 616.01780414 111.81833008 620.56835461 115.72463512 C625.22153873 119.86230613 629.50360386 124.40182682 633.86718273 128.8398695 C637.3342441 132.34267377 640.80616625 135.76938171 644.54687023 138.9804945 C650.18356654 143.82470479 655.30199161 149.19105522 660.51171398 154.48440075 C661.30706554 155.28748669 662.10241711 156.09057262 662.92187023 156.9179945 C663.62505383 157.63277966 664.32823742 158.34756481 665.05272961 159.08401012 C667.05090367 161.00491528 669.06861912 162.85397129 671.1501894 164.68166065 C671.8586294 165.30374637 672.5670694 165.92583209 673.29697728 166.56676888 C675.56042222 168.49665461 677.8857144 170.32393158 680.22502995 172.16059971 C688.39381622 178.94537541 694.35541016 184.98117402 695.57208943 195.86648488 C695.87872349 201.98032703 695.78106179 208.0496982 695.62157726 214.16652966 C695.60641158 216.91800784 695.61857803 219.66921358 695.62954235 222.4206953 C695.63891411 228.31016068 695.58317543 234.19599606 695.48126125 240.084548 C695.3340251 248.59739385 695.28800257 257.10851149 695.2654774 265.62249236 C695.22622656 279.43975801 695.10684205 293.25509465 694.93603039 307.07131481 C694.77042614 320.48039891 694.64341214 333.88895359 694.56688976 347.29885387 C694.56206581 348.13591326 694.55724186 348.97297266 694.55227172 349.83539748 C694.51483501 356.38321346 694.47961287 362.93104086 694.44508958 369.47887278 C694.27573791 401.49160142 693.91352217 433.49949269 693.57812023 465.5117445 C609.75812023 465.5117445 525.93812023 465.5117445 439.57812023 465.5117445 C439.57812023 469.4717445 439.57812023 473.4317445 439.57812023 477.5117445 C437.06256928 484.55528716 433.02469253 489.34413329 426.23827648 492.6523695 C423.19483184 493.63556748 420.6503194 493.84746687 417.45312023 493.8867445 C416.41929211 493.91510387 415.38546398 493.94346325 414.32030773 493.972682 C410.9345408 493.55564599 408.82487044 492.86342893 405.72655773 491.582057 C398.85283834 488.94839873 391.9372389 488.59848199 384.672328 488.15594006 C380.68620902 487.9107482 376.70440485 487.61205096 372.72265148 487.30471325 C371.54479832 487.21391743 371.54479832 487.21391743 370.34315014 487.12128735 C360.93583893 486.35468092 351.69658534 484.73978297 342.45873547 482.83132458 C340.4031162 482.42797847 340.4031162 482.42797847 337.57812023 482.5117445 C346.66267999 493.5515903 357.0604049 501.71360231 369.25198078 509.05009556 C371.57812023 510.5117445 371.57812023 510.5117445 373.77890873 512.15210438 C378.34583633 515.36272255 381.48863978 517.0418231 387.11696911 516.1407423 C389.16778459 515.63786196 391.21733902 515.12983005 393.26610851 514.61867809 C441.51529959 503.40748955 498.4308594 499.63631226 542.22532094 526.5613426 C567.54860595 542.75489293 589.75466363 562.98185155 611.17557943 583.94060957 C613.98093874 586.67971554 616.80270608 589.40105188 619.6269989 592.12061882 C680.00141149 650.53026918 709.1540832 707.9058326 710.59345696 793.9910581 C711.03257804 831.19276254 709.57506941 868.23735489 707.08010428 905.33983053 C705.69886666 925.89270353 704.8043875 946.41450429 704.31542492 967.00783825 C704.29898979 967.69423931 704.28255466 968.38064037 704.26562149 969.08784147 C704.11707776 975.3028888 703.97238141 981.5180221 703.83144377 987.73324646 C702.8745593 1029.65493811 701.56894872 1071.61262164 698.91356182 1113.46298885 C698.64230761 1117.77534838 698.41291512 1122.08647531 698.22321606 1126.4031744 C696.53103901 1163.82481466 696.53103901 1163.82481466 683.76958752 1175.7919569 C681.25569722 1177.91030766 678.71121505 1179.87591117 676.02422667 1181.76889277 C670.63751489 1185.60692689 665.77142529 1190.17469725 661.14062023 1194.8867445 C660.39038586 1195.64471325 659.64015148 1196.402682 658.86718273 1197.1836195 C657.73409679 1198.33604137 657.73409679 1198.33604137 656.57812023 1199.5117445 C648.15620066 1208.07738284 648.15620066 1208.07738284 643.60937023 1211.9804945 C638.84645509 1216.07377207 634.48097897 1220.53821387 630.07812023 1225.0117445 C625.06891554 1230.10135376 620.03789242 1235.04179051 614.61913586 1239.69338512 C610.59315129 1243.28017137 606.85890525 1247.17027272 603.07812023 1251.0117445 C598.05884514 1256.11158581 593.01766398 1261.06357933 587.58788586 1265.72463512 C583.74502833 1269.14175334 580.18203336 1272.84633115 576.57812023 1276.5117445 C568.15620066 1285.07738284 568.15620066 1285.07738284 563.60937023 1288.9804945 C558.84645509 1293.07377207 554.48097897 1297.53821387 550.07812023 1302.0117445 C545.06891554 1307.10135376 540.03789242 1312.04179051 534.61913586 1316.69338512 C530.59315129 1320.28017137 526.85890525 1324.17027272 523.07812023 1328.0117445 C518.02885987 1333.14205237 512.98358539 1338.17774003 507.48241711 1342.82619762 C505.43299689 1344.54811013 505.43299689 1344.54811013 503.49211216 1347.07636917 C499.72499694 1350.22474422 496.74578258 1350.21860107 492.04995251 1350.1632967 C491.18869583 1350.17296068 490.32743916 1350.18262465 489.4400838 1350.19258147 C486.53992185 1350.21895203 483.6409699 1350.20960287 480.74071789 1350.20049572 C478.64613169 1350.21198068 476.55155639 1350.22562081 474.45699692 1350.24123657 C468.68991349 1350.27773411 462.92316133 1350.28278202 457.15597796 1350.28264022 C450.94027956 1350.28778078 444.72472523 1350.32145121 438.50910473 1350.351161 C425.61962036 1350.40740324 412.73027989 1350.43082403 399.84069647 1350.44455533 C399.13999308 1350.44530417 398.43928969 1350.44605302 397.71735287 1350.44682455 C397.0152381 1350.44756992 396.31312334 1350.4483153 395.58973237 1350.44908326 C387.80957365 1350.45781804 380.02943668 1350.474955 372.24929333 1350.4923315 C348.74785607 1350.54388094 325.246441 1350.58696491 301.74494457 1350.59595966 C300.99312662 1350.59625743 300.24130867 1350.59655519 299.46670835 1350.59686197 C296.41992357 1350.59806386 293.37313878 1350.59923176 290.32635398 1350.60039395 C288.03316017 1350.60127083 285.73996637 1350.6021613 283.44677258 1350.60305309 C282.68901194 1350.60333853 281.93125131 1350.60362397 281.15052824 1350.60391805 C256.58712728 1350.61354262 232.024309 1350.67809749 207.46111238 1350.77627375 C181.48593458 1350.87990329 155.51108494 1350.93646762 129.53569317 1350.93824661 C126.68295315 1350.9386117 123.83021322 1350.93916057 120.97747326 1350.93984127 C120.27505867 1350.93998527 119.57264407 1350.94012926 118.84894419 1350.94027763 C107.55499828 1350.94366514 96.26160784 1350.98946995 84.96784271 1351.05036697 C73.6101889 1351.11048935 62.25348077 1351.12096293 50.89564842 1351.08482839 C44.74458551 1351.0665764 38.59542934 1351.06924901 32.44458485 1351.12870693 C26.80905278 1351.18266655 21.17688313 1351.17620586 15.54137969 1351.12236653 C13.50696416 1351.11342574 11.47230638 1351.12629681 9.43821359 1351.16361977 C-7.31343129 1351.45117081 -7.31343129 1351.45117081 -14.2734012 1344.92976236 C-16.37263916 1342.70970725 -18.3164358 1340.40688305 -20.2008723 1338.00285803 C-21.81290271 1336.03422114 -23.6435056 1334.43187445 -25.60937977 1332.8242445 C-31.41885625 1327.87949093 -36.65060198 1322.32501135 -42.00000477 1316.894557 C-45.71405824 1313.14632512 -49.41471329 1309.44760813 -53.42187977 1306.0117445 C-59.28154932 1300.98748968 -64.58724785 1295.38932538 -70.00000477 1289.894557 C-73.71405824 1286.14632512 -77.41471329 1282.44760813 -81.42187977 1279.0117445 C-87.28154932 1273.98748968 -92.58724785 1268.38932538 -98.00000477 1262.894557 C-101.71405824 1259.14632512 -105.41471329 1255.44760813 -109.42187977 1252.0117445 C-115.28154932 1246.98748968 -120.58724785 1241.38932538 -126.00000477 1235.894557 C-130.33577241 1231.51888966 -134.7231265 1227.32128044 -139.39844227 1223.31252575 C-144.28062793 1218.96756901 -148.77307479 1214.19504073 -153.35547352 1209.53908825 C-156.94094036 1205.91875463 -160.52129869 1202.36067396 -164.39062977 1199.0429945 C-170.25875337 1194.00565211 -175.57671339 1188.40001946 -181.00000477 1182.894557 C-185.37659575 1178.47769064 -189.78153936 1174.19090376 -194.53516102 1170.17971325 C-195.15777821 1169.62928356 -195.78039539 1169.07885387 -196.42187977 1168.5117445 C-197.2733921 1167.86519311 -198.12490442 1167.21864172 -199.00222015 1166.55249786 C-202.48403019 1162.17695449 -202.10393089 1158.63436258 -202.02315235 1153.19172192 C-202.02743244 1152.14459026 -202.03171253 1151.09745861 -202.03612232 1150.0185957 C-202.04440863 1146.493339 -202.01676701 1142.96926597 -201.98950672 1139.44411755 C-201.98797534 1136.88035813 -201.98864201 1134.3165966 -201.99133301 1131.75283813 C-201.99234851 1125.57610894 -201.97091012 1119.39981823 -201.93882636 1113.22318383 C-201.90282455 1106.0783533 -201.89885257 1098.93364993 -201.89490223 1091.78872204 C-201.86865109 1072.92550524 -201.79884548 1054.06236941 -201.73437977 1035.1992445 C-201.63125477 993.0623695 -201.52812977 950.9254945 -201.42187977 907.5117445 C-116.94187977 907.5117445 -32.46187977 907.5117445 54.57812023 907.5117445 C54.90812023 905.8617445 55.23812023 904.2117445 55.57812023 902.5117445 C60.70519066 893.24357872 68.13514531 889.5019339 77.57812023 885.5117445 C81.3346776 883.89461623 81.3346776 883.89461623 84.57812023 881.5117445 C83.76657482 881.52745495 82.95502941 881.5431654 82.11889172 881.55935192 C78.41787299 881.62197357 74.71696606 881.66082222 71.01562023 881.6992445 C69.73880383 881.72438122 68.46198742 881.74951794 67.14647961 881.77541637 C57.9201747 881.84730966 51.4522651 881.1949409 44.57812023 874.5117445 C40.6256038 869.05999769 41.09319707 862.97427816 41.57812023 856.5117445 C41.90812023 855.5217445 42.23812023 854.5317445 42.57812023 853.5117445 C41.80800476 853.64873471 41.03788929 853.78572492 40.24443698 853.92686635 C1.79798628 860.38271008 -31.80802854 858.25775644 -64.4278786 835.40471972 C-84.10090615 821.19979647 -101.9321266 804.842549 -119.2490536 787.89591935 C-122.04771581 785.16364267 -124.86403714 782.45060469 -127.68338013 779.73968768 C-188.41089285 721.06374474 -216.54235887 662.85993272 -218.06447315 576.70858669 C-218.14591684 571.22253714 -218.17630524 565.73662279 -218.18750477 560.25002575 C-218.18911085 559.57018752 -218.19071694 558.89034929 -218.1923717 558.1899099 C-218.2524353 523.96611414 -216.67483238 489.85652065 -214.46003908 455.71281491 C-213.05870982 434.10157213 -212.12055285 412.51623079 -211.57617664 390.86648083 C-211.5578916 390.1448145 -211.53960655 389.42314818 -211.52076741 388.67961317 C-211.35553183 382.14637383 -211.19453219 375.61303495 -211.03811611 369.07957854 C-209.98021372 325.04099156 -208.55957984 280.9902805 -205.94727421 237.01476383 C-205.67819486 232.47159232 -205.43609831 227.92833756 -205.21907902 223.38238811 C-204.96701624 218.1490676 -204.6549301 212.92286932 -204.29404113 207.69595554 C-204.17306883 205.81166022 -204.0720989 203.9259458 -203.99371746 202.03939883 C-203.61967939 193.3688375 -203.23620814 186.45771484 -196.80560277 180.13434903 C-194.11327196 177.77465952 -191.29158653 175.65317902 -188.42187977 173.5117445 C-186.89787124 172.06533936 -185.39419362 170.59637768 -183.93359852 169.08596325 C-183.2897118 168.43434216 -182.64582508 167.78272106 -181.98242664 167.11135387 C-181.36432117 166.48035778 -180.74621571 165.84936169 -180.10937977 165.1992445 C-176.33660482 161.35017481 -172.55978492 157.57968 -168.47266102 154.06252575 C-164.06370245 150.26236467 -159.99846053 146.16257992 -155.92187977 142.0117445 C-151.87239513 137.88849876 -147.83829028 133.8116275 -143.45312977 130.0429945 C-138.87009316 126.09987058 -134.65847888 121.82064052 -130.42187977 117.5117445 C-125.56541631 112.57240623 -120.671662 107.80023309 -115.41797352 103.285182 C-111.75392489 100.02984329 -108.35482933 96.50722502 -104.92187977 93.0117445 C-100.23860753 88.24316676 -95.50221625 83.66198484 -90.43555164 79.30276012 C-86.76698423 76.0398345 -83.36075378 72.51325738 -79.92187977 69.0117445 C-75.87239513 64.88849876 -71.83829028 60.8116275 -67.45312977 57.0429945 C-62.87009316 53.09987058 -58.65847888 48.82064052 -54.42187977 44.5117445 C-49.56541631 39.57240623 -44.671662 34.80023309 -39.41797352 30.285182 C-35.75392489 27.02984329 -32.35482933 23.50722502 -28.92187977 20.0117445 C-24.18602519 15.18962663 -19.41530425 10.51447894 -14.26367664 6.13479137 C-12.34479896 4.54879722 -12.34479896 4.54879722 -10.83313495 2.4422881 C-7.40546147 -0.30203907 -4.20556016 -0.04449333 0 0 Z M-13.92896545 39.38277853 C-16.50751445 43.05991058 -19.96742542 45.69153872 -23.42187977 48.5117445 C-24.84715356 49.87758235 -26.25776848 51.25923154 -27.64062977 52.6679945 C-28.34574696 53.38084606 -29.05086414 54.09369762 -29.77734852 54.82815075 C-30.48504383 55.54873669 -31.19273914 56.26932262 -31.92187977 57.0117445 C-35.97136441 61.13499024 -40.00546925 65.2118615 -44.39062977 68.9804945 C-48.97366637 72.92361842 -53.18528066 77.20284848 -57.42187977 81.5117445 C-62.27834323 86.45108276 -67.17209753 91.2232559 -72.42578602 95.738307 C-76.08983465 98.99364571 -79.4889302 102.51626398 -82.92187977 106.0117445 C-86.97136441 110.13499024 -91.00546925 114.2118615 -95.39062977 117.9804945 C-99.97366637 121.92361842 -104.18528066 126.20284848 -108.42187977 130.5117445 C-113.26828381 135.44085168 -118.15185595 140.20146661 -123.39453602 144.707057 C-127.24186034 148.13184281 -130.81202662 151.84028976 -134.42187977 155.5117445 C-139.27834323 160.45108276 -144.17209753 165.2232559 -149.42578602 169.738307 C-153.08983465 172.99364571 -156.4889302 176.51626398 -159.92187977 180.0117445 C-164.75395065 184.93183124 -169.63776618 189.68912092 -174.87305164 194.18166637 C-177.33962531 196.15637696 -177.33962531 196.15637696 -177.72328109 199.52369016 C-177.81221394 200.90538954 -177.89565452 202.28744795 -177.97509766 203.66972542 C-178.02238936 204.43178402 -178.06968106 205.19384263 -178.11840585 205.97899392 C-178.27707379 208.56651793 -178.42814211 211.15441795 -178.57841969 213.74244213 C-178.68902133 215.60520603 -178.79963951 217.46796896 -178.9102729 219.33073097 C-179.2774359 225.57332664 -179.62919316 231.81675387 -179.97925282 238.06032848 C-180.04054595 239.1452625 -180.10183909 240.23019652 -180.16498959 241.34800732 C-182.60836245 284.6804894 -184.1939182 328.03123059 -185.36965792 371.41452637 C-185.55895155 378.39364904 -185.75584588 385.37254789 -185.95679188 392.35134411 C-185.97664589 393.04545913 -185.9964999 393.73957416 -186.01695554 394.45472298 C-186.59503342 414.55048917 -187.53980791 434.59501372 -188.83278824 454.65714784 C-200.30398009 604.97184201 -200.30398009 604.97184201 -135.96669579 735.70910645 C-127.01663096 745.71920322 -117.56769319 755.20047183 -107.93717578 764.55198255 C-105.39891048 767.0273965 -102.88406457 769.52452553 -100.37432933 772.02883315 C-67.03918099 805.17438724 -34.79263808 832.15219282 14.01470184 832.63016701 C31.3017782 832.54340732 48.48260745 831.01265405 65.57812023 828.5117445 C65.09768764 829.18707729 64.61725506 829.86241009 64.12226391 830.55820751 C63.49192745 831.45013302 62.861591 832.34205853 62.21215343 833.26101208 C61.58734585 834.14259487 60.96253826 835.02417767 60.31879711 835.93247509 C58.09919167 839.2214028 56.37082404 842.58073423 54.76562023 846.1992445 C54.48009289 846.81090466 54.19456554 847.42256481 53.90038586 848.05276012 C50.91534431 854.5976888 48.59809569 860.38365616 50.57812023 867.5117445 C53.15472714 870.63079497 54.73253063 872.2298813 58.57812023 873.5117445 C83.33841955 875.15820942 108.55563126 869.33141761 129.94140148 856.79690075 C134.1038546 854.76809027 137.03152405 854.85175473 141.57812023 855.5117445 C142.56812023 856.1717445 143.55812023 856.8317445 144.57812023 857.5117445 C144.38839865 864.91088631 139.41893212 869.78038596 134.34765148 874.65627575 C123.33445669 884.05252514 110.67353134 887.78643589 96.73046398 890.43752575 C78.9616713 893.36970562 78.9616713 893.36970562 64.57812023 903.5117445 C61.64964026 908.16979653 61.96647491 913.19275288 62.57812023 918.5117445 C65.23776309 924.15018735 68.56185033 926.21208458 73.57812023 930.5117445 C-50.17187977 931.0067445 -50.17187977 931.0067445 -176.42187977 931.5117445 C-177.25821184 944.31864702 -177.25821184 944.31864702 -177.64307117 957.11747265 C-177.65450909 957.95768819 -177.665947 958.79790374 -177.67773151 959.66358036 C-177.71379777 962.41184415 -177.74383187 965.16013266 -177.77344227 967.90847301 C-177.79777704 969.90617586 -177.82226682 971.90387683 -177.84689808 973.90157604 C-178.06189406 992.01197831 -178.18441698 1010.12332718 -178.28119373 1028.23470688 C-178.34758581 1040.38184178 -178.4426156 1052.52738818 -178.60840321 1064.67360973 C-178.75363899 1075.3155768 -178.84566437 1085.9564416 -178.87387753 1096.59938663 C-178.89049264 1102.21743896 -178.93259039 1107.83253403 -179.03839588 1113.44967365 C-179.13694993 1118.73280082 -179.16347228 1124.01159526 -179.13678837 1129.29552746 C-179.1392991 1131.22291133 -179.16711163 1133.15047215 -179.22342014 1135.07703495 C-179.4940168 1144.83718803 -179.06485573 1151.70875813 -172.14613056 1159.05964082 C-169.03381196 1162.04878734 -165.78375842 1164.80975391 -162.42187977 1167.5117445 C-160.98022982 1168.77786813 -159.54104851 1170.04684549 -158.10937977 1171.3242445 C-157.51254383 1171.829557 -156.91570789 1172.3348695 -156.30078602 1172.8554945 C-151.22468513 1177.33006161 -146.59005276 1182.3107204 -141.84375477 1187.128932 C-138.12970129 1190.87716388 -134.42904625 1194.57588087 -130.42187977 1198.0117445 C-124.56221022 1203.03599931 -119.25651168 1208.63416362 -113.84375477 1214.128932 C-110.12970129 1217.87716388 -106.42904625 1221.57588087 -102.42187977 1225.0117445 C-96.56221022 1230.03599931 -91.25651168 1235.63416362 -85.84375477 1241.128932 C-82.12970129 1244.87716388 -78.42904625 1248.57588087 -74.42187977 1252.0117445 C-68.56221022 1257.03599931 -63.25651168 1262.63416362 -57.84375477 1268.128932 C-54.12970129 1271.87716388 -50.42904625 1275.57588087 -46.42187977 1279.0117445 C-40.56221022 1284.03599931 -35.25651168 1289.63416362 -29.84375477 1295.128932 C-28.58305164 1296.40123669 -28.58305164 1296.40123669 -27.29687977 1297.6992445 C-26.55180164 1298.45592419 -25.80672352 1299.21260387 -25.03906727 1299.99221325 C-22.97733643 1301.97701383 -20.89414733 1303.80827058 -18.71004844 1305.64991307 C-15.83670999 1308.14544735 -13.3027051 1310.70941342 -10.85619378 1313.62296367 C-5.27376622 1320.14770308 -0.19759265 1326.06724714 8.6411543 1327.35431482 C13.08301604 1327.67951341 17.48169985 1327.65343251 21.93194103 1327.57039928 C23.94860577 1327.59174138 25.96520674 1327.62002746 27.98168826 1327.65458751 C33.48368321 1327.7287003 38.98134362 1327.70403001 44.48351121 1327.66197538 C50.43223612 1327.63388827 56.38009634 1327.69808743 62.32856274 1327.74996471 C73.29536864 1327.8313715 84.26072495 1327.83985082 95.22775401 1327.80909887 C105.36346655 1327.7807391 115.49867153 1327.78064337 125.63438702 1327.80855083 C126.99722474 1327.81219627 128.36006246 1327.81583931 129.7229002 1327.81947999 C131.77692254 1327.8250129 133.83094477 1327.83057729 135.8849668 1327.83622452 C154.9663679 1327.8881019 174.04760002 1327.90866283 193.12902737 1327.86209011 C194.20656443 1327.85946229 194.20656443 1327.85946229 195.30586992 1327.85678138 C201.13834927 1327.84235607 206.97082625 1327.82701596 212.8033031 1327.81161765 C235.5445472 1327.752249 258.28386895 1327.78732447 281.02489758 1327.89943981 C306.61352591 1328.02535483 332.20101685 1328.08496756 357.78996062 1328.04423976 C360.52217032 1328.04009308 363.25438024 1328.03614413 365.98659039 1328.03230572 C366.6592585 1328.03131017 367.33192662 1328.03031463 368.02497862 1328.02928891 C378.14764465 1328.01556965 388.26930122 1328.05259338 398.39175701 1328.11538982 C409.91451872 1328.18565727 421.43467068 1328.18477786 432.95733175 1328.0939832 C438.83074105 1328.04955419 444.69956123 1328.03640233 450.5727663 1328.11118603 C477.35204014 1329.53761714 477.35204014 1329.53761714 500.5038116 1318.52270389 C503.58192767 1315.16778203 506.25796177 1311.68269282 508.80826807 1307.91457987 C511.56254114 1304.17524791 514.99471721 1301.42157332 518.57812023 1298.5117445 C520.07666653 1297.07333248 521.5596604 1295.61824749 523.01562023 1294.1367445 C523.76585461 1293.37877575 524.51608898 1292.620807 525.28905773 1291.8398695 C526.42214367 1290.68744762 526.42214367 1290.68744762 527.57812023 1289.5117445 C536.00003981 1280.94610616 536.00003981 1280.94610616 540.54687023 1277.0429945 C545.30978538 1272.94971693 549.67526149 1268.48527513 554.07812023 1264.0117445 C559.09739533 1258.91190319 564.13857648 1253.95990967 569.56835461 1249.29885387 C573.41121214 1245.88173566 576.9742071 1242.17715785 580.57812023 1238.5117445 C589.00003981 1229.94610616 589.00003981 1229.94610616 593.54687023 1226.0429945 C598.30978538 1221.94971693 602.67526149 1217.48527513 607.07812023 1213.0117445 C612.09739533 1207.91190319 617.13857648 1202.95990967 622.56835461 1198.29885387 C626.41121214 1194.88173566 629.9742071 1191.17715785 633.57812023 1187.5117445 C635.09639629 1185.96755929 636.61720758 1184.42586244 638.14062023 1182.8867445 C639.13255383 1181.87740856 639.13255383 1181.87740856 640.14452648 1180.847682 C644.95466127 1176.23057028 649.89331672 1171.96826238 655.3538723 1168.13666153 C664.93013713 1160.83399057 670.3125776 1153.41002719 672.09790369 1141.54014803 C673.24710031 1132.37588108 673.65973298 1123.14986169 674.0408603 1113.92784464 C674.22909062 1109.72894607 674.48475371 1105.53514188 674.73967878 1101.33984529 C677.18142417 1061.01057858 678.25059977 1020.56404482 679.11769104 980.17411995 C679.23344404 974.87816816 679.35116074 969.58226491 679.4709425 964.2864027 C679.50059377 962.97083209 679.53024505 961.65526147 679.56079485 960.29982508 C680.02051776 940.6102408 680.98093692 920.99062194 682.23949718 901.33718395 C692.0553716 762.03683487 692.0553716 762.03683487 631.98974645 641.05002081 C620.61172584 628.17355441 608.43923504 616.15804876 596.00390148 604.31252575 C594.28850236 602.66272694 592.57332355 601.01269902 590.85836911 599.36243796 C552.15008952 562.29702182 513.02765506 530.13636531 457.0174818 531.33367634 C440.7169458 532.10819232 424.5286204 534.84996348 408.91677666 539.60132247 C405.53915224 540.60940887 403.57058096 541.03414157 400.37432861 539.35174465 C398.34078555 537.82779005 396.47252605 536.20314847 394.57812023 534.5117445 C392.358731 533.01606906 390.07125628 531.69949929 387.76171398 530.3398695 C386.49728436 529.59072604 385.23288098 528.84153829 383.96850109 528.09231091 C383.32202618 527.71149364 382.67555126 527.33067638 382.0094862 526.93831921 C355.79191337 511.46740311 328.73406396 494.97630065 316.57812023 465.5117445 C317.41729992 465.88686169 318.25647961 466.26197887 319.12108898 466.64846325 C342.26088002 476.49465515 367.14865612 479.26220991 392.06737804 480.6902113 C398.35134549 481.10580395 403.71188485 482.23635623 409.57812023 484.5117445 C414.60670222 486.1879385 418.91842434 486.11817184 423.82812023 484.3242445 C427.81373177 481.69736417 430.06792554 479.04232858 431.57812023 474.5117445 C432.96251282 461.73448176 426.18837046 454.06128629 418.57812023 444.5117445 C417.91812023 443.8517445 417.25812023 443.1917445 416.57812023 442.5117445 C500.06812023 442.1817445 583.55812023 441.8517445 669.57812023 441.5117445 C669.82562023 401.3136195 670.07312023 361.1154945 670.32812023 319.6992445 C670.43736828 307.00866589 670.54661633 294.31808727 670.65917492 281.24294567 C670.6993092 269.86281536 670.6993092 269.86281536 670.72344494 258.48264599 C670.73462164 253.41498756 670.77957031 248.3488389 670.84502697 243.28159618 C670.9274746 236.81311576 670.95199206 230.34682351 670.93498755 223.87786639 C670.93854183 221.50690857 670.96226491 219.1358726 671.0087018 216.76536691 C671.7539796 204.04323493 671.7539796 204.04323493 666.97708416 192.76677418 C664.13690817 189.91489582 660.92489233 187.74021239 657.57812023 185.5117445 C656.00622712 184.03290191 654.46198932 182.52308818 652.96874523 180.9648695 C652.27651867 180.26490856 651.58429211 179.56494762 650.87108898 178.84377575 C649.85981945 177.81317028 649.85981945 177.81317028 648.82812023 176.7617445 C644.86660738 172.72618467 640.91553706 168.74653329 636.62499523 165.0586195 C631.21519031 160.40157528 626.29025826 155.27016474 621.28905773 150.1836195 C617.82199636 146.68081523 614.35007421 143.25410729 610.60937023 140.0429945 C604.97267392 135.19878421 599.85424886 129.83243378 594.64452648 124.53908825 C590.42350613 120.2770207 586.13843633 116.20515891 581.58788586 112.29885387 C576.93470174 108.16118286 572.65263661 103.62166218 568.28905773 99.1836195 C564.82199636 95.68081523 561.35007421 92.25410729 557.60937023 89.0429945 C551.97267392 84.19878421 546.85424886 78.83243378 541.64452648 73.53908825 C537.42350613 69.2770207 533.13843633 65.20515891 528.58788586 61.29885387 C523.93470174 57.16118286 519.65263661 52.62166218 515.28905773 48.1836195 C511.24674682 44.09963527 507.17864566 40.16239027 502.73938984 36.51001817 C500.57812023 34.5117445 500.57812023 34.5117445 498.68479925 32.02264279 C495.21961346 27.71413238 492.04543154 24.49367317 486.47181594 23.5714699 C481.2961857 23.06984347 476.11948863 23.1434295 470.92563915 23.19480419 C468.9120581 23.17825794 466.89850878 23.15738254 464.88501269 23.1325652 C459.36459136 23.07730785 453.84575115 23.08432248 448.32514584 23.10188448 C442.36632088 23.11010612 436.40792353 23.06097009 430.44927502 23.01954174 C418.77942312 22.94809382 407.10999562 22.93163247 395.43996941 22.93649302 C385.95134608 22.94015647 376.46288971 22.92661731 366.97430134 22.90101719 C365.60976757 22.89741819 364.24523377 22.89382893 362.88069995 22.89024934 C362.20331561 22.88847082 361.52593127 22.88669231 360.82802013 22.8848599 C359.81005054 22.88218886 359.81005054 22.88218886 358.77151591 22.87946385 C358.09170656 22.87767083 357.41189721 22.8758778 356.71148758 22.87403044 C337.59584791 22.82413957 318.48026921 22.79532694 299.3645649 22.80962372 C298.6442351 22.81015516 297.92390531 22.8106866 297.18174734 22.81123415 C293.53107825 22.81398381 289.88040933 22.81691728 286.22974043 22.81991289 C285.14224982 22.82080245 285.14224982 22.82080245 284.0327897 22.82170999 C282.56667547 22.82291171 281.10056126 22.82412449 279.63444705 22.82534832 C256.8340253 22.84386121 234.03476589 22.79009457 211.23461437 22.67995739 C185.59894754 22.55622049 159.96402067 22.4897809 134.32803637 22.50553674 C131.59157414 22.5070212 128.85511188 22.5083007 126.11864948 22.50944614 C125.44490009 22.50976496 124.7711507 22.51008377 124.07698466 22.51041224 C113.92787366 22.51401819 103.77957457 22.47291692 93.63068485 22.40868092 C82.07843293 22.33558989 70.5278306 22.32368796 58.97548377 22.38708911 C53.08464882 22.41776979 47.19717088 22.42151809 41.30660725 22.35066891 C9.35772948 20.59080789 9.35772948 20.59080789 -13.92896545 39.38277853 Z " fill="#000000" transform="translate(209.42187976837158,9.488255500793457)"/>
<path d="M0 0 C74.91 0 149.82 0 227 0 C223.56638816 2.57520888 220.3157164 4.52187496 216.5625 6.5625 C185.68425103 23.81930915 176.46720684 49.74321714 166.72094727 82.24951172 C164.1426895 92.0858314 163.09590331 103.7324157 168 113 C170.9570839 116.46195189 172.99581942 118.81698351 177.609375 119.23828125 C179.16398437 119.27501953 179.16398437 119.27501953 180.75 119.3125 C182.28914063 119.36857422 182.28914063 119.36857422 183.859375 119.42578125 C190.32075956 118.54979752 194.19209118 113.94522236 198.4375 109.375 C204.89782017 102.70117463 212.06874066 97.77429147 220 93 C220.62358398 92.62278809 221.24716797 92.24557617 221.88964844 91.85693359 C229.938043 87.04416888 238.2541959 82.78224848 246.6875 78.6875 C247.51781738 78.27886719 248.34813477 77.87023438 249.20361328 77.44921875 C261.50579895 71.59539062 273.34764358 69.33976639 286.8125 68.5 C308.79019502 67.11912467 327.76065875 63.00052741 344 47 C345.82391086 45.30232025 347.65709597 43.61454267 349.5 41.9375 C350.72203125 40.80634766 350.72203125 40.80634766 351.96875 39.65234375 C354 38 354 38 356 38 C356.04698903 56.76918175 356.08211933 75.53835136 356.10362434 94.30757999 C356.11388061 103.02497909 356.12783101 111.74234136 356.15087891 120.4597168 C356.17098779 128.06918489 356.18375732 135.67862628 356.18817699 143.28812021 C356.19075518 147.30691651 356.19669271 151.32563651 356.21146011 155.34440804 C356.46158269 226.23831625 356.46158269 226.23831625 339.4453125 243.67578125 C335.37491804 247.54460665 331.21831893 251.2935531 327 255 C312.11665 268.36231523 300.11840549 281.86005373 289.51904297 298.84887695 C275.17401986 321.76759587 259.36029463 341.06353634 232.25314331 348.3361969 C226.22697957 349.56583414 220.15334629 349.55827219 214.0234375 349.609375 C213.3276421 349.61785713 212.63184669 349.62633926 211.91496658 349.63507843 C208.24112952 349.67966963 204.56763484 349.70760847 200.89355469 349.72070312 C197.12565607 349.73721871 193.36097694 349.80951655 189.59409142 349.89461899 C186.66843635 349.95075812 183.74354982 349.96612698 180.81740189 349.97071075 C179.42911566 349.97971631 178.04083489 350.00355191 176.65308762 350.0432663 C165.89193724 350.32957523 165.89193724 350.32957523 161.22772217 347.05175781 C158.97650474 344.80300311 156.99958232 342.47116721 155 340 C153.70299134 338.81476116 152.38371212 337.65279749 151.03125 336.53125 C145.39455369 331.68703971 140.27612862 326.32068928 135.06640625 321.02734375 C131.47063773 317.39660828 127.87853044 313.82942643 124 310.5 C118.37187243 305.66867614 113.26563402 300.31002622 108.06640625 295.02734375 C104.47063773 291.39660828 100.87853044 287.82942643 97 284.5 C91.37187243 279.66867614 86.26563402 274.31002622 81.06640625 269.02734375 C77.47063773 265.39660828 73.87853044 261.82942643 70 258.5 C64.37187243 253.66867614 59.26563402 248.31002622 54.06640625 243.02734375 C50.47063773 239.39660828 46.87853044 235.82942643 43 232.5 C37.37187243 227.66867614 32.26563402 222.31002622 27.06640625 217.02734375 C23.54277841 213.46945049 20.0332275 209.96545412 16.21875 206.71875 C15.62204498 206.16427185 15.02533997 205.6097937 14.41055298 205.03851318 C11.97500684 202.86776768 11.97500684 202.86776768 8.79013062 201.07574463 C3.24483451 197.32385856 -0.31699315 193.21910351 -1.73215485 186.54925537 C-2.81103737 176.45970696 -2.55785642 166.31751721 -2.35105276 156.18686771 C-2.2727535 151.67581074 -2.26874413 147.16464743 -2.25613403 142.65301514 C-2.22097476 134.09737629 -2.11886886 125.54389921 -1.99278939 116.98917079 C-1.8541911 107.34684721 -1.7942787 97.70454296 -1.73943305 88.06143999 C-1.65512166 73.75594154 -1.54087004 59.45062853 -1.35092163 45.14611626 C-1.33089766 43.6214658 -1.31189711 42.09680138 -1.29416275 40.57212257 C-1.13346262 27.02950114 -0.54171371 13.54284267 0 0 Z " fill="#000000" transform="translate(55,963)"/>
</svg>
