<?xml version="1.0" standalone="no"?>
<!DOCTYPE svg PUBLIC "-//W3C//DTD SVG 20010904//EN"
 "http://www.w3.org/TR/2001/REC-SVG-20010904/DTD/svg10.dtd">
<svg version="1.0" xmlns="http://www.w3.org/2000/svg"
 width="1280.000000pt" height="1280.000000pt" viewBox="0 0 1280.000000 1280.000000"
 preserveAspectRatio="xMidYMid meet">
<metadata>
Created by potrace 1.16, written by Peter Selinger 2001-2019
</metadata>
<g transform="translate(0.000000,1280.000000) scale(0.100000,-0.100000)"
fill="#000000" stroke="none">
<path d="M1988 10548 c18 -23 445 -591 517 -688 38 -52 250 -336 471 -630 220
-294 465 -623 545 -730 252 -339 777 -1041 1320 -1765 288 -385 535 -714 547
-732 l23 -32 -247 -268 c-136 -147 -273 -295 -304 -328 -113 -120 -1034 -1115
-1370 -1480 -107 -115 -225 -244 -264 -285 -161 -172 -197 -211 -301 -325 -60
-66 -144 -156 -186 -200 -42 -44 -161 -172 -265 -285 -104 -112 -262 -283
-351 -379 -90 -96 -163 -179 -163 -184 0 -6 24 -7 61 -3 34 3 206 6 383 6
l321 1 200 216 c420 455 616 666 844 913 465 502 886 957 1041 1125 46 50 216
234 379 409 163 176 352 381 421 457 69 75 131 140 138 143 7 3 35 -25 69 -72
78 -105 1389 -1860 2111 -2824 l275 -368 1320 0 c1054 0 1317 3 1309 12 -15
20 -2095 2800 -2837 3793 -214 286 -475 636 -582 778 -106 142 -193 262 -193
267 0 5 122 141 272 302 514 555 606 654 869 939 145 157 338 366 429 464 154
168 244 265 395 425 34 36 115 124 180 195 179 196 574 621 810 873 116 123
218 235 228 248 l19 24 -384 -1 -383 -1 -75 -81 c-96 -105 -503 -546 -685
-742 -77 -83 -243 -263 -370 -400 -126 -137 -320 -346 -430 -465 -110 -118
-229 -247 -264 -285 -36 -39 -126 -135 -200 -215 -75 -80 -161 -173 -191 -206
-51 -56 -285 -310 -474 -514 -44 -47 -85 -86 -91 -88 -7 -2 -197 244 -422 545
-758 1013 -1545 2067 -1690 2261 l-144 192 -1320 0 c-1056 0 -1319 -3 -1311
-12z m2372 -585 c17 -21 213 -283 437 -583 224 -300 641 -858 927 -1240 286
-382 686 -918 890 -1190 203 -272 642 -859 976 -1305 688 -920 1719 -2298
1950 -2607 85 -115 155 -214 155 -220 0 -10 -127 -13 -605 -13 l-605 0 -225
301 c-358 477 -1067 1426 -1567 2094 -468 627 -1192 1595 -1749 2340 -171 228
-587 784 -924 1235 -337 451 -678 906 -757 1011 -78 106 -143 197 -143 203 0
8 167 11 604 11 l605 0 31 -37z"/>
</g>
</svg>
