<?xml version="1.0" standalone="no"?>
<!DOCTYPE svg PUBLIC "-//W3C//DTD SVG 20010904//EN"
 "http://www.w3.org/TR/2001/REC-SVG-20010904/DTD/svg10.dtd">
<svg version="1.0" xmlns="http://www.w3.org/2000/svg"
 width="1280.000000pt" height="1280.000000pt" viewBox="0 0 1280.000000 1280.000000"
 preserveAspectRatio="xMidYMid meet">
<metadata>
Created by potrace 1.16, written by Peter Selinger 2001-2019
</metadata>
<g transform="translate(0.000000,1280.000000) scale(0.100000,-0.100000)"
fill="#000000" stroke="none">
<path d="M3078 12753 c-87 -2 -158 -7 -158 -12 0 -4 -77 -11 -172 -15 -95 -4
-175 -11 -178 -15 -3 -4 -49 -11 -104 -15 -54 -4 -107 -11 -117 -16 -10 -6
-34 -10 -53 -10 -20 0 -36 -4 -36 -9 0 -4 -31 -12 -70 -15 -38 -4 -70 -11 -70
-16 0 -4 -27 -11 -60 -15 -33 -4 -63 -11 -66 -16 -3 -5 -14 -9 -25 -9 -10 0
-19 -4 -19 -9 0 -5 -22 -12 -50 -16 -27 -4 -50 -10 -50 -15 0 -4 -12 -11 -27
-14 -40 -10 -83 -30 -83 -38 0 -4 -18 -11 -40 -14 -22 -4 -40 -10 -40 -14 0
-4 -12 -11 -27 -15 -15 -3 -34 -15 -43 -25 -9 -10 -28 -22 -43 -25 -15 -4 -27
-11 -27 -16 0 -5 -7 -9 -16 -9 -19 0 -114 -60 -114 -72 0 -4 -6 -8 -14 -8 -8
0 -21 -6 -28 -14 -8 -7 -24 -17 -36 -20 -12 -4 -22 -12 -22 -17 0 -5 -6 -9
-14 -9 -8 0 -16 -7 -20 -15 -3 -8 -11 -15 -18 -15 -7 0 -25 -11 -40 -25 -15
-14 -30 -25 -34 -25 -3 0 -24 -18 -45 -40 -22 -22 -43 -40 -48 -40 -14 0 -351
-339 -351 -353 -1 -7 -14 -23 -30 -37 -17 -13 -30 -28 -30 -33 0 -4 -16 -25
-35 -45 -19 -20 -38 -45 -41 -54 -3 -10 -9 -18 -14 -18 -4 0 -11 -11 -14 -25
-4 -14 -11 -25 -16 -25 -6 0 -10 -7 -10 -15 0 -8 -4 -15 -10 -15 -5 0 -12 -11
-16 -24 -3 -14 -12 -27 -20 -30 -8 -3 -14 -15 -14 -26 0 -11 -4 -20 -10 -20
-5 0 -10 -7 -10 -15 0 -8 -4 -15 -10 -15 -10 0 -50 -80 -50 -99 0 -6 -4 -11
-10 -11 -5 0 -10 -7 -10 -15 0 -8 -4 -15 -9 -15 -5 0 -12 -13 -16 -30 -4 -16
-10 -30 -15 -30 -4 0 -11 -16 -14 -35 -4 -19 -11 -35 -16 -35 -6 0 -13 -18
-16 -40 -4 -22 -10 -40 -15 -40 -5 0 -9 -7 -9 -15 0 -8 -4 -15 -9 -15 -5 0
-12 -20 -15 -45 -4 -25 -11 -45 -16 -45 -5 0 -12 -27 -16 -60 -4 -33 -11 -60
-15 -60 -5 0 -9 -13 -9 -30 0 -16 -4 -30 -9 -30 -6 0 -13 -31 -17 -70 -3 -38
-10 -70 -15 -70 -4 0 -11 -40 -15 -90 -3 -49 -10 -90 -15 -90 -5 0 -9 -26 -9
-58 0 -32 -4 -62 -9 -67 -6 -6 -13 -84 -17 -175 -4 -96 -11 -171 -18 -179 -16
-20 -16 -6969 0 -6979 7 -4 14 -70 18 -172 4 -91 11 -169 17 -174 5 -6 9 -36
9 -68 0 -32 4 -58 9 -58 5 0 12 -40 15 -90 4 -49 11 -90 15 -90 5 0 12 -31 15
-70 4 -38 11 -70 17 -70 5 0 9 -16 9 -35 0 -19 4 -35 9 -35 5 0 12 -25 16 -55
3 -30 10 -55 15 -55 5 0 12 -20 16 -45 3 -25 10 -45 15 -45 5 0 9 -7 9 -15 0
-8 4 -15 9 -15 5 0 11 -18 15 -40 3 -22 10 -40 15 -40 5 0 12 -18 16 -40 4
-22 10 -40 14 -40 4 0 13 -16 20 -36 7 -19 19 -38 26 -40 8 -3 17 -20 21 -37
3 -18 9 -34 13 -37 3 -3 15 -22 25 -43 11 -20 23 -37 28 -37 4 0 8 -7 8 -15 0
-9 6 -18 14 -21 8 -3 17 -16 20 -30 4 -13 11 -24 16 -24 6 0 10 -7 10 -15 0
-8 4 -15 9 -15 5 0 13 -10 17 -22 7 -23 8 -25 54 -79 16 -20 30 -40 30 -43 0
-4 18 -26 40 -48 22 -23 40 -45 40 -50 0 -11 338 -348 350 -348 5 0 25 -15 44
-32 54 -52 106 -92 127 -100 10 -4 19 -12 19 -18 0 -5 7 -10 15 -10 8 0 15 -4
15 -10 0 -5 11 -12 25 -16 14 -3 25 -10 25 -14 0 -5 10 -12 23 -16 12 -4 28
-15 35 -25 6 -9 25 -20 41 -24 16 -3 32 -13 35 -21 3 -8 15 -14 26 -14 11 0
20 -4 20 -10 0 -5 7 -10 15 -10 8 0 15 -4 15 -9 0 -5 14 -12 30 -16 17 -4 30
-10 30 -15 0 -5 14 -11 30 -15 16 -4 30 -11 30 -16 0 -5 9 -9 20 -9 11 0 20
-4 20 -9 0 -5 13 -12 30 -16 16 -4 30 -10 30 -15 0 -4 18 -10 40 -14 22 -3 40
-10 40 -15 0 -5 23 -12 50 -16 27 -4 50 -11 50 -16 0 -5 9 -9 19 -9 11 0 22
-4 25 -9 3 -5 33 -12 66 -16 33 -4 60 -11 60 -15 0 -5 32 -12 70 -16 39 -3 70
-11 70 -15 0 -5 17 -9 38 -9 21 0 42 -4 47 -9 6 -6 57 -13 115 -17 58 -4 107
-11 110 -15 3 -4 82 -11 175 -15 106 -4 173 -11 177 -18 10 -16 6966 -16 6976
0 4 7 71 14 177 18 93 4 172 11 175 15 3 5 50 11 105 15 55 4 104 12 110 17 5
5 26 9 47 9 21 0 38 4 38 9 0 4 32 12 70 15 39 4 70 11 70 15 0 5 29 12 65 16
36 3 65 11 65 16 0 5 11 9 25 9 14 0 25 4 25 9 0 5 20 12 45 15 25 4 45 11 45
16 0 4 18 11 40 15 22 4 40 11 40 15 0 5 13 11 30 15 16 4 32 11 35 16 4 5 15
9 26 9 10 0 19 5 19 10 0 6 8 10 19 10 10 0 29 8 42 18 13 10 39 25 57 33 17
8 32 17 32 21 0 3 14 9 30 13 17 4 30 11 30 16 0 5 11 11 25 15 13 3 27 15 30
25 4 10 15 19 26 19 11 0 22 6 25 14 3 8 16 17 30 20 13 4 24 11 24 16 0 6 7
10 15 10 8 0 15 4 15 9 0 5 10 13 23 17 12 4 32 17 44 30 12 13 25 24 28 24 5
0 50 37 81 67 7 7 15 13 19 13 11 0 345 338 345 349 0 6 4 11 9 11 5 0 12 9
16 19 3 11 15 23 26 26 10 4 19 13 19 20 0 8 14 28 30 45 17 17 30 35 30 40 0
6 4 10 10 10 5 0 12 11 16 25 3 14 10 25 14 25 5 0 12 10 16 23 4 12 15 28 25
35 11 7 19 20 19 28 0 8 7 17 15 20 8 3 17 21 21 39 3 19 12 36 20 39 8 3 14
12 14 21 0 8 5 15 10 15 6 0 10 9 10 20 0 11 4 20 9 20 5 0 12 13 16 30 4 16
10 30 15 30 5 0 11 13 15 30 4 16 10 30 13 30 8 0 42 74 42 90 0 6 4 10 9 10
5 0 11 18 15 40 3 22 11 40 16 40 6 0 10 11 10 25 0 14 4 25 9 25 6 0 13 20
17 45 3 25 10 45 14 45 5 0 12 29 15 65 4 36 11 65 16 65 5 0 9 13 9 29 0 17
4 32 9 35 5 4 12 40 16 81 4 41 11 75 15 75 5 0 11 48 15 108 4 59 11 112 16
117 4 6 11 85 15 175 4 102 11 168 18 172 16 10 16 6976 0 6986 -7 4 -14 70
-18 172 -4 90 -11 169 -15 175 -5 5 -12 55 -15 110 -4 55 -11 104 -16 110 -4
5 -11 43 -15 83 -4 39 -11 75 -16 78 -5 3 -9 18 -9 35 0 16 -4 29 -9 29 -5 0
-13 29 -16 65 -4 36 -11 65 -15 65 -4 0 -11 20 -14 45 -4 25 -11 45 -17 45 -5
0 -9 11 -9 25 0 14 -4 25 -10 25 -5 0 -13 18 -16 40 -4 22 -10 40 -14 40 -5 0
-11 14 -15 30 -4 17 -11 30 -16 30 -5 0 -9 11 -9 25 0 14 -4 25 -9 25 -5 0
-12 13 -16 29 -3 16 -13 35 -21 42 -8 6 -14 18 -14 25 0 8 -4 14 -10 14 -5 0
-10 9 -10 20 0 11 -4 20 -9 20 -5 0 -12 13 -16 29 -3 16 -13 32 -21 35 -8 3
-14 14 -14 25 0 10 -7 21 -15 25 -8 3 -15 11 -15 18 0 8 -9 20 -20 28 -11 8
-20 20 -20 26 0 7 -6 19 -12 26 -15 16 -35 47 -45 68 -4 8 -17 24 -30 36 -13
12 -23 26 -23 31 0 5 -18 26 -40 46 -22 19 -40 41 -40 47 0 11 -334 350 -345
350 -7 0 -31 19 -53 43 -9 9 -20 17 -25 17 -5 0 -23 15 -40 34 -18 18 -42 36
-54 40 -13 4 -23 12 -23 17 0 5 -7 9 -15 9 -8 0 -15 4 -15 10 0 5 -11 12 -24
16 -14 3 -27 12 -30 20 -3 8 -14 14 -25 14 -10 0 -22 7 -25 15 -3 9 -20 23
-38 31 -63 30 -78 39 -78 46 0 4 -16 10 -35 14 -19 3 -35 10 -35 15 0 5 -7 9
-15 9 -8 0 -15 4 -15 9 0 5 -13 12 -30 16 -16 4 -30 11 -30 15 0 5 -16 12 -35
16 -19 3 -35 10 -35 15 0 5 -7 9 -15 9 -8 0 -15 4 -15 9 0 5 -18 12 -40 16
-22 4 -40 11 -40 15 0 5 -20 12 -45 16 -25 3 -45 10 -45 15 0 5 -11 9 -24 9
-14 0 -27 4 -31 10 -3 5 -32 12 -65 16 -33 4 -60 10 -60 15 0 4 -31 11 -70 15
-38 3 -70 11 -70 15 0 5 -16 9 -36 9 -19 0 -43 4 -53 10 -10 5 -60 12 -112 16
-52 4 -99 10 -104 15 -6 4 -85 11 -175 15 -102 4 -168 11 -172 18 -5 8 -917
11 -3335 11 -1830 1 -3399 0 -3485 -2z m1554 -2185 c15 -12 170 -217 673 -892
148 -199 1236 -1655 1482 -1983 47 -62 88 -113 93 -113 4 0 58 55 120 123 63
67 166 178 230 247 64 69 174 188 245 265 259 283 462 502 550 595 50 52 140
149 200 215 61 66 194 210 296 320 102 110 327 353 500 540 173 188 388 421
478 518 l164 177 388 0 c323 0 389 -2 389 -14 0 -7 -44 -60 -97 -118 -220
-235 -349 -374 -533 -573 -379 -411 -546 -592 -680 -735 -74 -80 -162 -174
-195 -210 -104 -113 -544 -589 -675 -730 -69 -74 -204 -221 -301 -325 -96
-105 -298 -322 -448 -483 -150 -162 -271 -298 -269 -302 3 -9 302 -411 1462
-1960 335 -448 761 -1017 946 -1265 185 -247 533 -712 773 -1033 240 -320 437
-587 437 -592 0 -6 -10 -10 -22 -10 -13 -1 -610 -1 -1328 0 l-1305 0 -20 26
c-11 14 -209 279 -440 588 -230 308 -740 990 -1132 1513 -392 524 -742 993
-778 1043 -37 49 -70 90 -75 90 -5 0 -201 -208 -437 -462 -618 -668 -899 -972
-973 -1052 -36 -39 -178 -192 -316 -341 -138 -148 -333 -360 -435 -470 -218
-237 -813 -880 -843 -912 -21 -22 -26 -22 -407 -29 -393 -7 -412 -5 -392 30 4
7 121 134 259 282 254 273 546 587 709 764 304 329 1358 1468 1670 1805 204
220 469 505 588 634 l217 234 -16 25 c-9 14 -244 330 -522 701 -526 703 -1202
1607 -1881 2516 -218 291 -534 713 -703 938 -169 226 -305 414 -302 418 3 5
597 9 1323 9 1038 0 1321 -3 1333 -12z"/>
<path d="M3161 9958 c13 -18 103 -139 199 -268 97 -129 329 -440 516 -690 187
-250 556 -743 819 -1095 998 -1334 1380 -1845 1735 -2320 201 -269 568 -760
815 -1090 933 -1247 1214 -1625 1231 -1649 l16 -26 594 0 c431 0 594 3 594 11
0 11 -153 217 -1419 1909 -360 481 -820 1096 -1021 1365 -439 587 -1060 1418
-1806 2415 -302 404 -673 900 -824 1102 l-275 368 -598 0 -598 0 22 -32z"/>
</g>
</svg>
